<svg width="1928" height="610" viewBox="0 0 1928 610" fill="none" xmlns="http://www.w3.org/2000/svg">
<path fill-rule="evenodd" clip-rule="evenodd" d="M937.029 181.194V176.863H889.488C864.194 176.863 847.681 188.868 847.681 208.547C847.681 225.895 861.493 236.9 883.075 236.9C917.137 236.9 937.029 215.891 937.029 181.194ZM964 148.511V256.92H937.029V227.896C927.928 247.245 905.335 259.579 879.03 259.579C843.29 259.579 820.031 239.571 820.031 208.888C820.031 176.863 846.669 156.514 887.798 156.514H926.238C933.662 156.514 937.029 152.842 937.029 147.51C937.029 124.489 920.504 108.812 891.51 108.812C866.562 108.812 847.003 124.159 845.658 142.508H820.031C823.065 110.154 854.081 86.132 892.188 86.132C936.351 86.132 964 111.142 964 148.511ZM757.358 172.85C757.358 134.834 735.098 110.154 701.048 110.154C666.986 110.154 644.393 134.834 644.393 172.85C644.393 210.889 666.986 235.57 701.048 235.57C735.098 235.57 757.358 210.889 757.358 172.85ZM616.756 172.85C616.756 123.818 645.75 86.132 698.681 86.132C722.63 86.132 744.878 98.1368 754.99 116.144V19.7518H781.974V256.92H754.99V229.226C744.878 247.575 722.63 259.579 698.681 259.579C645.75 259.579 616.756 221.881 616.756 172.85ZM555.686 181.194V176.863H508.145C482.863 176.863 466.338 188.868 466.338 208.547C466.338 225.895 480.162 236.9 501.744 236.9C535.794 236.9 555.686 215.891 555.686 181.194ZM582.657 148.511V256.92H555.686V227.896C546.585 247.245 523.992 259.579 497.687 259.579C461.96 259.579 438.689 239.571 438.689 208.888C438.689 176.863 465.327 156.514 506.455 156.514H544.895C552.319 156.514 555.686 152.842 555.686 147.51C555.686 124.489 539.173 108.812 510.167 108.812C485.219 108.812 465.66 124.159 464.315 142.508H438.689C441.722 110.154 472.738 86.132 510.846 86.132C555.008 86.132 582.657 111.142 582.657 148.511ZM150.209 222.723C105.43 222.723 69.1355 186.819 69.1355 142.52C69.1355 98.2222 105.43 62.3176 150.209 62.3176C194.975 62.3176 231.282 98.2222 231.282 142.52C231.282 186.819 194.975 222.723 150.209 222.723ZM150.209 0C67.224 0 0.0369972 66.5388 0 148.645V295.386C0 300.693 4.34101 305 9.71794 305H59.4175C64.7822 305 69.1355 300.693 69.1355 295.386V266.533C69.1355 261.226 73.4888 256.92 78.8534 256.92H221.564C226.929 256.92 231.282 261.226 231.282 266.533V295.386C231.282 300.693 235.623 305 241 305H290.7C296.064 305 300.418 300.693 300.418 295.386V148.645C300.368 66.5388 233.181 0 150.209 0Z" transform="scale(2)" fill="#000028"/>
</svg>
