<?xml version="1.0" encoding="utf-8"?>
<!-- Generator: Adobe Illustrator 22.1.0, SVG Export Plug-In . SVG Version: 6.00 Build 0)  -->
<svg version="1.1" id="Layer_1" xmlns="http://www.w3.org/2000/svg" xmlns:xlink="http://www.w3.org/1999/xlink" x="0px" y="0px"
	 viewBox="0 0 1007.7 414.2" style="enable-background:new 0 0 1007.7 414.2;" xml:space="preserve">
<style type="text/css">
	.st0{fill:#77C597;}
	.st1{fill:#F39A43;}
	.st2{fill:#1E2940;}
</style>
<g>
	<g>
		<g>
			<g>
				<path class="st0" d="M99.8,138.5c-11.8,1-22.2,6.2-25,10.4c-0.7,1-0.7,2.3-0.2,3.3c0.6,1.1,1.7,1.8,2.9,1.8
					c23.5,0.5,38.7,14,43.4,27.1c0.3,0.9,1.2,1.5,2.2,1.5c0.3,0,0.5,0,0.8-0.1c1.2-0.4,1.8-1.7,1.4-2.9c-2.8-7.9-8.6-15.2-16.3-20.5
					c-8-5.6-17.7-8.8-28.4-9.5c3.7-2.7,11.2-5.8,19.6-6.5c7.5-0.6,18.1,0.4,26,8.8c0.9,0.9,2.3,1,3.3,0.1c0.9-0.9,1-2.3,0.1-3.3
					C120.3,139,108.3,137.8,99.8,138.5z"/>
				<path class="st0" d="M121.4,109.1c-8-1.2-16,1-18.8,3.2c-0.8,0.6-1.3,1.7-1.1,2.7c0.2,1.1,0.9,1.9,1.9,2.3
					c6.4,2.3,13.4,5.3,14.9,12.3c0.2,1.1,1.2,1.8,2.2,1.8c0.2,0,0.3,0,0.5-0.1c1.2-0.3,2-1.5,1.8-2.7c-1.7-8-8.5-12-14-14.2
					c3-0.9,7.4-1.5,11.8-0.8c5.1,0.8,8.9,3.1,11.5,6.8c0.7,1,2.2,1.3,3.2,0.6c1-0.7,1.3-2.1,0.6-3.2
					C132.7,113.1,127.7,110.1,121.4,109.1z"/>
				<path class="st0" d="M206.8,152c0.1-0.1,0.1-0.1,0.1-0.2c0-0.1,0.1-0.1,0.1-0.2c0-0.1,0.1-0.1,0.1-0.2c0-0.1,0-0.1,0.1-0.2
					c0-0.1,0-0.1,0-0.2c0-0.1,0-0.2,0-0.2c0,0,0-0.1,0-0.1c0,0,0,0,0-0.1c0-0.1,0-0.2,0-0.2c0-0.1,0-0.1,0-0.2c0-0.1,0-0.1-0.1-0.2
					c0-0.1,0-0.1-0.1-0.2c0-0.1-0.1-0.1-0.1-0.2c0-0.1-0.1-0.1-0.1-0.2c0-0.1-0.1-0.1-0.1-0.2c-0.1-0.1-0.1-0.1-0.2-0.2
					c0,0,0,0-0.1-0.1c-20.8-18.1-41.8-8.3-50.3-2.9c1-12.4,7.4-26.3,17.4-30.1c0,0,0,0,0.1,0c0.1,0,0.1-0.1,0.2-0.1
					c0.1,0,0.1-0.1,0.2-0.1c0.1,0,0.1-0.1,0.2-0.1c0.1,0,0.1-0.1,0.2-0.2c0-0.1,0.1-0.1,0.1-0.2c0-0.1,0.1-0.1,0.1-0.2
					c0-0.1,0.1-0.1,0.1-0.2c0-0.1,0.1-0.1,0.1-0.2c0,0,0,0,0-0.1c0,0,0-0.1,0-0.1c0-0.1,0-0.2,0.1-0.2c0-0.1,0-0.1,0-0.2
					c0-0.1,0-0.2,0-0.2c0-0.1,0-0.2,0-0.2c0-0.1,0-0.1,0-0.2c0-0.1,0-0.2-0.1-0.2c0,0,0-0.1,0-0.1c0,0,0,0,0-0.1
					c0-0.1-0.1-0.2-0.1-0.2c0-0.1-0.1-0.1-0.1-0.2c0-0.1-0.1-0.1-0.1-0.2c0-0.1-0.1-0.1-0.1-0.2c-0.1-0.1-0.1-0.1-0.2-0.1
					c-0.1,0-0.1-0.1-0.2-0.1c-0.1,0-0.1-0.1-0.2-0.1c-0.1,0-0.1-0.1-0.2-0.1c0,0,0,0-0.1,0c-10.8-4-20.4-0.8-26.4,2.4
					c0.3-2.7,0.4-5.6,0.3-8.6c0-1,0-2-0.1-3c-0.5-11.9-3-23.9-5.9-27c0,0,0,0,0,0c0,0,0,0,0,0c-0.1-0.1-0.2-0.2-0.4-0.3
					c-0.5-0.4-1.1-0.6-1.7-0.6c0,0,0,0,0,0c-0.6,0-1.2,0.2-1.7,0.6c-0.1,0.1-0.2,0.2-0.4,0.3c-4.3,4.7-5.6,11.9-6.6,17.2
					c-0.2,1.2,0.6,2.4,1.8,2.7c0.1,0,0.3,0,0.4,0c0,0,0,0,0,0c0,0,0.1,0,0.1,0c0.1,0,0.2,0,0.3,0c0.1,0,0.1,0,0.2,0
					c0.1,0,0.2,0,0.2-0.1c0.1,0,0.1,0,0.2-0.1c0.1,0,0.1-0.1,0.2-0.1c0.1,0,0.1-0.1,0.1-0.1c0.1,0,0.1-0.1,0.2-0.2
					c0,0,0.1-0.1,0.1-0.1c0.1-0.1,0.1-0.1,0.2-0.2c0,0,0.1-0.1,0.1-0.1c0.1-0.1,0.1-0.2,0.1-0.3c0,0,0-0.1,0.1-0.1
					c0.1-0.1,0.1-0.3,0.1-0.4c0.1-0.4,0.2-0.9,0.2-1.3c0-0.1,0-0.2,0.1-0.3c0.1-0.5,0.2-0.9,0.3-1.4c0-0.1,0-0.2,0.1-0.3
					c0.1-0.5,0.2-1,0.3-1.5c0,0,0,0,0,0c0.1-0.5,0.2-1,0.4-1.5c0-0.1,0.1-0.2,0.1-0.3c0.1-0.5,0.3-1,0.4-1.5c0-0.1,0.1-0.2,0.1-0.3
					c0.2-0.5,0.3-1,0.5-1.4c0,0,0,0,0-0.1c0.2-0.5,0.4-0.9,0.6-1.4c0-0.1,0.1-0.2,0.1-0.3c0.2-0.4,0.4-0.9,0.7-1.3
					c0,0,0-0.1,0.1-0.1c0,0,0,0.1,0,0.1c0.1,0.3,0.2,0.7,0.4,1.1c0,0.1,0,0.1,0.1,0.2c0.1,0.4,0.3,0.9,0.4,1.3c0,0,0,0,0,0
					c0.1,0.5,0.3,1,0.4,1.5c0,0.1,0,0.2,0.1,0.3c0.1,0.5,0.2,1.1,0.4,1.7c0,0.1,0,0.2,0.1,0.3c0.1,0.6,0.2,1.2,0.3,1.8
					c0,0.1,0,0.1,0,0.2c0.1,0.6,0.2,1.3,0.3,1.9c0,0.1,0,0.2,0,0.2c0.1,0.7,0.2,1.3,0.3,2c0,0.1,0,0.3,0.1,0.4
					c0.1,0.7,0.2,1.4,0.3,2.1c0,0.1,0,0.2,0,0.4c0.1,0.7,0.2,1.5,0.2,2.2c0,0,0,0,0,0.1c0.1,0.8,0.1,1.5,0.2,2.3c0,0.1,0,0.3,0,0.4
					c0,0.7,0.1,1.5,0.1,2.2c0,0.1,0,0.3,0,0.4c0,0.8,0,1.5,0,2.3c0,0.1,0,0.2,0,0.3c0,0.7,0,1.5,0,2.2c0,0.1,0,0.2,0,0.3
					c0,0.8-0.1,1.5-0.1,2.2c0,0.1,0,0.3,0,0.4c-0.1,0.7-0.1,1.5-0.2,2.2c0,0.1,0,0.2,0,0.4c-0.1,0.7-0.2,1.5-0.3,2.2
					c-0.2,1.2,0.3,2.4,1.4,3.1c0.5,0.3,1.1,0.5,1.7,0.5c0.6,0,1.2-0.2,1.7-0.5c3.9-2.5,11.1-6,19.6-4.8
					c-9.2,6.9-15.5,21.4-15.2,36.1c0,0,0,0.1,0,0.1c0,0.1,0,0.2,0,0.2c0,0.1,0,0.1,0,0.2c0,0.1,0,0.1,0.1,0.2c0,0.1,0.1,0.1,0.1,0.2
					c0,0.1,0.1,0.1,0.1,0.2c0,0.1,0.1,0.1,0.1,0.2c0,0,0,0.1,0.1,0.1c0,0,0,0,0.1,0.1c0.1,0.1,0.1,0.1,0.2,0.2c0,0,0.1,0.1,0.1,0.1
					c0.1,0.1,0.2,0.1,0.3,0.2c0,0,0.1,0.1,0.1,0.1c0.1,0,0.2,0.1,0.3,0.1c0,0,0.1,0,0.1,0c0.2,0,0.3,0,0.5,0c0,0,0,0,0,0
					c0,0,0,0,0,0c0,0,0,0,0,0c0,0,0,0,0.1,0c0,0,0.1,0,0.1,0c0.1,0,0.2,0,0.3,0c0.1,0,0.1,0,0.2,0c0.1,0,0.2,0,0.2-0.1
					c0.1,0,0.1-0.1,0.2-0.1c0.1,0,0.1-0.1,0.2-0.1c0.1,0,0.1-0.1,0.2-0.1c0,0,0.1,0,0.1-0.1c0.9-0.8,21.2-18.1,43.3-3.7
					c-9.1,0.9-16.5,3.6-20.8,7.8c-0.9,0.9-0.9,2.3,0,3.3c0.5,0.5,1,0.7,1.6,0.7c0.6,0,1.2-0.2,1.6-0.7c4.4-4.3,13.3-6.8,24-6.8
					c0,0,0,0,0.1,0c0.1,0,0.2,0,0.3,0c0.1,0,0.1,0,0.2,0c0.1,0,0.1,0,0.2-0.1c0.1,0,0.1,0,0.2-0.1c0.1,0,0.1-0.1,0.2-0.1
					c0.1,0,0.1-0.1,0.2-0.1c0.1,0,0.1-0.1,0.2-0.1c0.1-0.1,0.1-0.1,0.2-0.2c0,0,0,0,0.1-0.1C206.7,152,206.7,152,206.8,152z"/>
			</g>
			<g>
				<path class="st1" d="M203.1,255.7c-1-15.8-5.6-30-13.5-41.5c-0.9-1.3-1.9-2.7-2.9-3.9c-2-2.5-4.1-4.8-6.4-7
					c-0.9-0.9-2.4-0.8-3.3,0.1c-0.9,0.9-0.8,2.4,0.1,3.3c2.5,2.3,4.7,4.8,6.8,7.5c-3.5,4.7-8.4,10.6-14.4,17.4
					c-3.5-3.5-7.1-7-10.6-10.6c-0.9-0.9-2.3-0.9-3.3,0c-0.9,0.9-0.9,2.3,0,3.3c3.6,3.6,7.2,7.3,10.8,10.8
					c-7.9,8.8-17.3,18.8-27.5,29c-9.9-10-19.5-20-27.6-29.1c9.8-9.6,19.6-19.5,27.6-28.1c0.9,1,1.8,1.9,2.7,2.9
					c0.5,0.5,1.1,0.7,1.7,0.7c0.6,0,1.1-0.2,1.6-0.6c0.9-0.9,1-2.3,0.1-3.3c-1-1.1-2-2.1-3-3.2c3.5-3.9,6.6-7.4,9-10.4
					c5.8,1.1,11.4,3.3,16.6,6.4c1.1,0.6,2.5,0.3,3.2-0.8c0.7-1.1,0.3-2.5-0.8-3.2c-5-3-10.4-5.1-16.1-6.5c-1.6-0.4-3.2-0.7-4.9-0.9
					c-2.7-0.4-5.5-0.6-8.3-0.6c-4,0-7.8,0.4-11.6,1.1c-1.6,0.3-3.3,0.7-4.9,1.2c-12.8,3.7-23.6,11.7-31.6,22.8
					c-0.9,1.3-1.9,2.7-2.7,4.1c-7.2,11.8-11.5,26.6-11.8,43.3c0,0-0.1,0.1-0.1,0.1c0,0.1,0.1,0.1,0.1,0.2c0,0.6,0,1.2,0,1.8
					c0,1.4,0,2.8,0.1,4.1c0,0.5,0.1,1.1,0.1,1.6c0.8,16.5,4.9,30.6,11.9,41.7c0.8,1.3,1.7,2.6,2.6,3.8c7.8,10.6,18.4,17.9,31.2,21.3
					c2.1,0.5,4.3,1,6.5,1.3c3.3,0.5,6.7,0.7,10.2,0.7c2.5,0,4.9-0.1,7.2-0.3c2.4-0.2,4.7-0.6,7-1.1c13.4-2.8,24.5-9.7,32.6-19.9
					c0.9-1.2,1.8-2.4,2.7-3.7c7.4-11,11.9-25.3,12.8-42.3c0.1-1.9,0.2-3.9,0.2-5.9c0-0.1,0-0.2,0-0.3c0-0.3,0-0.6,0-0.9
					C203.3,260,203.2,257.8,203.1,255.7z M186.7,218.2c7.3,11.3,11.5,25.4,11.9,41c-7.3-6.6-16.4-15.1-25.8-24.3
					C178.3,228.7,183.1,223,186.7,218.2z M140.7,192.2c1.7,0,3.3,0.1,5,0.3c-2,2.4-4.2,5-6.8,7.8c-2.5-2.7-4.7-5.2-6.5-7.4
					C135.1,192.4,137.9,192.2,140.7,192.2z M98.6,212.5c7.7-9.6,17.5-15.9,28.7-18.7c2.2,2.8,5.1,6.1,8.5,9.8
					c-7.9,8.5-17.7,18.5-27.5,28.1c-5-5.7-9.3-10.8-12.7-15.1C96.5,215.2,97.5,213.8,98.6,212.5z M93,220.7c3.3,4.2,7.4,9,12,14.2
					c-7.8,7.6-15.5,14.8-22,20.8C83.8,242.7,87.3,230.7,93,220.7z M82.8,262.1c7.2-6.6,16.1-14.9,25.3-23.8
					c8.2,9.1,17.7,19.1,27.6,29.1c-3.8,3.8-7.8,7.7-11.8,11.6c-0.9,0.9-0.9,2.3-0.1,3.3c0.5,0.5,1.1,0.7,1.7,0.7
					c0.6,0,1.2-0.2,1.6-0.6c3.9-3.8,7.9-7.7,11.8-11.6c9.5,9.5,19.2,18.8,28.2,27c-10,10.4-19.5,19.2-28.1,26.2
					c-8.3-6.7-18.1-15.6-28.3-26.1c2.8-2.6,5.4-4.9,7.6-7c0.9-0.9,1-2.3,0.1-3.3c-0.9-0.9-2.3-1-3.3-0.1c-2.6,2.5-5.2,4.8-7.6,7.1
					c-8.1-8.5-16.5-18-24.7-28.2C82.8,264.9,82.8,263.5,82.8,262.1z M83.4,274c6.3,7.6,13.4,15.6,20.8,23.4c-3.7,3.3-7.1,6.3-10.3,9
					C88.4,297.6,84.8,286.6,83.4,274z M129.5,331c-13.7-2.5-25-9.7-33-20.7c3.7-3.1,7.4-6.4,10.9-9.5c9.2,9.5,18.7,18.6,27.9,26.1
					C133.2,328.3,131.3,329.7,129.5,331z M140.7,332c-1.5,0-3-0.1-4.5-0.2c0.9-0.7,1.8-1.4,2.7-2.1c1,0.8,2,1.5,2.9,2.2
					C141.5,332,141.1,332,140.7,332z M149.2,331.5c-2-1.4-4.1-3-6.4-4.8c9.9-8.1,19.6-17.6,27.8-26c4.8,4.3,9.3,8.2,13.3,11.6
					C175.4,323,163.6,329.6,149.2,331.5z M186.5,308.6c-3.9-3.3-8.3-7-12.9-11.2c5-5.2,9.1-9.9,12.1-13.3c0.7-0.8,1.5-1.7,2.2-2.5
					c0.8-1,0.7-2.4-0.2-3.2c-1-0.8-2.4-0.7-3.2,0.2c-0.7,0.8-1.4,1.7-2.2,2.5c-4.1,4.6-8.1,9-12,13.2c-8.9-8.1-18.6-17.4-28.1-26.9
					c9.7-9.8,19.3-19.9,27.6-29.1c10,9.7,19.6,18.7,27.1,25.4c-2.2,2.7-4.5,5.5-6.9,8.4c-0.8,1-0.7,2.4,0.3,3.2
					c0.4,0.4,1,0.5,1.5,0.5c0.7,0,1.3-0.3,1.8-0.8c1.7-2.1,3.4-4.1,5-6.1C197.5,284.9,193.4,298.3,186.5,308.6z"/>
				<path class="st1" d="M147.1,212.4c-0.9,0.9-0.9,2.3-0.1,3.3c0.7,0.7,2,2.1,2.7,2.8c0.5,0.5,1.1,0.7,1.7,0.7
					c0.6,0,1.2-0.2,1.6-0.6c0.9-0.9,0.9-2.3,0.1-3.3c-0.7-0.7-2-2.1-2.7-2.8C149.5,211.5,148.1,211.5,147.1,212.4z"/>
			</g>
			<g>
				<path class="st2" d="M428.2,264.1c0,12.7-9.4,22.2-21.9,22.2c-13.8,0-22-11.3-22-22.2v-36.9h-15.5v36.9
					c0,18.5,14,37.7,37.4,37.7c21,0,37.4-16.6,37.4-37.7v-36.9h-15.5V264.1z"/>
				<path class="st2" d="M490.3,225.7c-21,0-37.4,16.6-37.4,37.7v36.9h15.5v-36.9c0-12.7,9.4-22.2,21.9-22.2c13.8,0,22,11.3,22,22.2
					v36.9h15.5v-36.9C527.7,244.9,513.7,225.7,490.3,225.7z"/>
				<path class="st2" d="M323.9,226c-10.3,0-20,4.1-24.5,12v-50l-16.1,3.4v109h16.1v-10.6c4.5,7.8,14.5,12.2,24.3,12.2
					c19.6,0,36.5-15,36.5-37.9C360.2,240.6,343.7,226,323.9,226z M321.8,286.3c-11.8,0-22.3-8.4-22.3-22.6
					c0-14.3,11.4-22.1,22.3-22.1c12.2,0,22,8.7,22,22.1C343.8,277.1,334,286.3,321.8,286.3z"/>
				<path class="st2" d="M596.7,238.3c-4.5-7.9-14.8-12.3-24.6-12.3c-19.6,0-36.8,15-36.8,38.2c0,23.1,17.1,37.7,36.8,37.7
					c9.8,0,20.4-4.5,24.6-12.6c0,1.2,0,2.5,0,3.7c0,20.4-9.5,28.7-24.3,28.7c-7.9,0-16.5-4.5-20.4-12.2c-2.8,1.2-10.4,5.5-13.2,6.7
					c6.9,13.1,19.6,20.4,33.7,20.4c24.5,0,40.1-13.6,40.1-47.1v-62h-15.7V238.3z M574,286.4c-12.2,0-22.1-8.7-22.1-22.4
					c0-13.2,10-22.4,22.1-22.4c12,0,22.4,7.9,22.4,22.4C596.4,278.2,584.9,286.4,574,286.4z"/>
				<polygon class="st2" points="712.1,300.3 728.1,300.3 728.1,191.3 712.1,187.9 				"/>
				<path class="st2" d="M776.3,226c-20.6,0-37.9,14.7-37.9,37.7c0,23.1,17.3,38.2,37.9,38.2c20.7,0,38.2-15.1,38.2-38.2
					C814.5,240.6,797,226,776.3,226z M776.3,286.3c-12,0-22-8.9-22-22.6c0-13.4,10-22,22-22c12.2,0,22.1,8.6,22.1,22
					C798.4,277.4,788.5,286.3,776.3,286.3z"/>
				<path class="st2" d="M660.8,226c-20.6,0-37.9,14.7-37.9,37.7c0,23.1,17.3,38.2,37.9,38.2c8.5,0,16.5-2.6,22.9-7.2v5.7H699v-36.6
					C699,240.6,681.5,226,660.8,226z M660.8,286.3c-12,0-22-8.9-22-22.6c0-13.4,10-22,22-22c12.2,0,22.1,8.6,22.1,22
					C682.9,277.4,673,286.3,660.8,286.3z"/>
				<polygon class="st2" points="914.1,227.5 897.1,276.6 880.3,227.5 865.3,227.5 848.5,276.6 831.6,227.5 814.5,227.5 
					841.9,300.3 855,300.3 872.8,248.7 891.3,300.3 904.6,300.3 931.2,227.5 				"/>
			</g>
		</g>
	</g>
</g>
</svg>
