<?xml version="1.0" encoding="UTF-8" standalone="no"?>
<svg
   xmlns:dc="http://purl.org/dc/elements/1.1/"
   xmlns:cc="http://creativecommons.org/ns#"
   xmlns:rdf="http://www.w3.org/1999/02/22-rdf-syntax-ns#"
   xmlns:svg="http://www.w3.org/2000/svg"
   xmlns="http://www.w3.org/2000/svg"
   viewBox="0 0 206.8875 206.8875"
   height="206.8875"
   width="206.8875"
   xml:space="preserve"
   version="1.1"
   id="svg2"><metadata
     id="metadata8"><rdf:RDF><cc:Work
         rdf:about=""><dc:format>image/svg+xml</dc:format><dc:type
           rdf:resource="http://purl.org/dc/dcmitype/StillImage" /><dc:title></dc:title></cc:Work></rdf:RDF></metadata><defs
     id="defs6" /><g
     transform="matrix(1.25,0,0,-1.25,0,206.8875)"
     id="g10"><g
       transform="scale(0.1,0.1)"
       id="g12"><path
         id="path14"
         style="fill:#ed1c24;fill-opacity:1;fill-rule:nonzero;stroke:none"
         d="m 827.52,531.891 c 163.32,0 295.74,132.41 295.74,295.687 0,163.371 -132.42,295.762 -295.74,295.762 -163.36,0 -295.84,-132.391 -295.84,-295.762 0,-163.277 132.48,-295.687 295.84,-295.687" /><path
         id="path16"
         style="fill:#ed1c24;fill-opacity:1;fill-rule:nonzero;stroke:none"
         d="m 486.027,531.891 c -163.41,0 -295.863,132.41 -295.863,295.687 0,163.371 132.453,295.872 295.844,295.872 l 0.019,-591.559" /><path
         id="path18"
         style="fill:#ed1c24;fill-opacity:1;fill-rule:nonzero;stroke:none"
         d="m 1168.98,205.59 0.06,280.629 280.78,-0.117 c 0,-155.114 -125.74,-280.512 -280.84,-280.512" /><path
         id="path20"
         style="fill:#ed1c24;fill-opacity:1;fill-rule:nonzero;stroke:none"
         d="m 486.008,1449.93 0,-280.98 -281.113,-0.05 c 0,155.17 125.925,281.03 281.113,281.03" /><path
         id="path22"
         style="fill:#ed1c24;fill-opacity:1;fill-rule:nonzero;stroke:none"
         d="m 486.027,205.41 0,280.809 -281.066,-0.141 c 0,-155.09 125.781,-280.668 281.066,-280.668" /><path
         id="path24"
         style="fill:#ed1c24;fill-opacity:1;fill-rule:nonzero;stroke:none"
         d="m 1510.68,573.461 -0.13,508.279 c 86.58,-51.59 144.59,-146.072 144.59,-254.162 0,-108.035 -58.01,-202.469 -144.46,-254.117" /><path
         id="path26"
         style="fill:#ed1c24;fill-opacity:1;fill-rule:nonzero;stroke:none"
         d="m 573.359,1510.76 508.261,-0.08 c -51.56,86.56 -145.956,144.45 -254.042,144.45 -108.144,0 -202.644,-57.89 -254.219,-144.37" /><path
         id="path28"
         style="fill:#ed1c24;fill-opacity:1;fill-rule:nonzero;stroke:none"
         d="m 1077.89,144.5 -508.339,0.039 C 621.121,58.0313 715.566,0 823.711,0 931.797,0 1026.23,57.9414 1077.89,144.5" /><path
         id="path30"
         style="fill:#ed1c24;fill-opacity:1;fill-rule:nonzero;stroke:none"
         d="m 1123.18,486.102 c 0,-163.383 -132.34,-295.762 -295.66,-295.762 -163.36,0 -295.887,132.379 -295.887,295.738 l 591.547,0.024" /><path
         id="path32"
         style="fill:#ed1c24;fill-opacity:1;fill-rule:nonzero;stroke:none"
         d="m 1169.04,531.891 c 163.34,0 295.84,132.41 295.84,295.687 0,163.371 -132.5,295.872 -295.84,295.872 l 0,-591.559" /><path
         id="path34"
         style="fill:#ed1c24;fill-opacity:1;fill-rule:nonzero;stroke:none"
         d="m 1123.18,1168.61 c 0,163.3 -132.34,295.73 -295.66,295.73 -163.36,0 -295.86,-132.43 -295.86,-295.73 l 591.52,0" /><path
         id="path36"
         style="fill:#ed1c24;fill-opacity:1;fill-rule:nonzero;stroke:none"
         d="m 144.395,573.461 0.089,508.249 C 57.8906,1030.15 0,935.648 0,827.578 0,719.523 57.8906,625.109 144.395,573.461" /><path
         id="path38"
         style="fill:#ed1c24;fill-opacity:1;fill-rule:nonzero;stroke:none"
         d="m 1449.82,1168.79 -280.78,0.16 -0.06,280.7 c 155.1,0 280.84,-125.67 280.84,-280.86" /></g></g></svg>