<?xml version="1.0" encoding="UTF-8" standalone="no"?>
<svg width="446px" height="101px" viewBox="0 0 446 101" version="1.1" xmlns="http://www.w3.org/2000/svg" xmlns:xlink="http://www.w3.org/1999/xlink">
    <!-- Generator: Sketch 3.6.1 (26313) - http://www.bohemiancoding.com/sketch -->
    <title>CDLogo_Full_RGB</title>
    <desc>Created with Sketch.</desc>
    <defs>
        <path id="path-1" d="M445.326,50.5046669 L445.326,100.94 L0.06,100.94 L0.06,0.0693338956 L445.326,0.0693338956 L445.326,50.5046669 L445.326,50.5046669 Z"/>
    </defs>
    <g id="Page-1" stroke="none" stroke-width="1" fill="none" fill-rule="evenodd">
        <g id="CDLogo_Full_RGB">
            <path d="M163.909,35.133 L155.087,39.986 C153.429,38.252 151.79,37.049 150.17,36.376 C148.551,35.703 146.653,35.367 144.477,35.367 C140.512,35.367 137.306,36.549 134.857,38.913 C132.409,41.277 131.185,44.307 131.185,48.001 C131.185,51.593 132.363,54.527 134.722,56.799 C137.08,59.074 140.175,60.21 144.01,60.21 C148.752,60.21 152.444,58.593 155.087,55.358 L163.443,61.08 C158.914,66.97 152.522,69.915 144.267,69.915 C136.839,69.915 131.023,67.715 126.818,63.316 C122.612,58.917 120.51,53.766 120.51,47.866 C120.51,43.778 121.532,40.012 123.577,36.57 C125.621,33.128 128.474,30.424 132.136,28.457 C135.798,26.49 139.893,25.507 144.422,25.507 C148.614,25.507 152.38,26.342 155.718,28.01 C159.057,29.68 161.786,32.054 163.909,35.133" id="Fill-1" fill="#239646"/>
            <path d="M161.557,19.606 L183.644,19.606 L183.644,11.027 L161.557,11.027 L161.557,19.606 Z" id="Fill-2" fill="#239646"/>
            <path d="M167.302,68.827 L177.899,68.827 L177.899,26.593 L167.302,26.593 L167.302,68.827 Z" id="Fill-3" fill="#239646"/>
            <path d="M188.865,11.027 L199.463,11.027 L199.463,26.593 L205.751,26.593 L205.751,35.716 L199.463,35.716 L199.463,68.828 L188.865,68.828 L188.865,35.716 L183.431,35.716 L183.431,26.593 L188.865,26.593 L188.865,11.027" id="Fill-4" fill="#239646"/>
            <path d="M209.937,26.593 L220.651,26.593 L220.651,46.934 C220.651,50.894 220.924,53.644 221.468,55.183 C222.013,56.723 222.889,57.92 224.095,58.774 C225.3,59.628 226.786,60.055 228.55,60.055 C230.315,60.055 231.812,59.634 233.045,58.794 C234.278,57.953 235.192,56.717 235.789,55.086 C236.23,53.87 236.45,51.27 236.45,47.284 L236.45,26.593 L247.048,26.593 L247.048,44.489 C247.048,51.864 246.465,56.911 245.301,59.628 C243.877,62.941 241.781,65.484 239.012,67.256 C236.243,69.028 232.724,69.915 228.454,69.915 C223.821,69.915 220.075,68.879 217.215,66.809 C214.356,64.74 212.344,61.854 211.179,58.153 C210.351,55.591 209.937,50.933 209.937,44.178 L209.937,26.593" id="Fill-5" fill="#239646"/>
            <path d="M279.048,32.494 L272.487,39.054 C269.821,36.415 267.402,35.095 265.228,35.095 C264.037,35.095 263.106,35.347 262.433,35.851 C261.76,36.357 261.424,36.984 261.424,37.734 C261.424,38.304 261.638,38.828 262.064,39.307 C262.492,39.786 263.546,40.439 265.228,41.267 L269.11,43.208 C273.199,45.226 276.007,47.284 277.534,49.38 C279.06,51.476 279.824,53.935 279.824,56.755 C279.824,60.508 278.446,63.639 275.69,66.149 C272.933,68.66 269.239,69.915 264.607,69.915 C258.448,69.915 253.531,67.508 249.856,62.695 L256.378,55.591 C257.62,57.04 259.076,58.211 260.745,59.104 C262.414,59.996 263.895,60.443 265.19,60.443 C266.587,60.443 267.713,60.107 268.567,59.434 C269.421,58.762 269.848,57.985 269.848,57.105 C269.848,55.474 268.307,53.883 265.228,52.33 L261.657,50.544 C254.825,47.103 251.409,42.794 251.409,37.618 C251.409,34.28 252.696,31.426 255.272,29.059 C257.846,26.69 261.139,25.507 265.151,25.507 C267.894,25.507 270.475,26.109 272.895,27.311 C275.315,28.515 277.365,30.242 279.048,32.494" id="Fill-6" fill="#239646"/>
            <path d="M305.199,35.289 C301.923,35.289 299.202,36.448 297.035,38.763 C294.869,41.079 293.785,44.049 293.785,47.672 C293.785,51.321 294.888,54.323 297.093,56.678 C299.298,59.033 302.013,60.21 305.237,60.21 C308.564,60.21 311.324,59.052 313.516,56.736 C315.708,54.42 316.805,51.386 316.805,47.633 C316.805,43.959 315.708,40.983 313.516,38.705 C311.324,36.428 308.552,35.289 305.199,35.289 L305.199,35.289 Z M316.339,10.29 L326.936,10.29 L326.936,68.828 L316.339,68.828 L316.339,64.364 C314.27,66.331 312.196,67.748 310.115,68.614 C308.035,69.481 305.779,69.915 303.35,69.915 C297.896,69.915 293.178,67.8 289.197,63.568 C285.217,59.337 283.227,54.077 283.227,47.788 C283.227,41.267 285.152,35.923 289.004,31.756 C292.855,27.59 297.534,25.507 303.04,25.507 C305.573,25.507 307.95,25.986 310.173,26.943 C312.396,27.901 314.451,29.337 316.339,31.252 L316.339,10.29 L316.339,10.29 Z" id="Fill-7" fill="#1B324F"/>
            <path d="M352.956,35.289 C349.68,35.289 346.959,36.448 344.792,38.763 C342.626,41.079 341.542,44.049 341.542,47.672 C341.542,51.321 342.645,54.323 344.85,56.678 C347.055,59.033 349.77,60.21 352.994,60.21 C356.321,60.21 359.081,59.052 361.273,56.736 C363.465,54.42 364.562,51.386 364.562,47.633 C364.562,43.959 363.465,40.983 361.273,38.705 C359.081,36.428 356.309,35.289 352.956,35.289 L352.956,35.289 Z M364.096,26.593 L374.693,26.593 L374.693,68.828 L364.096,68.828 L364.096,64.364 C362.027,66.331 359.953,67.748 357.872,68.614 C355.792,69.481 353.536,69.915 351.107,69.915 C345.653,69.915 340.935,67.8 336.954,63.568 C332.974,59.337 330.984,54.077 330.984,47.788 C330.984,41.267 332.909,35.923 336.761,31.756 C340.612,27.59 345.291,25.507 350.797,25.507 C353.33,25.507 355.707,25.986 357.93,26.943 C360.153,27.901 362.208,29.337 364.096,31.252 L364.096,26.593 L364.096,26.593 Z" id="Fill-8" fill="#1B324F"/>
            <path d="M384.464,11.027 L395.061,11.027 L395.061,26.593 L401.35,26.593 L401.35,35.716 L395.061,35.716 L395.061,68.828 L384.464,68.828 L384.464,35.716 L379.029,35.716 L379.029,26.593 L384.464,26.593 L384.464,11.027" id="Fill-9" fill="#1B324F"/>
            <g id="Group-14">
                <mask id="mask-2" fill="white">
                    <use xlink:href="#path-1"/>
                </mask>
                <g id="Clip-11"/>
                <path d="M423.588,35.289 C420.312,35.289 417.591,36.448 415.425,38.763 C413.258,41.079 412.175,44.049 412.175,47.672 C412.175,51.321 413.277,54.323 415.483,56.678 C417.688,59.033 420.402,60.21 423.626,60.21 C426.954,60.21 429.714,59.052 431.906,56.736 C434.098,54.42 435.194,51.386 435.194,47.633 C435.194,43.959 434.098,40.983 431.906,38.705 C429.714,36.428 426.941,35.289 423.588,35.289 L423.588,35.289 Z M434.729,26.593 L445.326,26.593 L445.326,68.828 L434.729,68.828 L434.729,64.364 C432.66,66.331 430.586,67.748 428.505,68.614 C426.424,69.481 424.169,69.915 421.74,69.915 C416.285,69.915 411.568,67.8 407.587,63.568 C403.606,59.337 401.616,54.077 401.616,47.788 C401.616,41.267 403.542,35.923 407.394,31.756 C411.245,27.59 415.924,25.507 421.43,25.507 C423.963,25.507 426.34,25.986 428.563,26.943 C430.786,27.901 432.841,29.337 434.729,31.252 L434.729,26.593 L434.729,26.593 Z" id="Fill-10" fill="#1B324F" mask="url(#mask-2)"/>
                <path d="M73.082,40.548 C74.593,32.917 52.856,29.736 40.373,45.089 C26.333,62.358 54.558,80.327 86.547,56.172 C107.015,40.717 113.509,19.473 101.473,8.56 C78.266,-12.481 21.878,7.256 3.002,49.338 C21.878,17.467 69.273,2.415 88.167,21.865 C96.058,29.988 91.652,46.282 77.151,53.271 C53.73,64.132 56.071,40.179 73.082,40.548" id="Fill-12" fill="#1B324F" mask="url(#mask-2)"/>
                <path d="M71.809,23.856 C33.017,12.207 -19.586,59.859 7.406,91.178 C25.379,112.032 87.786,101.941 107.935,38.942 C84.073,82.447 39.235,88.772 22.259,76.325 C2.225,61.636 27.138,20.561 71.809,23.856" id="Fill-13" fill="#239646" mask="url(#mask-2)"/>
            </g>
        </g>
    </g>
<head xmlns=""/></svg>