<?xml version="1.0" encoding="UTF-8" standalone="no"?>
<svg
   xmlns:dc="http://purl.org/dc/elements/1.1/"
   xmlns:cc="http://creativecommons.org/ns#"
   xmlns:rdf="http://www.w3.org/1999/02/22-rdf-syntax-ns#"
   xmlns:svg="http://www.w3.org/2000/svg"
   xmlns="http://www.w3.org/2000/svg"
   viewBox="0 0 277.71249 19.775"
   height="19.775"
   width="277.71249"
   xml:space="preserve"
   version="1.1"
   id="svg2"><metadata
     id="metadata8"><rdf:RDF><cc:Work
         rdf:about=""><dc:format>image/svg+xml</dc:format><dc:type
           rdf:resource="http://purl.org/dc/dcmitype/StillImage" /><dc:title></dc:title></cc:Work></rdf:RDF></metadata><defs
     id="defs6" /><g
     transform="matrix(1.25,0,0,-1.25,0,19.775)"
     id="g10"><g
       transform="scale(0.1,0.1)"
       id="g12"><path
         id="path14"
         style="fill:#100f0d;fill-opacity:1;fill-rule:nonzero;stroke:none"
         d="m 457.578,139.605 c -1.598,8.075 -8.07,12.153 -15.984,12.153 -13.598,0 -19.352,-11.192 -19.352,-23.106 0,-13.031 5.754,-23.906 19.43,-23.906 9.992,0 15.75,7.035 16.469,16.469 l 7.597,0 c -1.441,-14.235 -10.316,-22.8673 -24.707,-22.8673 -17.75,0 -26.386,13.1133 -26.386,29.7423 0,16.555 9.433,30.062 27.027,30.062 11.914,0 21.746,-6.394 23.504,-18.547 l -7.598,0" /><path
         id="path16"
         style="fill:#100f0d;fill-opacity:1;fill-rule:nonzero;stroke:none"
         d="m 491.914,104.746 c 7.113,0 12.871,5.594 12.871,15.59 0,10.074 -5.758,15.668 -12.871,15.668 -7.117,0 -12.875,-5.594 -12.875,-15.668 0,-9.996 5.758,-15.59 12.875,-15.59 z m 0,37.254 c 13.109,0 20.066,-9.512 20.066,-21.664 0,-12.074 -6.957,-21.586 -20.066,-21.586 -13.113,0 -20.066,9.512 -20.066,21.586 0,12.152 6.953,21.664 20.066,21.664" /><path
         id="path18"
         style="fill:#100f0d;fill-opacity:1;fill-rule:nonzero;stroke:none"
         d="m 520,141.043 6.395,0 0,-6.078 0.164,0 c 3.035,4.64 7.675,7.035 13.347,7.035 5.039,0 9.68,-1.996 11.36,-7.035 2.797,4.398 7.675,7.035 12.949,7.035 8.234,0 13.754,-3.437 13.754,-11.992 l 0,-30.301 -6.797,0 0,27.106 c 0,5.117 -1.359,9.191 -7.996,9.191 -6.555,0 -10.793,-4.152 -10.793,-10.551 l 0,-25.746 -6.797,0 0,27.106 c 0,5.355 -1.68,9.191 -7.754,9.191 -8.074,0 -11.035,-7.434 -11.035,-10.551 l 0,-25.746 -6.797,0 0,41.336" /><path
         id="path20"
         style="fill:#100f0d;fill-opacity:1;fill-rule:nonzero;stroke:none"
         d="m 588.242,141.043 6.399,0 0,-6.078 0.16,0 c 3.035,4.64 7.676,7.035 13.347,7.035 5.04,0 9.68,-1.996 11.36,-7.035 2.797,4.398 7.676,7.035 12.949,7.035 8.234,0 13.754,-3.437 13.754,-11.992 l 0,-30.301 -6.797,0 0,27.106 c 0,5.117 -1.355,9.191 -7.996,9.191 -6.555,0 -10.793,-4.152 -10.793,-10.551 l 0,-25.746 -6.797,0 0,27.106 c 0,5.355 -1.68,9.191 -7.754,9.191 -8.078,0 -11.035,-7.434 -11.035,-10.551 l 0,-25.746 -6.797,0 0,41.336" /><path
         id="path22"
         style="fill:#100f0d;fill-opacity:1;fill-rule:nonzero;stroke:none"
         d="m 690.703,99.707 -6.394,0 0,6.559 -0.164,0 c -2.879,-5.118 -7.512,-7.516 -13.43,-7.516 -10.875,0 -14.235,6.234 -14.235,15.105 l 0,27.188 6.797,0 0,-27.98 c 0,-5.04 3.2,-8.317 8.395,-8.317 8.234,0 12.234,5.516 12.234,12.949 l 0,23.348 6.797,0 0,-41.336" /><path
         id="path24"
         style="fill:#100f0d;fill-opacity:1;fill-rule:nonzero;stroke:none"
         d="m 700.961,141.043 6.398,0 0,-6.555 0.161,0 c 2.875,5.117 7.515,7.512 13.433,7.512 10.871,0 14.235,-6.234 14.235,-15.105 l 0,-27.188 -6.797,0 0,27.984 c 0,5.039 -3.2,8.313 -8.403,8.313 -8.23,0 -12.23,-5.516 -12.23,-12.949 l 0,-23.348 -6.797,0 0,41.336" /><path
         id="path26"
         style="fill:#100f0d;fill-opacity:1;fill-rule:nonzero;stroke:none"
         d="m 745.84,141.043 6.797,0 0,-41.336 -6.797,0 0,41.336 z m 6.797,7.437 -6.797,0 0,8.317 6.797,0 0,-8.317" /><path
         id="path28"
         style="fill:#100f0d;fill-opacity:1;fill-rule:nonzero;stroke:none"
         d="m 791.266,127.773 c -1.039,5.196 -4.641,8.231 -10.235,8.231 -9.84,0 -12.879,-7.754 -12.879,-16.152 0,-7.59 3.442,-15.106 12.078,-15.106 6.555,0 10.473,3.836 11.352,10.074 l 6.957,0 c -1.519,-10.074 -7.836,-16.07 -18.23,-16.07 -12.633,0 -19.352,8.793 -19.352,21.102 0,12.398 6.398,22.148 19.512,22.148 9.355,0 16.871,-4.395 17.832,-14.227 l -7.035,0" /><path
         id="path30"
         style="fill:#100f0d;fill-opacity:1;fill-rule:nonzero;stroke:none"
         d="m 831.742,121.055 c -2.637,-1.918 -7.754,-1.996 -12.312,-2.797 -4.481,-0.801 -8.317,-2.399 -8.317,-7.438 0,-4.476 3.836,-6.074 7.996,-6.074 8.957,0 12.633,5.594 12.633,9.356 l 0,6.953 z m 11.035,-21.1878 c -1.199,-0.7227 -2.718,-1.1172 -4.879,-1.1172 -3.519,0 -5.753,1.914 -5.753,6.395 -3.762,-4.399 -8.793,-6.395 -14.551,-6.395 -7.52,0 -13.676,3.355 -13.676,11.59 0,9.355 6.957,11.355 13.992,12.715 7.516,1.437 13.91,0.957 13.91,6.074 0,5.918 -4.879,6.875 -9.191,6.875 -5.758,0 -9.996,-1.758 -10.316,-7.832 l -6.793,0 c 0.398,10.234 8.312,13.828 17.507,13.828 7.438,0 15.512,-1.68 15.512,-11.352 l 0,-21.269 c 0,-3.199 0,-4.633 2.16,-4.633 0.563,0 1.199,0.078 2.078,0.399 l 0,-5.2778" /><path
         id="path32"
         style="fill:#100f0d;fill-opacity:1;fill-rule:nonzero;stroke:none"
         d="m 858.551,141.043 8.234,0 0,-5.996 -8.234,0 0,-25.668 c 0,-3.113 0.879,-3.676 5.117,-3.676 l 3.117,0 0,-5.996 -5.191,0 c -7.043,0 -9.84,1.441 -9.84,9.031 l 0,26.309 -7.035,0 0,5.996 7.035,0 0,12.395 6.797,0 0,-12.395" /><path
         id="path34"
         style="fill:#100f0d;fill-opacity:1;fill-rule:nonzero;stroke:none"
         d="m 874.719,141.043 6.797,0 0,-41.336 -6.797,0 0,41.336 z m 6.797,7.437 -6.797,0 0,8.317 6.797,0 0,-8.317" /><path
         id="path36"
         style="fill:#100f0d;fill-opacity:1;fill-rule:nonzero;stroke:none"
         d="m 909.906,104.746 c 7.114,0 12.871,5.594 12.871,15.59 0,10.074 -5.757,15.668 -12.871,15.668 -7.117,0 -12.875,-5.594 -12.875,-15.668 0,-9.996 5.758,-15.59 12.875,-15.59 z m 0,37.254 c 13.114,0 20.071,-9.512 20.071,-21.664 0,-12.074 -6.957,-21.586 -20.071,-21.586 -13.113,0 -20.07,9.512 -20.07,21.586 0,12.152 6.957,21.664 20.07,21.664" /><path
         id="path38"
         style="fill:#100f0d;fill-opacity:1;fill-rule:nonzero;stroke:none"
         d="m 937.992,141.043 6.399,0 0,-6.555 0.16,0 c 2.875,5.117 7.515,7.512 13.433,7.512 10.871,0 14.235,-6.234 14.235,-15.105 l 0,-27.188 -6.797,0 0,27.984 c 0,5.039 -3.199,8.313 -8.402,8.313 -8.231,0 -12.231,-5.516 -12.231,-12.949 l 0,-23.348 -6.797,0 0,41.336" /><path
         id="path40"
         style="fill:#100f0d;fill-opacity:1;fill-rule:nonzero;stroke:none"
         d="m 986.633,112.738 c 0.242,-6.074 5.515,-7.992 11.117,-7.992 4.23,0 9.99,0.957 9.99,6.152 0,5.278 -6.71,6.157 -13.51,7.676 -6.714,1.524 -13.511,3.758 -13.511,11.676 0,8.313 8.23,11.75 15.429,11.75 9.112,0 16.392,-2.875 16.952,-12.949 l -6.8,0 c -0.48,5.273 -5.11,6.953 -9.589,6.953 -4.078,0 -8.801,-1.117 -8.801,-5.274 0,-4.875 7.195,-5.675 13.52,-7.195 6.79,-1.519 13.51,-3.762 13.51,-11.754 0,-9.84 -9.2,-13.031 -17.592,-13.031 -9.278,0 -17.114,3.754 -17.508,13.988 l 6.793,0" /><path
         id="path42"
         style="fill:#100f0d;fill-opacity:1;fill-rule:nonzero;stroke:none"
         d="m 450.465,56.9336 c -0.879,8.1523 -6.317,11.668 -14.152,11.668 -6.395,0 -12.793,-2.3125 -12.793,-9.7539 0,-7.0313 9.117,-8.0782 18.312,-10.1563 9.109,-2.0703 18.227,-5.2734 18.227,-16.4648 0,-12.1602 -11.914,-17.0313 -22.305,-17.0313 -12.793,0 -23.59,6.2305 -23.59,20.1445 l 7.199,0 c 0,-9.5976 7.992,-13.75 16.629,-13.75 6.875,0 14.469,2.1602 14.469,10.3907 0,7.8437 -9.109,9.1992 -18.227,11.2031 -9.117,1.9922 -18.312,4.6289 -18.312,15.1055 0,11.5937 10.316,16.7109 20.711,16.7109 11.672,0 20.551,-5.5195 21.027,-18.0664 l -7.195,0" /><path
         id="path44"
         style="fill:#100f0d;fill-opacity:1;fill-rule:nonzero;stroke:none"
         d="m 496.871,41.1797 c -0.324,6.4766 -5.199,11.6719 -11.914,11.6719 -7.121,0 -11.352,-5.3516 -11.836,-11.6719 l 23.75,0 z m 6.551,-11.5117 c -1.836,-9.1211 -8.395,-14.0742 -17.668,-14.0742 -13.191,0 -19.43,9.1132 -19.824,21.75 0,12.3906 8.152,21.5039 19.425,21.5039 14.629,0 19.11,-13.6719 18.708,-23.6719 l -30.942,0 c -0.238,-7.1875 3.836,-13.586 12.875,-13.586 5.598,0 9.512,2.7149 10.715,8.0782 l 6.711,0" /><path
         id="path46"
         style="fill:#100f0d;fill-opacity:1;fill-rule:nonzero;stroke:none"
         d="m 539.188,44.6172 c -1.04,5.1953 -4.637,8.2344 -10.235,8.2344 -9.832,0 -12.875,-7.7539 -12.875,-16.1524 0,-7.5976 3.438,-15.1094 12.074,-15.1094 6.559,0 10.477,3.8399 11.356,10.0704 l 6.957,0 c -1.52,-10.0704 -7.836,-16.0664 -18.235,-16.0664 -12.628,0 -19.343,8.8007 -19.343,21.1054 0,12.4024 6.394,22.1485 19.508,22.1485 9.355,0 16.871,-4.3946 17.832,-14.2305 l -7.039,0" /><path
         id="path48"
         style="fill:#100f0d;fill-opacity:1;fill-rule:nonzero;stroke:none"
         d="m 588.301,16.5508 -6.399,0 0,6.5547 -0.156,0 c -2.879,-5.1172 -7.516,-7.5117 -13.43,-7.5117 -10.875,0 -14.234,6.2421 -14.234,15.1093 l 0,27.1875 6.797,0 0,-27.9883 c 0,-5.039 3.199,-8.3125 8.394,-8.3125 8.239,0 12.235,5.5196 12.235,12.9493 l 0,23.3515 6.793,0 0,-41.3398" /><path
         id="path50"
         style="fill:#100f0d;fill-opacity:1;fill-rule:nonzero;stroke:none"
         d="m 598.32,57.8906 6.399,0 0,-8.7109 0.16,0 c 3.273,6.6289 7.832,9.9101 15.187,9.668 l 0,-7.1875 c -10.957,0 -14.949,-6.25 -14.949,-16.7188 l 0,-18.3906 -6.797,0 0,41.3398" /><path
         id="path52"
         style="fill:#100f0d;fill-opacity:1;fill-rule:nonzero;stroke:none"
         d="m 625.602,57.8906 6.796,0 0,-41.3398 -6.796,0 0,41.3398 z m 6.796,7.4414 -6.796,0 0,8.3086 6.796,0 0,-8.3086" /><path
         id="path54"
         style="fill:#100f0d;fill-opacity:1;fill-rule:nonzero;stroke:none"
         d="m 652.395,57.8906 8.234,0 0,-5.9961 -8.234,0 0,-25.664 c 0,-3.125 0.875,-3.6797 5.117,-3.6797 l 3.117,0 0,-6 -5.199,0 c -7.032,0 -9.832,1.4375 -9.832,9.0351 l 0,26.3086 -7.039,0 0,5.9961 7.039,0 0,12.3907 6.797,0 0,-12.3907" /><path
         id="path56"
         style="fill:#100f0d;fill-opacity:1;fill-rule:nonzero;stroke:none"
         d="M 684.391,11.0352 C 681.27,2.96094 678.473,0 672.398,0 c -1.601,0 -3.199,0.15625 -4.718,0.722656 l 0,6.230474 c 1.281,-0.39063 2.636,-0.95704 4,-0.95704 2.797,0 4.316,1.36719 5.593,3.76172 l 2.801,7.03909 -16.39,41.0937 7.671,0 12.079,-33.8281 0.156,0 11.598,33.8281 7.195,0 -17.992,-46.8554" /><path
         id="path58"
         style="fill:#100f0d;fill-opacity:1;fill-rule:nonzero;stroke:none"
         d="m 731.52,73.6406 39.418,0 0,-6.3945 -31.821,0 0,-18.1445 29.66,0 0,-6.4063 -29.66,0 0,-19.7461 32.059,0 0,-6.3984 -39.656,0 0,57.0898" /><path
         id="path60"
         style="fill:#100f0d;fill-opacity:1;fill-rule:nonzero;stroke:none"
         d="m 783.438,29.5898 c 0.238,-6.0742 5.511,-8 11.113,-8 4.238,0 9.992,0.961 9.992,6.1524 0,5.2851 -6.715,6.1641 -13.512,7.6797 -6.715,1.5195 -13.511,3.7578 -13.511,11.6679 0,8.3204 8.234,11.7579 15.429,11.7579 9.117,0 16.391,-2.8711 16.953,-12.9493 l -6.797,0 c -0.476,5.2735 -5.117,6.9532 -9.593,6.9532 -4.078,0 -8.793,-1.1133 -8.793,-5.2735 0,-4.8828 7.191,-5.6836 13.508,-7.1953 6.796,-1.5156 13.511,-3.7617 13.511,-11.75 0,-9.8437 -9.195,-13.039 -17.59,-13.039 -9.277,0 -17.105,3.7617 -17.507,13.996 l 6.797,0" /><path
         id="path62"
         style="fill:#100f0d;fill-opacity:1;fill-rule:nonzero;stroke:none"
         d="m 828.711,57.8906 8.238,0 0,-5.9961 -8.238,0 0,-25.664 c 0,-3.125 0.879,-3.6797 5.117,-3.6797 l 3.121,0 0,-6 -5.203,0 c -7.027,0 -9.832,1.4375 -9.832,9.0351 l 0,26.3086 -7.035,0 0,5.9961 7.035,0 0,12.3907 6.797,0 0,-12.3907" /><path
         id="path64"
         style="fill:#100f0d;fill-opacity:1;fill-rule:nonzero;stroke:none"
         d="m 870.063,37.8984 c -2.637,-1.9218 -7.754,-2 -12.313,-2.8007 -4.48,-0.8008 -8.316,-2.3946 -8.316,-7.4336 0,-4.4805 3.836,-6.0743 8,-6.0743 8.953,0 12.629,5.5977 12.629,9.3555 l 0,6.9531 z m 11.035,-21.1796 c -1.2,-0.7227 -2.719,-1.125 -4.875,-1.125 -3.524,0 -5.758,1.914 -5.758,6.3984 -3.762,-4.3945 -8.793,-6.3984 -14.551,-6.3984 -7.519,0 -13.68,3.3515 -13.68,11.5937 0,9.3555 6.961,11.3477 13.996,12.7148 7.516,1.4375 13.911,0.9571 13.911,6.0743 0,5.9179 -4.875,6.875 -9.196,6.875 -5.754,0 -9.992,-1.7578 -10.308,-7.8321 l -6.797,0 c 0.398,10.2344 8.312,13.8282 17.508,13.8282 7.437,0 15.511,-1.6797 15.511,-11.3477 l 0,-21.2695 c 0,-3.2032 0,-4.6407 2.161,-4.6407 0.558,0 1.199,0.0821 2.078,0.4024 l 0,-5.2734" /><path
         id="path66"
         style="fill:#100f0d;fill-opacity:1;fill-rule:nonzero;stroke:none"
         d="m 906.863,52.8516 c -9.113,0 -12.629,-7.8321 -12.629,-15.586 0,-8.164 3.676,-15.6758 13.032,-15.6758 9.277,0 12.39,7.9219 12.39,15.9883 0,7.7539 -3.996,15.2735 -12.793,15.2735 z m -19.187,20.789 6.797,0 0,-21.3437 0.16,0 c 2.238,4.5586 7.515,6.5508 13.195,6.5508 12.707,0 19.027,-10.0782 19.027,-21.75 0,-11.668 -6.234,-21.5039 -18.871,-21.5039 -4.234,0 -10.312,1.5937 -13.351,6.4765 l -0.16,0 0,-5.5195 -6.797,0 0,57.0898" /><path
         id="path68"
         style="fill:#100f0d;fill-opacity:1;fill-rule:nonzero;stroke:none"
         d="m 935.273,16.5508 6.79688,0 0,57.0898 -6.79688,0 0,-57.0898 z" /><path
         id="path70"
         style="fill:#100f0d;fill-opacity:1;fill-rule:nonzero;stroke:none"
         d="m 953.031,57.8906 6.797,0 0,-41.3398 -6.797,0 0,41.3398 z m 6.797,7.4414 -6.797,0 0,8.3086 6.797,0 0,-8.3086" /><path
         id="path72"
         style="fill:#100f0d;fill-opacity:1;fill-rule:nonzero;stroke:none"
         d="m 974.551,29.5898 c 0.238,-6.0742 5.512,-8 11.113,-8 4.238,0 9.988,0.961 9.988,6.1524 0,5.2851 -6.711,6.1641 -13.507,7.6797 -6.715,1.5195 -13.512,3.7578 -13.512,11.6679 0,8.3204 8.23,11.7579 15.43,11.7579 9.117,0 16.387,-2.8711 16.957,-12.9493 l -6.801,0 c -0.481,5.2735 -5.117,6.9532 -9.594,6.9532 -4.078,0 -8.797,-1.1133 -8.797,-5.2735 0,-4.8828 7.195,-5.6836 13.512,-7.1953 6.797,-1.5156 13.51,-3.7617 13.51,-11.75 0,-9.8437 -9.194,-13.039 -17.584,-13.039 -9.282,0 -17.114,3.7617 -17.512,13.996 l 6.797,0" /><path
         id="path74"
         style="fill:#100f0d;fill-opacity:1;fill-rule:nonzero;stroke:none"
         d="m 1010.39,73.6406 6.8,0 0,-21.8242 0.16,0 c 2.23,4.9609 8.07,7.0313 13.03,7.0313 10.87,0 14.23,-6.2305 14.23,-15.1094 l 0,-27.1875 -6.79,0 0,27.9805 c 0,5.039 -3.2,8.3203 -8.4,8.3203 -8.23,0 -12.23,-5.5157 -12.23,-12.9493 l 0,-23.3515 -6.8,0 0,57.0898" /><path
         id="path76"
         style="fill:#100f0d;fill-opacity:1;fill-rule:nonzero;stroke:none"
         d="m 1054.87,57.8906 6.4,0 0,-6.0742 0.16,0 c 3.04,4.6289 7.68,7.0313 13.35,7.0313 5.04,0 9.68,-1.9922 11.36,-7.0313 2.8,4.3945 7.67,7.0313 12.95,7.0313 8.23,0 13.75,-3.4375 13.75,-11.9922 l 0,-30.3047 -6.8,0 0,27.1015 c 0,5.1172 -1.35,9.1993 -7.99,9.1993 -6.56,0 -10.79,-4.1602 -10.79,-10.5469 l 0,-25.7539 -6.8,0 0,27.1015 c 0,5.3594 -1.68,9.1993 -7.75,9.1993 -8.08,0 -11.04,-7.4414 -11.04,-10.5469 l 0,-25.7539 -6.8,0 0,41.3398" /><path
         id="path78"
         style="fill:#100f0d;fill-opacity:1;fill-rule:nonzero;stroke:none"
         d="m 1151.82,41.1797 c -0.33,6.4766 -5.2,11.6719 -11.92,11.6719 -7.12,0 -11.36,-5.3516 -11.83,-11.6719 l 23.75,0 z m 6.55,-11.5117 c -1.84,-9.1211 -8.39,-14.0742 -17.67,-14.0742 -13.19,0 -19.43,9.1132 -19.83,21.75 0,12.3906 8.16,21.5039 19.43,21.5039 14.63,0 19.11,-13.6719 18.7,-23.6719 l -30.93,0 c -0.24,-7.1875 3.83,-13.586 12.87,-13.586 5.6,0 9.51,2.7149 10.72,8.0782 l 6.71,0" /><path
         id="path80"
         style="fill:#100f0d;fill-opacity:1;fill-rule:nonzero;stroke:none"
         d="m 1166.07,57.8906 6.39,0 0,-6.5625 0.17,0 c 2.88,5.1172 7.51,7.5196 13.42,7.5196 10.88,0 14.24,-6.2305 14.24,-15.1094 l 0,-27.1875 -6.79,0 0,27.9805 c 0,5.039 -3.21,8.3203 -8.4,8.3203 -8.23,0 -12.23,-5.5157 -12.23,-12.9493 l 0,-23.3515 -6.8,0 0,41.3398" /><path
         id="path82"
         style="fill:#100f0d;fill-opacity:1;fill-rule:nonzero;stroke:none"
         d="m 1219.98,57.8906 8.24,0 0,-5.9961 -8.24,0 0,-25.664 c 0,-3.125 0.88,-3.6797 5.12,-3.6797 l 3.12,0 0,-6 -5.19,0 c -7.04,0 -9.85,1.4375 -9.85,9.0351 l 0,26.3086 -7.03,0 0,5.9961 7.03,0 0,12.3907 6.8,0 0,-12.3907" /><path
         id="path84"
         style="fill:#100f0d;fill-opacity:1;fill-rule:nonzero;stroke:none"
         d="m 1397.58,139.605 c -1.6,8.075 -8.07,12.153 -15.99,12.153 -13.59,0 -19.34,-11.192 -19.34,-23.106 0,-13.031 5.75,-23.906 19.42,-23.906 9.99,0 15.75,7.035 16.47,16.469 l 7.6,0 c -1.44,-14.235 -10.32,-22.8673 -24.7,-22.8673 -17.76,0 -26.39,13.1133 -26.39,29.7423 0,16.555 9.43,30.062 27.02,30.062 11.91,0 21.75,-6.394 23.51,-18.547 l -7.6,0" /><path
         id="path86"
         style="fill:#100f0d;fill-opacity:1;fill-rule:nonzero;stroke:none"
         d="m 1442.79,124.336 c -0.33,6.473 -5.2,11.668 -11.91,11.668 -7.13,0 -11.36,-5.356 -11.84,-11.668 l 23.75,0 z m 6.55,-11.516 c -1.84,-9.113 -8.39,-14.07 -17.67,-14.07 -13.19,0 -19.42,9.109 -19.82,21.746 0,12.395 8.15,21.504 19.42,21.504 14.63,0 19.11,-13.672 18.71,-23.664 l -30.94,0 c -0.24,-7.195 3.83,-13.59 12.87,-13.59 5.6,0 9.52,2.715 10.72,8.074 l 6.71,0" /><path
         id="path88"
         style="fill:#100f0d;fill-opacity:1;fill-rule:nonzero;stroke:none"
         d="m 1457.04,141.043 6.4,0 0,-6.555 0.15,0 c 2.88,5.117 7.52,7.512 13.44,7.512 10.88,0 14.23,-6.234 14.23,-15.105 l 0,-27.188 -6.79,0 0,27.984 c 0,5.039 -3.2,8.313 -8.4,8.313 -8.24,0 -12.23,-5.516 -12.23,-12.949 l 0,-23.348 -6.8,0 0,41.336" /><path
         id="path90"
         style="fill:#100f0d;fill-opacity:1;fill-rule:nonzero;stroke:none"
         d="m 1510.96,141.043 8.24,0 0,-5.996 -8.24,0 0,-25.668 c 0,-3.113 0.88,-3.676 5.11,-3.676 l 3.13,0 0,-5.996 -5.21,0 c -7.03,0 -9.83,1.441 -9.83,9.031 l 0,26.309 -7.03,0 0,5.996 7.03,0 0,12.395 6.8,0 0,-12.395" /><path
         id="path92"
         style="fill:#100f0d;fill-opacity:1;fill-rule:nonzero;stroke:none"
         d="m 1526.48,141.043 6.39,0 0,-8.715 0.17,0 c 3.27,6.637 7.83,9.918 15.18,9.672 l 0,-7.191 c -10.94,0 -14.94,-6.239 -14.94,-16.715 l 0,-18.387 -6.8,0 0,41.336" /><path
         id="path94"
         style="fill:#100f0d;fill-opacity:1;fill-rule:nonzero;stroke:none"
         d="m 1580.63,124.336 c -0.33,6.473 -5.2,11.668 -11.92,11.668 -7.12,0 -11.36,-5.356 -11.83,-11.668 l 23.75,0 z m 6.55,-11.516 c -1.84,-9.113 -8.39,-14.07 -17.67,-14.07 -13.19,0 -19.43,9.109 -19.83,21.746 0,12.395 8.15,21.504 19.43,21.504 14.63,0 19.11,-13.672 18.7,-23.664 l -30.93,0 c -0.24,-7.195 3.83,-13.59 12.87,-13.59 5.6,0 9.51,2.715 10.72,8.074 l 6.71,0" /><path
         id="path96"
         style="fill:#100f0d;fill-opacity:1;fill-rule:nonzero;stroke:none"
         d="m 1634.86,104.746 c 9.12,0 12.64,7.832 12.64,15.59 0,8.156 -3.67,15.668 -13.03,15.668 -9.27,0 -12.4,-7.914 -12.4,-15.988 0,-7.754 4,-15.27 12.79,-15.27 z m 19.2,-5.039 -6.79,0 0,5.594 -0.16,0 c -2.25,-4.555 -7.52,-6.551 -13.2,-6.551 -12.72,0 -19.03,10.074 -19.03,21.746 0,11.672 6.23,21.504 18.87,21.504 4.24,0 10.31,-1.594 13.36,-6.473 l 0.16,0 0,21.27 6.79,0 0,-57.09" /><path
         id="path98"
         style="fill:#100f0d;fill-opacity:1;fill-rule:nonzero;stroke:none"
         d="m 1693.26,124.336 c -0.31,6.473 -5.19,11.668 -11.91,11.668 -7.11,0 -11.35,-5.356 -11.84,-11.668 l 23.75,0 z m 6.56,-11.516 c -1.83,-9.113 -8.39,-14.07 -17.67,-14.07 -13.19,0 -19.44,9.109 -19.83,21.746 0,12.395 8.16,21.504 19.44,21.504 14.63,0 19.1,-13.672 18.7,-23.664 l -30.95,0 c -0.23,-7.195 3.85,-13.59 12.88,-13.59 5.6,0 9.51,2.715 10.72,8.074 l 6.71,0" /><path
         id="path100"
         style="fill:#100f0d;fill-opacity:1;fill-rule:nonzero;stroke:none"
         d="m 1730.16,99.707 6.7891,0 0,57.0898 -6.7891,0 0,-57.0898 z" /><path
         id="path102"
         style="fill:#100f0d;fill-opacity:1;fill-rule:nonzero;stroke:none"
         d="m 1773.11,121.055 c -2.64,-1.918 -7.76,-1.996 -12.33,-2.797 -4.47,-0.801 -8.31,-2.399 -8.31,-7.438 0,-4.476 3.84,-6.074 8,-6.074 8.95,0 12.64,5.594 12.64,9.356 l 0,6.953 z m 11.03,-21.1878 c -1.21,-0.7227 -2.72,-1.1172 -4.88,-1.1172 -3.52,0 -5.76,1.914 -5.76,6.395 -3.75,-4.399 -8.79,-6.395 -14.55,-6.395 -7.52,0 -13.68,3.355 -13.68,11.59 0,9.355 6.96,11.355 14,12.715 7.51,1.437 13.91,0.957 13.91,6.074 0,5.918 -4.88,6.875 -9.2,6.875 -5.76,0 -10,-1.758 -10.31,-7.832 l -6.79,0 c 0.4,10.234 8.32,13.828 17.5,13.828 7.44,0 15.52,-1.68 15.52,-11.352 l 0,-21.269 c 0,-3.199 0,-4.633 2.15,-4.633 0.57,0 1.21,0.078 2.09,0.399 l 0,-5.2778" /><path
         id="path104"
         style="fill:#100f0d;fill-opacity:1;fill-rule:nonzero;stroke:none"
         d="m 1816.88,112.738 c 0.23,-6.074 5.5,-7.992 11.11,-7.992 4.24,0 9.99,0.957 9.99,6.152 0,5.278 -6.71,6.157 -13.51,7.676 -6.72,1.524 -13.51,3.758 -13.51,11.676 0,8.313 8.23,11.75 15.43,11.75 9.12,0 16.38,-2.875 16.95,-12.949 l -6.8,0 c -0.48,5.273 -5.11,6.953 -9.59,6.953 -4.08,0 -8.8,-1.117 -8.8,-5.274 0,-4.875 7.2,-5.675 13.51,-7.195 6.8,-1.519 13.52,-3.762 13.52,-11.754 0,-9.84 -9.2,-13.031 -17.59,-13.031 -9.28,0 -17.11,3.754 -17.51,13.988 l 6.8,0" /><path
         id="path106"
         style="fill:#100f0d;fill-opacity:1;fill-rule:nonzero;stroke:none"
         d="m 1871.1,158.152 8.72,0 -10.47,-11.433 -5.12,0 6.87,11.433 z m 10.33,-33.816 c -0.34,6.473 -5.21,11.668 -11.92,11.668 -7.13,0 -11.36,-5.356 -11.83,-11.668 l 23.75,0 z m 6.54,-11.516 c -1.84,-9.113 -8.39,-14.07 -17.67,-14.07 -13.19,0 -19.42,9.109 -19.82,21.746 0,12.395 8.15,21.504 19.42,21.504 14.63,0 19.11,-13.672 18.71,-23.664 l -30.93,0 c -0.25,-7.195 3.82,-13.59 12.87,-13.59 5.59,0 9.51,2.715 10.71,8.074 l 6.71,0" /><path
         id="path108"
         style="fill:#100f0d;fill-opacity:1;fill-rule:nonzero;stroke:none"
         d="m 1923.74,127.773 c -1.04,5.196 -4.64,8.231 -10.23,8.231 -9.84,0 -12.88,-7.754 -12.88,-16.152 0,-7.59 3.43,-15.106 12.08,-15.106 6.55,0 10.47,3.836 11.35,10.074 l 6.96,0 c -1.53,-10.074 -7.84,-16.07 -18.24,-16.07 -12.62,0 -19.34,8.793 -19.34,21.102 0,12.398 6.39,22.148 19.51,22.148 9.35,0 16.86,-4.395 17.83,-14.227 l -7.04,0" /><path
         id="path110"
         style="fill:#100f0d;fill-opacity:1;fill-rule:nonzero;stroke:none"
         d="m 1972.85,99.707 -6.39,0 0,6.559 -0.16,0 c -2.88,-5.118 -7.52,-7.516 -13.43,-7.516 -10.88,0 -14.24,6.234 -14.24,15.105 l 0,27.188 6.8,0 0,-27.98 c 0,-5.04 3.2,-8.317 8.4,-8.317 8.23,0 12.22,5.516 12.22,12.949 l 0,23.348 6.8,0 0,-41.336" /><path
         id="path112"
         style="fill:#100f0d;fill-opacity:1;fill-rule:nonzero;stroke:none"
         d="m 1982.87,141.043 6.41,0 0,-8.715 0.15,0 c 3.28,6.637 7.84,9.918 15.2,9.672 l 0,-7.191 c -10.96,0 -14.96,-6.239 -14.96,-16.715 l 0,-18.387 -6.8,0 0,41.336" /><path
         id="path114"
         style="fill:#100f0d;fill-opacity:1;fill-rule:nonzero;stroke:none"
         d="m 2010.16,141.043 6.79,0 0,-41.336 -6.79,0 0,41.336 z m 6.79,7.437 -6.79,0 0,8.317 6.79,0 0,-8.317" /><path
         id="path116"
         style="fill:#100f0d;fill-opacity:1;fill-rule:nonzero;stroke:none"
         d="m 2036.94,141.043 8.24,0 0,-5.996 -8.24,0 0,-25.668 c 0,-3.113 0.88,-3.676 5.12,-3.676 l 3.12,0 0,-5.996 -5.2,0 c -7.03,0 -9.83,1.441 -9.83,9.031 l 0,26.309 -7.04,0 0,5.996 7.04,0 0,12.395 6.79,0 0,-12.395" /><path
         id="path118"
         style="fill:#100f0d;fill-opacity:1;fill-rule:nonzero;stroke:none"
         d="m 2071.09,158.152 8.72,0 -10.47,-11.433 -5.12,0 6.87,11.433 z m 10.33,-33.816 c -0.33,6.473 -5.21,11.668 -11.92,11.668 -7.12,0 -11.36,-5.356 -11.83,-11.668 l 23.75,0 z m 6.55,-11.516 c -1.84,-9.113 -8.4,-14.07 -17.67,-14.07 -13.19,0 -19.43,9.109 -19.83,21.746 0,12.395 8.16,21.504 19.43,21.504 14.63,0 19.1,-13.672 18.71,-23.664 l -30.94,0 c -0.25,-7.195 3.83,-13.59 12.88,-13.59 5.58,0 9.51,2.715 10.7,8.074 l 6.72,0" /><path
         id="path120"
         style="fill:#100f0d;fill-opacity:1;fill-rule:nonzero;stroke:none"
         d="m 1374.07,21.5898 c 9.11,0 12.64,7.836 12.64,15.5977 0,8.1445 -3.68,15.6641 -13.04,15.6641 -9.28,0 -12.39,-7.9102 -12.39,-15.9961 0,-7.7539 3.99,-15.2657 12.79,-15.2657 z m 19.19,-5.039 -6.8,0 0,5.5976 -0.15,0 c -2.25,-4.5507 -7.52,-6.5546 -13.19,-6.5546 -12.72,0 -19.04,10.0703 -19.04,21.75 0,11.6679 6.24,21.5039 18.87,21.5039 4.24,0 10.31,-1.6016 13.36,-6.4766 l 0.15,0 0,21.2695 6.8,0 0,-57.0898" /><path
         id="path122"
         style="fill:#100f0d;fill-opacity:1;fill-rule:nonzero;stroke:none"
         d="m 1432.46,41.1797 c -0.31,6.4766 -5.19,11.6719 -11.91,11.6719 -7.11,0 -11.35,-5.3516 -11.84,-11.6719 l 23.75,0 z m 6.56,-11.5117 c -1.83,-9.1211 -8.39,-14.0742 -17.67,-14.0742 -13.19,0 -19.44,9.1132 -19.83,21.75 0,12.3906 8.16,21.5039 19.44,21.5039 14.63,0 19.1,-13.6719 18.7,-23.6719 l -30.95,0 c -0.23,-7.1875 3.85,-13.586 12.88,-13.586 5.6,0 9.51,2.7149 10.71,8.0782 l 6.72,0" /><path
         id="path124"
         style="fill:#100f0d;fill-opacity:1;fill-rule:nonzero;stroke:none"
         d="m 1450.88,29.5898 c 0.23,-6.0742 5.51,-8 11.11,-8 4.24,0 9.99,0.961 9.99,6.1524 0,5.2851 -6.71,6.1641 -13.5,7.6797 -6.72,1.5195 -13.52,3.7578 -13.52,11.6679 0,8.3204 8.23,11.7579 15.43,11.7579 9.12,0 16.39,-2.8711 16.95,-12.9493 l -6.79,0 c -0.48,5.2735 -5.12,6.9532 -9.59,6.9532 -4.08,0 -8.8,-1.1133 -8.8,-5.2735 0,-4.8828 7.2,-5.6836 13.5,-7.1953 6.8,-1.5156 13.52,-3.7617 13.52,-11.75 0,-9.8437 -9.2,-13.039 -17.59,-13.039 -9.28,0 -17.11,3.7617 -17.51,13.996 l 6.8,0" /><path
         id="path126"
         style="fill:#100f0d;fill-opacity:1;fill-rule:nonzero;stroke:none"
         d="m 1518.4,57.8906 8.23,0 0,-5.9961 -8.23,0 0,-25.664 c 0,-3.125 0.88,-3.6797 5.12,-3.6797 l 3.11,0 0,-6 -5.19,0 c -7.05,0 -9.84,1.4375 -9.84,9.0351 l 0,26.3086 -7.04,0 0,5.9961 7.04,0 0,12.3907 6.8,0 0,-12.3907" /><path
         id="path128"
         style="fill:#100f0d;fill-opacity:1;fill-rule:nonzero;stroke:none"
         d="m 1552.55,75 8.72,0 -10.48,-11.4375 -5.12,0 6.88,11.4375 z m 10.32,-33.8203 c -0.33,6.4766 -5.2,11.6719 -11.91,11.6719 -7.13,0 -11.36,-5.3516 -11.84,-11.6719 l 23.75,0 z m 6.54,-11.5117 c -1.83,-9.1211 -8.38,-14.0742 -17.66,-14.0742 -13.2,0 -19.43,9.1132 -19.83,21.75 0,12.3906 8.16,21.5039 19.43,21.5039 14.63,0 19.11,-13.6719 18.71,-23.6719 l -30.94,0 c -0.24,-7.1875 3.83,-13.586 12.87,-13.586 5.6,0 9.51,2.7149 10.72,8.0782 l 6.7,0" /><path
         id="path130"
         style="fill:#100f0d;fill-opacity:1;fill-rule:nonzero;stroke:none"
         d="m 1577.52,16.5508 6.8008,0 0,57.0898 -6.8008,0 0,-57.0898 z" /><path
         id="path132"
         style="fill:#100f0d;fill-opacity:1;fill-rule:nonzero;stroke:none"
         d="m 1613.26,75 8.72,0 -10.48,-11.4375 -5.11,0 6.87,11.4375 z m 10.32,-33.8203 c -0.32,6.4766 -5.2,11.6719 -11.91,11.6719 -7.12,0 -11.36,-5.3516 -11.84,-11.6719 l 23.75,0 z m 6.56,-11.5117 c -1.84,-9.1211 -8.4,-14.0742 -17.67,-14.0742 -13.19,0 -19.43,9.1132 -19.83,21.75 0,12.3906 8.16,21.5039 19.43,21.5039 14.63,0 19.1,-13.6719 18.71,-23.6719 l -30.95,0 c -0.24,-7.1875 3.84,-13.586 12.88,-13.586 5.59,0 9.52,2.7149 10.71,8.0782 l 6.72,0" /><path
         id="path134"
         style="fill:#100f0d;fill-opacity:1;fill-rule:nonzero;stroke:none"
         d="m 1665.9,44.6172 c -1.04,5.1953 -4.63,8.2344 -10.24,8.2344 -9.83,0 -12.87,-7.7539 -12.87,-16.1524 0,-7.5976 3.44,-15.1094 12.07,-15.1094 6.57,0 10.48,3.8399 11.36,10.0704 l 6.96,0 c -1.52,-10.0704 -7.84,-16.0664 -18.24,-16.0664 -12.63,0 -19.34,8.8007 -19.34,21.1054 0,12.4024 6.39,22.1485 19.51,22.1485 9.35,0 16.86,-4.3946 17.83,-14.2305 l -7.04,0" /><path
         id="path136"
         style="fill:#100f0d;fill-opacity:1;fill-rule:nonzero;stroke:none"
         d="m 1698.63,21.5898 c 7.11,0 12.87,5.5977 12.87,15.5977 0,10.0703 -5.76,15.6641 -12.87,15.6641 -7.13,0 -12.88,-5.5938 -12.88,-15.6641 0,-10 5.75,-15.5977 12.88,-15.5977 z m 0,37.2579 c 13.11,0 20.06,-9.5118 20.06,-21.6602 0,-12.082 -6.95,-21.5937 -20.06,-21.5937 -13.12,0 -20.08,9.5117 -20.08,21.5937 0,12.1484 6.96,21.6602 20.08,21.6602" /><path
         id="path138"
         style="fill:#100f0d;fill-opacity:1;fill-rule:nonzero;stroke:none"
         d="m 1726.72,57.8906 6.39,0 0,-6.0742 0.16,0 c 3.04,4.6289 7.68,7.0313 13.35,7.0313 5.04,0 9.68,-1.9922 11.36,-7.0313 2.8,4.3945 7.67,7.0313 12.95,7.0313 8.23,0 13.76,-3.4375 13.76,-11.9922 l 0,-30.3047 -6.8,0 0,27.1015 c 0,5.1172 -1.37,9.1993 -8,9.1993 -6.55,0 -10.79,-4.1602 -10.79,-10.5469 l 0,-25.7539 -6.8,0 0,27.1015 c 0,5.3594 -1.67,9.1993 -7.75,9.1993 -8.09,0 -11.03,-7.4414 -11.03,-10.5469 l 0,-25.7539 -6.8,0 0,41.3398" /><path
         id="path140"
         style="fill:#100f0d;fill-opacity:1;fill-rule:nonzero;stroke:none"
         d="m 1794.96,57.8906 6.39,0 0,-6.0742 0.16,0 c 3.04,4.6289 7.68,7.0313 13.35,7.0313 5.04,0 9.68,-1.9922 11.36,-7.0313 2.8,4.3945 7.68,7.0313 12.95,7.0313 8.23,0 13.76,-3.4375 13.76,-11.9922 l 0,-30.3047 -6.8,0 0,27.1015 c 0,5.1172 -1.36,9.1993 -8,9.1993 -6.55,0 -10.79,-4.1602 -10.79,-10.5469 l 0,-25.7539 -6.79,0 0,27.1015 c 0,5.3594 -1.68,9.1993 -7.76,9.1993 -8.08,0 -11.03,-7.4414 -11.03,-10.5469 l 0,-25.7539 -6.8,0 0,41.3398" /><path
         id="path142"
         style="fill:#100f0d;fill-opacity:1;fill-rule:nonzero;stroke:none"
         d="m 1897.41,16.5508 -6.39,0 0,6.5547 -0.16,0 c -2.88,-5.1172 -7.52,-7.5117 -13.44,-7.5117 -10.87,0 -14.23,6.2421 -14.23,15.1093 l 0,27.1875 6.8,0 0,-27.9883 c 0,-5.039 3.19,-8.3125 8.39,-8.3125 8.24,0 12.25,5.5196 12.25,12.9493 l 0,23.3515 6.78,0 0,-41.3398" /><path
         id="path144"
         style="fill:#100f0d;fill-opacity:1;fill-rule:nonzero;stroke:none"
         d="m 1907.68,57.8906 6.39,0 0,-6.5625 0.17,0 c 2.87,5.1172 7.51,7.5196 13.43,7.5196 10.87,0 14.22,-6.2305 14.22,-15.1094 l 0,-27.1875 -6.79,0 0,27.9805 c 0,5.039 -3.2,8.3203 -8.4,8.3203 -8.22,0 -12.23,-5.5157 -12.23,-12.9493 l 0,-23.3515 -6.79,0 0,41.3398" /><path
         id="path146"
         style="fill:#100f0d;fill-opacity:1;fill-rule:nonzero;stroke:none"
         d="m 1952.56,57.8906 6.8,0 0,-41.3398 -6.8,0 0,41.3398 z m 6.8,7.4414 -6.8,0 0,8.3086 6.8,0 0,-8.3086" /><path
         id="path148"
         style="fill:#100f0d;fill-opacity:1;fill-rule:nonzero;stroke:none"
         d="m 1997.98,44.6172 c -1.05,5.1953 -4.64,8.2344 -10.24,8.2344 -9.83,0 -12.88,-7.7539 -12.88,-16.1524 0,-7.5976 3.44,-15.1094 12.08,-15.1094 6.56,0 10.48,3.8399 11.36,10.0704 l 6.95,0 c -1.52,-10.0704 -7.83,-16.0664 -18.23,-16.0664 -12.63,0 -19.34,8.8007 -19.34,21.1054 0,12.4024 6.39,22.1485 19.51,22.1485 9.35,0 16.86,-4.3946 17.83,-14.2305 l -7.04,0" /><path
         id="path150"
         style="fill:#100f0d;fill-opacity:1;fill-rule:nonzero;stroke:none"
         d="m 2038.46,37.8984 c -2.64,-1.9218 -7.76,-2 -12.32,-2.8007 -4.48,-0.8008 -8.31,-2.3946 -8.31,-7.4336 0,-4.4805 3.83,-6.0743 7.99,-6.0743 8.97,0 12.64,5.5977 12.64,9.3555 l 0,6.9531 z m 11.03,-21.1796 c -1.2,-0.7227 -2.71,-1.125 -4.88,-1.125 -3.52,0 -5.75,1.914 -5.75,6.3984 -3.76,-4.3945 -8.8,-6.3984 -14.55,-6.3984 -7.52,0 -13.68,3.3515 -13.68,11.5937 0,9.3555 6.96,11.3477 14,12.7148 7.51,1.4375 13.91,0.9571 13.91,6.0743 0,5.9179 -4.88,6.875 -9.2,6.875 -5.76,0 -9.99,-1.7578 -10.32,-7.8321 l -6.79,0 c 0.41,10.2344 8.32,13.8282 17.52,13.8282 7.43,0 15.5,-1.6797 15.5,-11.3477 l 0,-21.2695 c 0,-3.2032 0,-4.6407 2.16,-4.6407 0.56,0 1.2,0.0821 2.08,0.4024 l 0,-5.2734" /><path
         id="path152"
         style="fill:#100f0d;fill-opacity:1;fill-rule:nonzero;stroke:none"
         d="m 2065.26,57.8906 8.24,0 0,-5.9961 -8.24,0 0,-25.664 c 0,-3.125 0.88,-3.6797 5.12,-3.6797 l 3.12,0 0,-6 -5.2,0 c -7.03,0 -9.83,1.4375 -9.83,9.0351 l 0,26.3086 -7.04,0 0,5.9961 7.04,0 0,12.3907 6.79,0 0,-12.3907" /><path
         id="path154"
         style="fill:#100f0d;fill-opacity:1;fill-rule:nonzero;stroke:none"
         d="m 2081.43,57.8906 6.79,0 0,-41.3398 -6.79,0 0,41.3398 z m 6.79,7.4414 -6.79,0 0,8.3086 6.79,0 0,-8.3086" /><path
         id="path156"
         style="fill:#100f0d;fill-opacity:1;fill-rule:nonzero;stroke:none"
         d="m 2116.62,21.5898 c 7.11,0 12.87,5.5977 12.87,15.5977 0,10.0703 -5.76,15.6641 -12.87,15.6641 -7.12,0 -12.87,-5.5938 -12.87,-15.6641 0,-10 5.75,-15.5977 12.87,-15.5977 z m 0,37.2579 c 13.11,0 20.07,-9.5118 20.07,-21.6602 0,-12.082 -6.96,-21.5937 -20.07,-21.5937 -13.11,0 -20.07,9.5117 -20.07,21.5937 0,12.1484 6.96,21.6602 20.07,21.6602" /><path
         id="path158"
         style="fill:#100f0d;fill-opacity:1;fill-rule:nonzero;stroke:none"
         d="m 2144.71,57.8906 6.39,0 0,-6.5625 0.17,0 c 2.87,5.1172 7.51,7.5196 13.43,7.5196 10.87,0 14.23,-6.2305 14.23,-15.1094 l 0,-27.1875 -6.8,0 0,27.9805 c 0,5.039 -3.19,8.3203 -8.4,8.3203 -8.22,0 -12.23,-5.5157 -12.23,-12.9493 l 0,-23.3515 -6.79,0 0,41.3398" /><path
         id="path160"
         style="fill:#100f0d;fill-opacity:1;fill-rule:nonzero;stroke:none"
         d="m 2193.35,29.5898 c 0.24,-6.0742 5.52,-8 11.11,-8 4.24,0 9.99,0.961 9.99,6.1524 0,5.2851 -6.72,6.1641 -13.51,7.6797 -6.71,1.5195 -13.51,3.7578 -13.51,11.6679 0,8.3204 8.23,11.7579 15.43,11.7579 9.11,0 16.4,-2.8711 16.95,-12.9493 l -6.79,0 c -0.48,5.2735 -5.12,6.9532 -9.6,6.9532 -4.07,0 -8.79,-1.1133 -8.79,-5.2735 0,-4.8828 7.19,-5.6836 13.51,-7.1953 6.8,-1.5156 13.51,-3.7617 13.51,-11.75 0,-9.8437 -9.19,-13.039 -17.59,-13.039 -9.27,0 -17.11,3.7617 -17.51,13.996 l 6.8,0" /><path
         id="path162"
         style="fill:#eb2035;fill-opacity:1;fill-rule:nonzero;stroke:none"
         d="m 0,16.7656 68.7539,0 0,140 -68.7539,0 0,-140 z" /><path
         id="path164"
         style="fill:#eb2035;fill-opacity:1;fill-rule:nonzero;stroke:none"
         d="m 221.309,16.7656 68.75,0 0,140 -68.75,0 0,-140 z" /><path
         id="path166"
         style="fill:#eb2035;fill-opacity:1;fill-rule:nonzero;stroke:none"
         d="m 135.504,127.684 9.812,19.992 9.766,-19.27 c 1.219,-2.039 2.188,-1.886 4.141,-0.89 l 8.394,4.144 -5.476,-26.93 c -1.133,-5.2534 1.875,-6.812 5.129,-3.23 l 11.929,12.777 3.164,-7.25 c 1.094,-2.187 2.692,-1.882 4.821,-1.453 l 12.324,2.606 -4.102,-15.6019 -0.129,-0.3476 c -0.476,-2.0352 -1.437,-3.75 0.809,-4.6914 l 4.437,-2.1914 -25.441,-21.5508 c -2.633,-2.6758 -1.727,-3.5039 -0.723,-6.4922 l 2.352,-7.2383 -23.738,4.2891 c -2.93,0.7422 -4.946,0.7422 -5.035,-1.6016 l 0.976,-27.2383 -7.16,0 0.941,27.1016 c 0,2.7344 -2.004,2.6562 -6.8,1.6797 l -21.915,-4.2305 2.801,7.2383 c 1.008,2.7617 1.25,4.6484 -0.957,6.4922 l -25.9998,21.2265 4.7813,2.9102 c 1.3711,1.0664 1.4843,2.1914 0.7187,4.5547 l -4.832,15.8207 12.4918,-2.68 c 3.52,-0.789 4.465,0 5.356,1.953 l 3.496,7.168 12.348,-13.988 c 2.207,-2.6018 5.289,-0.8753 4.332,2.859 l -5.961,29.133 9.215,-5.238 c 1.457,-0.911 3.015,-1.149 3.859,0.55 l -0.125,-0.382" /></g></g></svg>