<?xml version="1.0" encoding="UTF-8" standalone="no"?>
<!-- Created with Inkscape (http://www.inkscape.org/) -->

<svg
   xmlns:dc="http://purl.org/dc/elements/1.1/"
   xmlns:cc="http://creativecommons.org/ns#"
   xmlns:rdf="http://www.w3.org/1999/02/22-rdf-syntax-ns#"
   xmlns:svg="http://www.w3.org/2000/svg"
   xmlns="http://www.w3.org/2000/svg"
   xmlns:sodipodi="http://sodipodi.sourceforge.net/DTD/sodipodi-0.dtd"
   xmlns:inkscape="http://www.inkscape.org/namespaces/inkscape"
   id="svg2"
   version="1.1"
   inkscape:version="0.91 r13725"
   xml:space="preserve"
   width="440"
   height="148.97501"
   viewBox="0 0 440 148.97501"
   sodipodi:docname="cse.svg"><metadata
     id="metadata8"><rdf:RDF><cc:Work
         rdf:about=""><dc:format>image/svg+xml</dc:format><dc:type
           rdf:resource="http://purl.org/dc/dcmitype/StillImage" /><dc:title></dc:title></cc:Work></rdf:RDF></metadata><defs
     id="defs6" /><sodipodi:namedview
     pagecolor="#ffffff"
     bordercolor="#666666"
     borderopacity="1"
     objecttolerance="10"
     gridtolerance="10"
     guidetolerance="10"
     inkscape:pageopacity="0"
     inkscape:pageshadow="2"
     inkscape:window-width="956"
     inkscape:window-height="1039"
     id="namedview4"
     showgrid="false"
     inkscape:zoom="0.85681818"
     inkscape:cx="218.83289"
     inkscape:cy="74.487503"
     inkscape:window-x="960"
     inkscape:window-y="18"
     inkscape:window-maximized="0"
     inkscape:current-layer="g10" /><g
     id="g10"
     inkscape:groupmode="layer"
     inkscape:label="ink_ext_XXXXXX"
     transform="matrix(1.25,0,0,-1.25,0,148.975)"><g
       id="g12"
       transform="scale(0.1,0.1)"><path
         d="m 309.855,742.465 c 85.829,0 149.344,-26.77 207.704,-80.313 7.722,-6.914 7.722,-17.277 0.859,-24.191 l -66.941,-69.949 c -6.016,-6.047 -15.454,-6.047 -21.465,0 -31.758,28.496 -73.813,44.043 -115.871,44.043 -96.993,0 -168.223,-81.184 -168.223,-177.91 0,-95.86 72.09,-175.313 169.082,-175.313 40.344,0 84.109,14.676 115.012,41.453 6.011,5.176 17.168,5.176 22.324,-0.867 l 66.941,-71.68 c 6.004,-6.047 5.149,-17.277 -0.859,-23.32 C 460.059,147.41 386.238,120.648 309.855,120.648 138.191,120.648 0,257.961 0,430.695 c 0,172.727 138.191,311.77 309.855,311.77"
         style="fill:#231f20;fill-opacity:1;fill-rule:nonzero;stroke:none"
         id="path14"
         inkscape:connector-curvature="0" /><path
         d="m 587.129,211.332 40.344,71.68 c 6.863,11.23 23.172,9.5 29.175,5.176 3.442,-1.719 65.239,-47.5 121.887,-47.5 34.324,0 59.219,21.589 59.219,51.824 0,36.269 -30.039,63.906 -88.406,87.226 -73.813,29.367 -166.504,87.227 -166.504,190.86 0,85.507 66.082,171.867 198.261,171.867 89.266,0 157.926,-45.774 183.68,-64.766 10.305,-6.047 8.582,-21.594 5.149,-27.636 L 926.16,583.559 c -6.004,-9.504 -21.453,-17.278 -29.187,-11.231 -7.727,4.317 -70.379,51.817 -122.735,51.817 -30.898,0 -54.07,-20.723 -54.07,-44.043 0,-31.954 25.75,-56.133 93.555,-83.77 66.953,-26.777 173.379,-79.453 173.379,-196.914 0,-88.957 -76.387,-178.77 -202.559,-178.77 -111.582,0 -173.383,46.633 -193.125,66.493 -8.574,8.644 -11.152,12.089 -4.289,24.191"
         style="fill:#231f20;fill-opacity:1;fill-rule:nonzero;stroke:none"
         id="path16"
         inkscape:connector-curvature="0" /><path
         d="m 1091.85,717.426 c 0,8.633 6.86,16.406 16.3,16.406 l 355.34,0 c 9.44,0 16.3,-7.773 16.3,-16.406 l 0,-94.141 c 0,-8.633 -6.86,-16.406 -16.3,-16.406 l -237.75,0 0,-107.09 195.7,0 c 8.58,0 16.3,-7.773 16.3,-16.418 l 0,-94.129 c 0,-9.504 -7.72,-16.418 -16.3,-16.418 l -195.7,0 0,-116.59 237.75,0 c 9.44,0 16.3,-7.773 16.3,-16.406 l 0,-94.137 c 0,-8.64 -6.86,-16.41 -16.3,-16.41 l -355.34,0 c -9.44,0 -16.3,7.77 -16.3,16.41 l 0,571.735"
         style="fill:#231f20;fill-opacity:1;fill-rule:nonzero;stroke:none"
         id="path18"
         inkscape:connector-curvature="0" /><path
         d="m 2386.05,742.465 c 85.83,0 149.35,-26.77 207.71,-80.313 7.72,-6.914 7.72,-17.277 0.86,-24.191 l -66.94,-69.949 c -6.02,-6.047 -15.45,-6.047 -21.47,0 -31.76,28.496 -73.81,44.043 -115.87,44.043 -96.99,0 -168.22,-81.184 -168.22,-177.91 0,-95.86 72.09,-175.313 169.08,-175.313 40.34,0 84.11,14.676 115.01,41.453 6.02,5.176 17.17,5.176 22.33,-0.867 l 66.94,-71.68 c 6,-6.047 5.15,-17.277 -0.86,-23.32 -58.36,-57.008 -132.18,-83.77 -208.57,-83.77 -171.66,0 -309.85,137.313 -309.85,310.047 0,172.727 138.19,311.77 309.85,311.77"
         style="fill:#231f20;fill-opacity:1;fill-rule:nonzero;stroke:none"
         id="path20"
         inkscape:connector-curvature="0" /><path
         d="m 2663.33,211.332 40.34,71.68 c 6.87,11.23 23.18,9.5 29.18,5.176 3.44,-1.719 65.24,-47.5 121.89,-47.5 34.32,0 59.22,21.589 59.22,51.824 0,36.269 -30.04,63.906 -88.41,87.226 -73.81,29.367 -166.51,87.227 -166.51,190.86 0,85.507 66.09,171.867 198.26,171.867 89.27,0 157.93,-45.774 183.69,-64.766 10.3,-6.047 8.58,-21.594 5.14,-27.636 l -43.77,-66.504 c -6,-9.504 -21.45,-17.278 -29.19,-11.231 -7.72,4.317 -70.38,51.817 -122.73,51.817 -30.9,0 -54.07,-20.723 -54.07,-44.043 0,-31.954 25.75,-56.133 93.55,-83.77 66.96,-26.777 173.38,-79.453 173.38,-196.914 0,-88.957 -76.39,-178.77 -202.56,-178.77 -111.58,0 -173.38,46.633 -193.12,66.493 -8.58,8.644 -11.16,12.089 -4.29,24.191"
         style="fill:#231f20;fill-opacity:1;fill-rule:nonzero;stroke:none"
         id="path22"
         inkscape:connector-curvature="0" /><path
         d="m 3245.29,606.879 -122.74,0 c -9.43,0 -16.31,7.773 -16.31,16.406 l 0,94.141 c 0,8.633 6.88,16.406 16.31,16.406 l 381.09,0 c 9.45,0 16.31,-7.773 16.31,-16.406 l 0,-94.141 c 0,-8.633 -6.86,-16.406 -16.31,-16.406 l -122.74,0 0,-461.188 c 0,-8.64 -7.73,-16.41 -16.3,-16.41 l -103,0 c -8.58,0 -16.31,7.77 -16.31,16.41 l 0,461.188"
         style="fill:#231f20;fill-opacity:1;fill-rule:nonzero;stroke:none"
         id="path24"
         inkscape:connector-curvature="0" /><path
         d="m 1748,0 60,0 0,863.582 -60,0 L 1748,0 Z"
         style="fill:#231f20;fill-opacity:1;fill-rule:nonzero;stroke:none"
         id="path26"
         inkscape:connector-curvature="0" /><path
         d="m 918.711,1167.04 c -2.117,10.78 -10.703,16.21 -21.199,16.21 -18.039,0 -25.664,-14.93 -25.664,-30.82 0,-17.38 7.625,-31.89 25.757,-31.89 13.262,0 20.903,9.39 21.848,21.97 l 10.078,0 c -1.902,-18.98 -13.679,-30.5 -32.761,-30.5 -23.547,0 -35,17.49 -35,39.68 0,22.07 12.507,40.1 35.835,40.1 15.801,0 28.848,-8.54 31.184,-24.75 l -10.078,0"
         style="fill:#231f20;fill-opacity:1;fill-rule:nonzero;stroke:none"
         id="path28"
         inkscape:connector-curvature="0" /><path
         d="m 964.238,1120.54 c 9.434,0 17.071,7.47 17.071,20.8 0,13.44 -7.637,20.91 -17.071,20.91 -9.441,0 -17.082,-7.47 -17.082,-20.91 0,-13.33 7.641,-20.8 17.082,-20.8 z m 0,49.7 c 17.395,0 26.614,-12.69 26.614,-28.9 0,-16.11 -9.219,-28.8 -26.614,-28.8 -17.39,0 -26.621,12.69 -26.621,28.8 0,16.21 9.231,28.9 26.621,28.9"
         style="fill:#231f20;fill-opacity:1;fill-rule:nonzero;stroke:none"
         id="path30"
         inkscape:connector-curvature="0" /><path
         d="m 1001.47,1168.96 8.49,0 0,-8.1 0.21,0 c 4.03,6.18 10.18,9.38 17.71,9.38 6.68,0 12.83,-2.66 15.06,-9.38 3.71,5.86 10.19,9.38 17.18,9.38 10.92,0 18.24,-4.58 18.24,-15.99 l 0,-40.43 -9.01,0 0,36.16 c 0,6.82 -1.81,12.27 -10.61,12.27 -8.69,0 -14.32,-5.55 -14.32,-14.08 l 0,-34.35 -9.01,0 0,36.16 c 0,7.15 -2.23,12.27 -10.28,12.27 -10.72,0 -14.64,-9.92 -14.64,-14.08 l 0,-34.35 -9.02,0 0,55.14"
         style="fill:#231f20;fill-opacity:1;fill-rule:nonzero;stroke:none"
         id="path32"
         inkscape:connector-curvature="0" /><path
         d="m 1091.96,1168.96 8.49,0 0,-8.1 0.2,0 c 4.04,6.18 10.19,9.38 17.72,9.38 6.68,0 12.83,-2.66 15.06,-9.38 3.71,5.86 10.18,9.38 17.18,9.38 10.92,0 18.24,-4.58 18.24,-15.99 l 0,-40.43 -9.02,0 0,36.16 c 0,6.82 -1.8,12.27 -10.6,12.27 -8.69,0 -14.32,-5.55 -14.32,-14.08 l 0,-34.35 -9.01,0 0,36.16 c 0,7.15 -2.23,12.27 -10.28,12.27 -10.72,0 -14.64,-9.92 -14.64,-14.08 l 0,-34.35 -9.02,0 0,55.14"
         style="fill:#231f20;fill-opacity:1;fill-rule:nonzero;stroke:none"
         id="path34"
         inkscape:connector-curvature="0" /><path
         d="m 1227.84,1113.82 -8.48,0 0,8.75 -0.22,0 c -3.82,-6.83 -9.96,-10.03 -17.81,-10.03 -14.43,0 -18.88,8.32 -18.88,20.16 l 0,36.26 9.01,0 0,-37.33 c 0,-6.72 4.24,-11.09 11.14,-11.09 10.93,0 16.23,7.36 16.23,17.28 l 0,31.14 9.01,0 0,-55.14"
         style="fill:#231f20;fill-opacity:1;fill-rule:nonzero;stroke:none"
         id="path36"
         inkscape:connector-curvature="0" /><path
         d="m 1241.44,1168.96 8.48,0 0,-8.74 0.21,0 c 3.82,6.82 9.97,10.02 17.82,10.02 14.42,0 18.88,-8.31 18.88,-20.15 l 0,-36.27 -9.02,0 0,37.33 c 0,6.72 -4.25,11.1 -11.13,11.1 -10.93,0 -16.23,-7.36 -16.23,-17.29 l 0,-31.14 -9.01,0 0,55.14"
         style="fill:#231f20;fill-opacity:1;fill-rule:nonzero;stroke:none"
         id="path38"
         inkscape:connector-curvature="0" /><path
         d="m 1300.95,1168.96 9.01,0 0,-55.14 -9.01,0 0,55.14 z m 9.01,9.93 -9.01,0 0,11.08 9.01,0 0,-11.08"
         style="fill:#231f20;fill-opacity:1;fill-rule:nonzero;stroke:none"
         id="path40"
         inkscape:connector-curvature="0" /><path
         d="m 1361.19,1151.26 c -1.39,6.93 -6.15,10.99 -13.57,10.99 -13.05,0 -17.08,-10.35 -17.08,-21.55 0,-10.13 4.56,-20.16 16.01,-20.16 8.7,0 13.9,5.12 15.06,13.44 l 9.23,0 c -2.01,-13.44 -10.39,-21.44 -24.18,-21.44 -16.76,0 -25.66,11.74 -25.66,28.16 0,16.53 8.48,29.54 25.88,29.54 12.4,0 22.37,-5.86 23.64,-18.98 l -9.33,0"
         style="fill:#231f20;fill-opacity:1;fill-rule:nonzero;stroke:none"
         id="path42"
         inkscape:connector-curvature="0" /><path
         d="m 1414.87,1142.3 c -3.49,-2.56 -10.28,-2.67 -16.33,-3.73 -5.93,-1.07 -11.03,-3.21 -11.03,-9.93 0,-5.96 5.1,-8.1 10.61,-8.1 11.87,0 16.75,7.47 16.75,12.48 l 0,9.28 z m 14.64,-28.26 c -1.59,-0.97 -3.61,-1.5 -6.47,-1.5 -4.67,0 -7.64,2.56 -7.64,8.53 -4.98,-5.86 -11.66,-8.53 -19.3,-8.53 -9.97,0 -18.13,4.48 -18.13,15.47 0,12.48 9.23,15.14 18.55,16.95 9.97,1.93 18.46,1.28 18.46,8.11 0,7.89 -6.47,9.18 -12.2,9.18 -7.63,0 -13.25,-2.36 -13.68,-10.46 l -9.01,0 c 0.53,13.65 11.03,18.45 23.22,18.45 9.86,0 20.58,-2.23 20.58,-15.14 l 0,-28.37 c 0,-4.27 0,-6.19 2.86,-6.19 0.74,0 1.59,0.11 2.76,0.53 l 0,-7.03"
         style="fill:#231f20;fill-opacity:1;fill-rule:nonzero;stroke:none"
         id="path44"
         inkscape:connector-curvature="0" /><path
         d="m 1450.42,1168.96 10.93,0 0,-8 -10.93,0 0,-34.23 c 0,-4.16 1.17,-4.91 6.79,-4.91 l 4.14,0 0,-8 -6.9,0 c -9.33,0 -13.04,1.92 -13.04,12.05 l 0,35.09 -9.33,0 0,8 9.33,0 0,16.54 9.01,0 0,-16.54"
         style="fill:#231f20;fill-opacity:1;fill-rule:nonzero;stroke:none"
         id="path46"
         inkscape:connector-curvature="0" /><path
         d="m 1471.86,1168.96 9.01,0 0,-55.14 -9.01,0 0,55.14 z m 9.01,9.93 -9.01,0 0,11.08 9.01,0 0,-11.08"
         style="fill:#231f20;fill-opacity:1;fill-rule:nonzero;stroke:none"
         id="path48"
         inkscape:connector-curvature="0" /><path
         d="m 1518.54,1120.54 c 9.43,0 17.07,7.47 17.07,20.8 0,13.44 -7.64,20.91 -17.07,20.91 -9.45,0 -17.08,-7.47 -17.08,-20.91 0,-13.33 7.63,-20.8 17.08,-20.8 z m 0,49.7 c 17.39,0 26.61,-12.69 26.61,-28.9 0,-16.11 -9.22,-28.8 -26.61,-28.8 -17.4,0 -26.63,12.69 -26.63,28.8 0,16.21 9.23,28.9 26.63,28.9"
         style="fill:#231f20;fill-opacity:1;fill-rule:nonzero;stroke:none"
         id="path50"
         inkscape:connector-curvature="0" /><path
         d="m 1555.77,1168.96 8.49,0 0,-8.74 0.2,0 c 3.82,6.82 9.97,10.02 17.83,10.02 14.42,0 18.87,-8.31 18.87,-20.15 l 0,-36.27 -9.01,0 0,37.33 c 0,6.72 -4.25,11.1 -11.13,11.1 -10.93,0 -16.23,-7.36 -16.23,-17.29 l 0,-31.14 -9.02,0 0,55.14"
         style="fill:#231f20;fill-opacity:1;fill-rule:nonzero;stroke:none"
         id="path52"
         inkscape:connector-curvature="0" /><path
         d="m 1620.27,1131.21 c 0.32,-8.11 7.32,-10.67 14.74,-10.67 5.62,0 13.26,1.28 13.26,8.21 0,7.04 -8.91,8.21 -17.93,10.24 -8.9,2.03 -17.92,5.02 -17.92,15.57 0,11.1 10.93,15.68 20.47,15.68 12.09,0 21.74,-3.83 22.48,-17.27 l -9.01,0 c -0.64,7.03 -6.79,9.28 -12.73,9.28 -5.41,0 -11.67,-1.5 -11.67,-7.05 0,-6.5 9.55,-7.57 17.93,-9.59 9.02,-2.03 17.92,-5.02 17.92,-15.68 0,-13.12 -12.19,-17.39 -23.33,-17.39 -12.3,0 -22.69,5.02 -23.22,18.67 l 9.01,0"
         style="fill:#231f20;fill-opacity:1;fill-rule:nonzero;stroke:none"
         id="path54"
         inkscape:connector-curvature="0" /><path
         d="m 909.277,1056.76 c -1.164,10.88 -8.379,15.57 -18.769,15.57 -8.488,0 -16.973,-3.09 -16.973,-13.01 0,-9.39 12.09,-10.77 24.285,-13.55 12.09,-2.77 24.184,-7.04 24.184,-21.97 0,-16.21 -15.805,-22.71 -29.594,-22.71 -16.961,0 -31.277,8.31 -31.277,26.87 l 9.543,0 c 0,-12.8 10.601,-18.34 22.058,-18.34 9.121,0 19.192,2.88 19.192,13.86 0,10.46 -12.09,12.27 -24.184,14.94 -12.078,2.66 -24.273,6.18 -24.273,20.15 0,15.47 13.679,22.3 27.461,22.3 15.488,0 27.254,-7.36 27.886,-24.11 l -9.539,0"
         style="fill:#231f20;fill-opacity:1;fill-rule:nonzero;stroke:none"
         id="path56"
         inkscape:connector-curvature="0" /><path
         d="m 970.813,1035.75 c -0.43,8.64 -6.895,15.57 -15.813,15.57 -9.434,0 -15.059,-7.14 -15.691,-15.57 l 31.504,0 z m 8.691,-15.36 c -2.441,-12.16 -11.137,-18.77 -23.441,-18.77 -17.5,0 -25.77,12.16 -26.297,29.01 0,16.53 10.82,28.69 25.769,28.69 19.406,0 25.344,-18.24 24.817,-31.57 l -41.043,0 c -0.317,-9.6 5.093,-18.13 17.078,-18.13 7.422,0 12.617,3.63 14.211,10.77 l 8.906,0"
         style="fill:#231f20;fill-opacity:1;fill-rule:nonzero;stroke:none"
         id="path58"
         inkscape:connector-curvature="0" /><path
         d="m 1026.93,1040.34 c -1.38,6.93 -6.15,10.98 -13.57,10.98 -13.05,0 -17.083,-10.34 -17.083,-21.54 0,-10.14 4.563,-20.16 16.013,-20.16 8.71,0 13.9,5.12 15.06,13.43 l 9.23,0 c -2.01,-13.43 -10.39,-21.43 -24.18,-21.43 -16.755,0 -25.662,11.73 -25.662,28.16 0,16.53 8.489,29.54 25.882,29.54 12.4,0 22.37,-5.86 23.64,-18.98 l -9.33,0"
         style="fill:#231f20;fill-opacity:1;fill-rule:nonzero;stroke:none"
         id="path60"
         inkscape:connector-curvature="0" /><path
         d="m 1092.07,1002.9 -8.49,0 0,8.74 -0.21,0 c -3.82,-6.82 -9.96,-10.02 -17.81,-10.02 -14.43,0 -18.88,8.32 -18.88,20.15 l 0,36.27 9.01,0 0,-37.33 c 0,-6.72 4.24,-11.09 11.14,-11.09 10.92,0 16.23,7.36 16.23,17.28 l 0,31.14 9.01,0 0,-55.14"
         style="fill:#231f20;fill-opacity:1;fill-rule:nonzero;stroke:none"
         id="path62"
         inkscape:connector-curvature="0" /><path
         d="m 1105.34,1058.04 8.49,0 0,-11.63 0.21,0 c 4.35,8.86 10.39,13.23 20.15,12.91 l 0,-9.6 c -14.53,0 -19.83,-8.32 -19.83,-22.29 l 0,-24.53 -9.02,0 0,55.14"
         style="fill:#231f20;fill-opacity:1;fill-rule:nonzero;stroke:none"
         id="path64"
         inkscape:connector-curvature="0" /><path
         d="m 1141.51,1058.04 9.02,0 0,-55.14 -9.02,0 0,55.14 z m 9.02,9.92 -9.02,0 0,11.09 9.02,0 0,-11.09"
         style="fill:#231f20;fill-opacity:1;fill-rule:nonzero;stroke:none"
         id="path66"
         inkscape:connector-curvature="0" /><path
         d="m 1177.04,1058.04 10.93,0 0,-8 -10.93,0 0,-34.24 c 0,-4.16 1.17,-4.91 6.79,-4.91 l 4.14,0 0,-7.99 -6.9,0 c -9.33,0 -13.04,1.92 -13.04,12.05 l 0,35.09 -9.33,0 0,8 9.33,0 0,16.53 9.01,0 0,-16.53"
         style="fill:#231f20;fill-opacity:1;fill-rule:nonzero;stroke:none"
         id="path68"
         inkscape:connector-curvature="0" /><path
         d="m 1219.47,995.539 c -4.13,-10.769 -7.84,-14.723 -15.9,-14.723 -2.12,0 -4.24,0.215 -6.26,0.965 l 0,8.321 c 1.7,-0.536 3.5,-1.282 5.31,-1.282 3.71,0 5.72,1.813 7.42,5.012 l 3.71,9.388 -21.74,54.82 10.18,0 16.01,-45.12 0.22,0 15.37,45.12 9.55,0 -23.87,-62.501"
         style="fill:#231f20;fill-opacity:1;fill-rule:nonzero;stroke:none"
         id="path70"
         inkscape:connector-curvature="0" /><path
         d="m 1281.97,1079.05 52.29,0 0,-8.53 -42.21,0 0,-24.21 39.35,0 0,-8.53 -39.35,0 0,-26.35 42.52,0 0,-8.53 -52.6,0 0,76.15"
         style="fill:#231f20;fill-opacity:1;fill-rule:nonzero;stroke:none"
         id="path72"
         inkscape:connector-curvature="0" /><path
         d="m 1350.82,1020.29 c 0.31,-8.11 7.31,-10.67 14.74,-10.67 5.62,0 13.26,1.27 13.26,8.21 0,7.04 -8.92,8.21 -17.93,10.24 -8.91,2.03 -17.92,5.02 -17.92,15.57 0,11.09 10.93,15.68 20.47,15.68 12.09,0 21.74,-3.84 22.48,-17.28 l -9.02,0 c -0.63,7.04 -6.78,9.28 -12.72,9.28 -5.41,0 -11.67,-1.49 -11.67,-7.04 0,-6.5 9.55,-7.57 17.93,-9.6 9.01,-2.03 17.92,-5.01 17.92,-15.68 0,-13.11 -12.2,-17.38 -23.33,-17.38 -12.31,0 -22.7,5.01 -23.22,18.67 l 9.01,0"
         style="fill:#231f20;fill-opacity:1;fill-rule:nonzero;stroke:none"
         id="path74"
         inkscape:connector-curvature="0" /><path
         d="m 1410.86,1058.04 10.93,0 0,-8 -10.93,0 0,-34.24 c 0,-4.16 1.17,-4.91 6.79,-4.91 l 4.14,0 0,-7.99 -6.9,0 c -9.33,0 -13.04,1.92 -13.04,12.05 l 0,35.09 -9.33,0 0,8 9.33,0 0,16.53 9.01,0 0,-16.53"
         style="fill:#231f20;fill-opacity:1;fill-rule:nonzero;stroke:none"
         id="path76"
         inkscape:connector-curvature="0" /><path
         d="m 1465.7,1031.38 c -3.49,-2.56 -10.28,-2.67 -16.32,-3.74 -5.94,-1.07 -11.04,-3.2 -11.04,-9.92 0,-5.97 5.1,-8.1 10.61,-8.1 11.87,0 16.75,7.46 16.75,12.48 l 0,9.28 z m 14.64,-28.27 c -1.59,-0.96 -3.61,-1.49 -6.47,-1.49 -4.67,0 -7.64,2.56 -7.64,8.53 -4.98,-5.86 -11.66,-8.53 -19.3,-8.53 -9.97,0 -18.13,4.48 -18.13,15.46 0,12.48 9.23,15.15 18.55,16.96 9.97,1.92 18.46,1.28 18.46,8.11 0,7.89 -6.47,9.17 -12.2,9.17 -7.63,0 -13.25,-2.34 -13.68,-10.45 l -9.01,0 c 0.53,13.65 11.02,18.45 23.22,18.45 9.86,0 20.58,-2.24 20.58,-15.14 l 0,-28.38 c 0,-4.26 0,-6.18 2.86,-6.18 0.74,0 1.59,0.11 2.76,0.53 l 0,-7.04"
         style="fill:#231f20;fill-opacity:1;fill-rule:nonzero;stroke:none"
         id="path78"
         inkscape:connector-curvature="0" /><path
         d="m 1514.5,1051.32 c -12.09,0 -16.76,-10.45 -16.76,-20.8 0,-10.88 4.89,-20.9 17.29,-20.9 12.3,0 16.43,10.56 16.43,21.33 0,10.35 -5.3,20.37 -16.96,20.37 z m -25.45,27.73 9.02,0 0,-28.48 0.2,0 c 2.97,6.08 9.97,8.75 17.5,8.75 16.87,0 25.25,-13.44 25.25,-29.01 0,-15.57 -8.28,-28.69 -25.03,-28.69 -5.63,0 -13.69,2.13 -17.72,8.64 l -0.2,0 0,-7.36 -9.02,0 0,76.15"
         style="fill:#231f20;fill-opacity:1;fill-rule:nonzero;stroke:none"
         id="path80"
         inkscape:connector-curvature="0" /><path
         d="m 1552.17,1002.9 9.0078,0 0,76.1523 -9.0078,0 0,-76.1523 z"
         style="fill:#231f20;fill-opacity:1;fill-rule:nonzero;stroke:none"
         id="path82"
         inkscape:connector-curvature="0" /><path
         d="m 1575.72,1058.04 9.02,0 0,-55.14 -9.02,0 0,55.14 z m 9.02,9.92 -9.02,0 0,11.09 9.02,0 0,-11.09"
         style="fill:#231f20;fill-opacity:1;fill-rule:nonzero;stroke:none"
         id="path84"
         inkscape:connector-curvature="0" /><path
         d="m 1604.27,1020.29 c 0.31,-8.11 7.31,-10.67 14.73,-10.67 5.63,0 13.27,1.27 13.27,8.21 0,7.04 -8.92,8.21 -17.93,10.24 -8.91,2.03 -17.92,5.02 -17.92,15.57 0,11.09 10.92,15.68 20.46,15.68 12.09,0 21.74,-3.84 22.49,-17.28 l -9.02,0 c -0.63,7.04 -6.79,9.28 -12.72,9.28 -5.41,0 -11.67,-1.49 -11.67,-7.04 0,-6.5 9.55,-7.57 17.93,-9.6 9.01,-2.03 17.92,-5.01 17.92,-15.68 0,-13.11 -12.2,-17.38 -23.33,-17.38 -12.31,0 -22.7,5.01 -23.23,18.67 l 9.02,0"
         style="fill:#231f20;fill-opacity:1;fill-rule:nonzero;stroke:none"
         id="path86"
         inkscape:connector-curvature="0" /><path
         d="m 1651.8,1079.05 9.01,0 0,-29.12 0.22,0 c 2.96,6.62 10.71,9.39 17.28,9.39 14.42,0 18.88,-8.32 18.88,-20.16 l 0,-36.26 -9.02,0 0,37.33 c 0,6.72 -4.24,11.09 -11.13,11.09 -10.93,0 -16.23,-7.36 -16.23,-17.28 l 0,-31.14 -9.01,0 0,76.15"
         style="fill:#231f20;fill-opacity:1;fill-rule:nonzero;stroke:none"
         id="path88"
         inkscape:connector-curvature="0" /><path
         d="m 1710.78,1058.04 8.49,0 0,-8.11 0.2,0 c 4.04,6.19 10.19,9.39 17.72,9.39 6.68,0 12.83,-2.67 15.06,-9.39 3.71,5.87 10.18,9.39 17.17,9.39 10.93,0 18.25,-4.59 18.25,-16 l 0,-40.42 -9.02,0 0,36.15 c 0,6.83 -1.8,12.27 -10.6,12.27 -8.69,0 -14.32,-5.55 -14.32,-14.08 l 0,-34.34 -9.01,0 0,36.15 c 0,7.15 -2.23,12.27 -10.29,12.27 -10.71,0 -14.64,-9.92 -14.64,-14.08 l 0,-34.34 -9.01,0 0,55.14"
         style="fill:#231f20;fill-opacity:1;fill-rule:nonzero;stroke:none"
         id="path90"
         inkscape:connector-curvature="0" /><path
         d="m 1839.35,1035.75 c -0.43,8.64 -6.9,15.57 -15.81,15.57 -9.44,0 -15.06,-7.14 -15.7,-15.57 l 31.51,0 z m 8.69,-15.36 c -2.44,-12.16 -11.14,-18.77 -23.44,-18.77 -17.5,0 -25.77,12.16 -26.3,29.01 0,16.53 10.82,28.69 25.77,28.69 19.41,0 25.34,-18.24 24.82,-31.57 l -41.05,0 c -0.31,-9.6 5.1,-18.13 17.08,-18.13 7.42,0 12.62,3.63 14.21,10.77 l 8.91,0"
         style="fill:#231f20;fill-opacity:1;fill-rule:nonzero;stroke:none"
         id="path92"
         inkscape:connector-curvature="0" /><path
         d="m 1858.24,1058.04 8.49,0 0,-8.74 0.2,0 c 3.82,6.82 9.97,10.02 17.83,10.02 14.42,0 18.87,-8.32 18.87,-20.16 l 0,-36.26 -9.01,0 0,37.33 c 0,6.72 -4.25,11.09 -11.13,11.09 -10.93,0 -16.23,-7.36 -16.23,-17.28 l 0,-31.14 -9.02,0 0,55.14"
         style="fill:#231f20;fill-opacity:1;fill-rule:nonzero;stroke:none"
         id="path94"
         inkscape:connector-curvature="0" /><path
         d="m 1929.74,1058.04 10.92,0 0,-8 -10.92,0 0,-34.24 c 0,-4.16 1.17,-4.91 6.78,-4.91 l 4.14,0 0,-7.99 -6.89,0 c -9.34,0 -13.05,1.92 -13.05,12.05 l 0,35.09 -9.32,0 0,8 9.32,0 0,16.53 9.02,0 0,-16.53"
         style="fill:#231f20;fill-opacity:1;fill-rule:nonzero;stroke:none"
         id="path96"
         inkscape:connector-curvature="0" /><path
         d="m 2169.28,1149.58 c -2.12,10.78 -10.71,16.21 -21.2,16.21 -18.04,0 -25.67,-14.93 -25.67,-30.82 0,-17.38 7.63,-31.89 25.76,-31.89 13.27,0 20.9,9.38 21.85,21.97 l 10.08,0 c -1.91,-18.98 -13.68,-30.5 -32.77,-30.5 -23.54,0 -35,17.49 -35,39.68 0,22.07 12.51,40.1 35.84,40.1 15.8,0 28.85,-8.54 31.19,-24.75 l -10.08,0"
         style="fill:#231f20;fill-opacity:1;fill-rule:nonzero;stroke:none"
         id="path98"
         inkscape:connector-curvature="0" /><path
         d="m 2229.23,1129.21 c -0.43,8.64 -6.9,15.58 -15.81,15.58 -9.44,0 -15.06,-7.15 -15.7,-15.58 l 31.51,0 z m 8.69,-15.36 c -2.44,-12.16 -11.13,-18.77 -23.44,-18.77 -17.5,0 -25.77,12.16 -26.3,29.01 0,16.54 10.82,28.69 25.78,28.69 19.4,0 25.34,-18.24 24.81,-31.57 l -41.05,0 c -0.31,-9.6 5.1,-18.13 17.08,-18.13 7.43,0 12.62,3.63 14.21,10.77 l 8.91,0"
         style="fill:#231f20;fill-opacity:1;fill-rule:nonzero;stroke:none"
         id="path100"
         inkscape:connector-curvature="0" /><path
         d="m 2248.13,1151.5 8.48,0 0,-8.74 0.21,0 c 3.81,6.82 9.97,10.02 17.82,10.02 14.42,0 18.88,-8.32 18.88,-20.15 l 0,-36.27 -9.02,0 0,37.33 c 0,6.72 -4.25,11.1 -11.13,11.1 -10.93,0 -16.23,-7.36 -16.23,-17.29 l 0,-31.14 -9.01,0 0,55.14"
         style="fill:#231f20;fill-opacity:1;fill-rule:nonzero;stroke:none"
         id="path102"
         inkscape:connector-curvature="0" /><path
         d="m 2319.62,1151.5 10.93,0 0,-8 -10.93,0 0,-34.23 c 0,-4.16 1.17,-4.91 6.79,-4.91 l 4.14,0 0,-8 -6.9,0 c -9.33,0 -13.04,1.92 -13.04,12.05 l 0,35.09 -9.33,0 0,8 9.33,0 0,16.54 9.01,0 0,-16.54"
         style="fill:#231f20;fill-opacity:1;fill-rule:nonzero;stroke:none"
         id="path104"
         inkscape:connector-curvature="0" /><path
         d="m 2340.21,1151.5 8.48,0 0,-11.62 0.22,0 c 4.34,8.85 10.39,13.23 20.14,12.9 l 0,-9.6 c -14.53,0 -19.83,-8.31 -19.83,-22.29 l 0,-24.53 -9.01,0 0,55.14"
         style="fill:#231f20;fill-opacity:1;fill-rule:nonzero;stroke:none"
         id="path106"
         inkscape:connector-curvature="0" /><path
         d="m 2412.02,1129.21 c -0.43,8.64 -6.89,15.58 -15.81,15.58 -9.43,0 -15.06,-7.15 -15.69,-15.58 l 31.5,0 z m 8.69,-15.36 c -2.44,-12.16 -11.13,-18.77 -23.43,-18.77 -17.5,0 -25.78,12.16 -26.3,29.01 0,16.54 10.82,28.69 25.77,28.69 19.4,0 25.34,-18.24 24.81,-31.57 l -41.04,0 c -0.31,-9.6 5.1,-18.13 17.08,-18.13 7.42,0 12.61,3.63 14.21,10.77 l 8.9,0"
         style="fill:#231f20;fill-opacity:1;fill-rule:nonzero;stroke:none"
         id="path108"
         inkscape:connector-curvature="0" /><path
         d="m 2483.95,1103.08 c 12.09,0 16.75,10.46 16.75,20.8 0,10.88 -4.88,20.91 -17.29,20.91 -12.3,0 -16.44,-10.56 -16.44,-21.34 0,-10.34 5.31,-20.37 16.98,-20.37 z m 25.44,-6.72 -9.01,0 0,7.47 -0.21,0 c -2.97,-6.08 -9.97,-8.75 -17.5,-8.75 -16.86,0 -25.24,13.44 -25.24,29.01 0,15.58 8.27,28.69 25.03,28.69 5.62,0 13.68,-2.13 17.71,-8.64 l 0.21,0 0,28.37 9.01,0 0,-76.15"
         style="fill:#231f20;fill-opacity:1;fill-rule:nonzero;stroke:none"
         id="path110"
         inkscape:connector-curvature="0" /><path
         d="m 2561.39,1129.21 c -0.43,8.64 -6.9,15.58 -15.81,15.58 -9.44,0 -15.06,-7.15 -15.7,-15.58 l 31.51,0 z m 8.69,-15.36 c -2.44,-12.16 -11.13,-18.77 -23.44,-18.77 -17.5,0 -25.77,12.16 -26.3,29.01 0,16.54 10.82,28.69 25.77,28.69 19.41,0 25.35,-18.24 24.82,-31.57 l -41.05,0 c -0.31,-9.6 5.1,-18.13 17.08,-18.13 7.42,0 12.62,3.63 14.21,10.77 l 8.91,0"
         style="fill:#231f20;fill-opacity:1;fill-rule:nonzero;stroke:none"
         id="path112"
         inkscape:connector-curvature="0" /><path
         d="m 2610.3,1096.36 9.0195,0 0,76.1523 -9.0195,0 0,-76.1523 z"
         style="fill:#231f20;fill-opacity:1;fill-rule:nonzero;stroke:none"
         id="path114"
         inkscape:connector-curvature="0" /><path
         d="m 2667.27,1124.84 c -3.5,-2.56 -10.29,-2.67 -16.33,-3.73 -5.94,-1.07 -11.04,-3.21 -11.04,-9.93 0,-5.97 5.1,-8.1 10.61,-8.1 11.87,0 16.76,7.47 16.76,12.48 l 0,9.28 z m 14.63,-28.27 c -1.59,-0.96 -3.61,-1.49 -6.47,-1.49 -4.67,0 -7.64,2.56 -7.64,8.53 -4.98,-5.86 -11.66,-8.53 -19.29,-8.53 -9.97,0 -18.14,4.48 -18.14,15.47 0,12.48 9.23,15.14 18.56,16.95 9.97,1.93 18.45,1.28 18.45,8.11 0,7.89 -6.47,9.18 -12.19,9.18 -7.64,0 -13.26,-2.36 -13.69,-10.46 l -9.01,0 c 0.53,13.65 11.03,18.45 23.22,18.45 9.87,0 20.58,-2.23 20.58,-15.14 l 0,-28.37 c 0,-4.27 0,-6.19 2.86,-6.19 0.74,0 1.59,0.11 2.76,0.53 l 0,-7.04"
         style="fill:#231f20;fill-opacity:1;fill-rule:nonzero;stroke:none"
         id="path116"
         inkscape:connector-curvature="0" /><path
         d="m 2725.31,1113.75 c 0.32,-8.11 7.32,-10.67 14.74,-10.67 5.62,0 13.26,1.28 13.26,8.21 0,7.04 -8.92,8.21 -17.93,10.24 -8.91,2.03 -17.92,5.02 -17.92,15.57 0,11.1 10.93,15.68 20.47,15.68 12.09,0 21.74,-3.83 22.48,-17.27 l -9.01,0 c -0.64,7.03 -6.79,9.28 -12.73,9.28 -5.41,0 -11.67,-1.5 -11.67,-7.05 0,-6.5 9.55,-7.57 17.93,-9.6 9.02,-2.02 17.92,-5.01 17.92,-15.68 0,-13.11 -12.2,-17.38 -23.33,-17.38 -12.3,0 -22.69,5.02 -23.22,18.67 l 9.01,0"
         style="fill:#231f20;fill-opacity:1;fill-rule:nonzero;stroke:none"
         id="path118"
         inkscape:connector-curvature="0" /><path
         d="m 2797.24,1174.33 11.55,0 -13.89,-15.26 -6.78,0 9.12,15.26 z m 13.68,-45.12 c -0.43,8.64 -6.9,15.58 -15.81,15.58 -9.44,0 -15.06,-7.15 -15.7,-15.58 l 31.51,0 z m 8.69,-15.36 c -2.44,-12.16 -11.13,-18.77 -23.44,-18.77 -17.5,0 -25.77,12.16 -26.3,29.01 0,16.54 10.82,28.69 25.77,28.69 19.41,0 25.35,-18.24 24.82,-31.57 l -41.05,0 c -0.31,-9.6 5.1,-18.13 17.08,-18.13 7.43,0 12.62,3.63 14.21,10.77 l 8.91,0"
         style="fill:#231f20;fill-opacity:1;fill-rule:nonzero;stroke:none"
         id="path120"
         inkscape:connector-curvature="0" /><path
         d="m 2867.04,1133.8 c -1.39,6.93 -6.15,10.99 -13.57,10.99 -13.05,0 -17.08,-10.35 -17.08,-21.55 0,-10.13 4.56,-20.16 16.01,-20.16 8.7,0 13.9,5.12 15.06,13.44 l 9.23,0 c -2.01,-13.44 -10.39,-21.44 -24.18,-21.44 -16.76,0 -25.66,11.74 -25.66,28.16 0,16.53 8.48,29.54 25.87,29.54 12.41,0 22.38,-5.86 23.65,-18.98 l -9.33,0"
         style="fill:#231f20;fill-opacity:1;fill-rule:nonzero;stroke:none"
         id="path122"
         inkscape:connector-curvature="0" /><path
         d="m 2932.18,1096.36 -8.49,0 0,8.75 -0.21,0 c -3.82,-6.83 -9.96,-10.03 -17.82,-10.03 -14.42,0 -18.87,8.32 -18.87,20.16 l 0,36.26 9.01,0 0,-37.33 c 0,-6.72 4.24,-11.09 11.13,-11.09 10.93,0 16.23,7.36 16.23,17.28 l 0,31.14 9.02,0 0,-55.14"
         style="fill:#231f20;fill-opacity:1;fill-rule:nonzero;stroke:none"
         id="path124"
         inkscape:connector-curvature="0" /><path
         d="m 2945.45,1151.5 8.49,0 0,-11.62 0.21,0 c 4.35,8.85 10.39,13.23 20.15,12.9 l 0,-9.6 c -14.53,0 -19.84,-8.31 -19.84,-22.29 l 0,-24.53 -9.01,0 0,55.14"
         style="fill:#231f20;fill-opacity:1;fill-rule:nonzero;stroke:none"
         id="path126"
         inkscape:connector-curvature="0" /><path
         d="m 2981.62,1151.5 9.01,0 0,-55.14 -9.01,0 0,55.14 z m 9.01,9.93 -9.01,0 0,11.08 9.01,0 0,-11.08"
         style="fill:#231f20;fill-opacity:1;fill-rule:nonzero;stroke:none"
         id="path128"
         inkscape:connector-curvature="0" /><path
         d="m 3017.15,1151.5 10.93,0 0,-8 -10.93,0 0,-34.23 c 0,-4.16 1.17,-4.91 6.79,-4.91 l 4.14,0 0,-8 -6.9,0 c -9.33,0 -13.05,1.92 -13.05,12.05 l 0,35.09 -9.32,0 0,8 9.32,0 0,16.54 9.02,0 0,-16.54"
         style="fill:#231f20;fill-opacity:1;fill-rule:nonzero;stroke:none"
         id="path130"
         inkscape:connector-curvature="0" /><path
         d="m 3062.45,1174.33 11.55,0 -13.88,-15.26 -6.79,0 9.12,15.26 z m 13.68,-45.12 c -0.43,8.64 -6.89,15.58 -15.81,15.58 -9.43,0 -15.06,-7.15 -15.69,-15.58 l 31.5,0 z m 8.69,-15.36 c -2.44,-12.16 -11.13,-18.77 -23.43,-18.77 -17.5,0 -25.77,12.16 -26.3,29.01 0,16.54 10.82,28.69 25.77,28.69 19.4,0 25.34,-18.24 24.81,-31.57 l -41.04,0 c -0.31,-9.6 5.1,-18.13 17.08,-18.13 7.42,0 12.62,3.63 14.21,10.77 l 8.9,0"
         style="fill:#231f20;fill-opacity:1;fill-rule:nonzero;stroke:none"
         id="path132"
         inkscape:connector-curvature="0" /><path
         d="m 2138.11,992.156 c 12.09,0 16.75,10.454 16.75,20.804 0,10.88 -4.88,20.9 -17.29,20.9 -12.3,0 -16.44,-10.56 -16.44,-21.33 0,-10.35 5.31,-20.374 16.98,-20.374 z m 25.44,-6.718 -9.01,0 0,7.464 -0.21,0 c -2.97,-6.078 -9.97,-8.746 -17.5,-8.746 -16.86,0 -25.24,13.442 -25.24,29.014 0,15.57 8.27,28.69 25.03,28.69 5.62,0 13.68,-2.13 17.71,-8.64 l 0.21,0 0,28.37 9.01,0 0,-76.152"
         style="fill:#231f20;fill-opacity:1;fill-rule:nonzero;stroke:none"
         id="path134"
         inkscape:connector-curvature="0" /><path
         d="m 2215.55,1018.29 c -0.43,8.64 -6.9,15.57 -15.81,15.57 -9.44,0 -15.06,-7.14 -15.7,-15.57 l 31.51,0 z m 8.69,-15.36 c -2.44,-12.16 -11.13,-18.774 -23.44,-18.774 -17.5,0 -25.77,12.16 -26.3,29.014 0,16.53 10.82,28.69 25.77,28.69 19.41,0 25.35,-18.24 24.82,-31.57 l -41.05,0 c -0.31,-9.6 5.1,-18.134 17.08,-18.134 7.42,0 12.62,3.629 14.21,10.774 l 8.91,0"
         style="fill:#231f20;fill-opacity:1;fill-rule:nonzero;stroke:none"
         id="path136"
         inkscape:connector-curvature="0" /><path
         d="m 2239.95,1002.82 c 0.31,-8.105 7.32,-10.664 14.74,-10.664 5.62,0 13.26,1.282 13.26,8.214 0,7.04 -8.92,8.21 -17.93,10.24 -8.91,2.03 -17.92,5.02 -17.92,15.57 0,11.09 10.93,15.68 20.47,15.68 12.09,0 21.74,-3.84 22.48,-17.28 l -9.01,0 c -0.64,7.04 -6.79,9.28 -12.73,9.28 -5.41,0 -11.67,-1.49 -11.67,-7.04 0,-6.5 9.55,-7.57 17.93,-9.6 9.01,-2.03 17.92,-5.01 17.92,-15.68 0,-13.114 -12.2,-17.384 -23.33,-17.384 -12.3,0 -22.7,5.016 -23.22,18.664 l 9.01,0"
         style="fill:#231f20;fill-opacity:1;fill-rule:nonzero;stroke:none"
         id="path138"
         inkscape:connector-curvature="0" /><path
         d="m 2329.48,1040.58 10.93,0 0,-8 -10.93,0 0,-34.236 c 0,-4.16 1.17,-4.906 6.79,-4.906 l 4.14,0 0,-8 -6.89,0 c -9.34,0 -13.05,1.917 -13.05,12.05 l 0,35.092 -9.33,0 0,8 9.33,0 0,16.53 9.01,0 0,-16.53"
         style="fill:#231f20;fill-opacity:1;fill-rule:nonzero;stroke:none"
         id="path140"
         inkscape:connector-curvature="0" /><path
         d="m 2374.79,1063.41 11.55,0 -13.89,-15.26 -6.79,0 9.13,15.26 z m 13.68,-45.12 c -0.43,8.64 -6.9,15.57 -15.81,15.57 -9.44,0 -15.06,-7.14 -15.7,-15.57 l 31.51,0 z m 8.69,-15.36 c -2.44,-12.16 -11.13,-18.774 -23.44,-18.774 -17.5,0 -25.77,12.16 -26.3,29.014 0,16.53 10.82,28.69 25.77,28.69 19.41,0 25.35,-18.24 24.82,-31.57 l -41.05,0 c -0.31,-9.6 5.1,-18.134 17.08,-18.134 7.42,0 12.62,3.629 14.21,10.774 l 8.91,0"
         style="fill:#231f20;fill-opacity:1;fill-rule:nonzero;stroke:none"
         id="path142"
         inkscape:connector-curvature="0" /><path
         d="m 2407.89,985.438 9.0078,0 0,76.1523 -9.0078,0 0,-76.1523 z"
         style="fill:#231f20;fill-opacity:1;fill-rule:nonzero;stroke:none"
         id="path144"
         inkscape:connector-curvature="0" /><path
         d="m 2455.31,1063.41 11.56,0 -13.89,-15.26 -6.79,0 9.12,15.26 z m 13.68,-45.12 c -0.43,8.64 -6.89,15.57 -15.81,15.57 -9.43,0 -15.05,-7.14 -15.69,-15.57 l 31.5,0 z m 8.7,-15.36 c -2.45,-12.16 -11.14,-18.774 -23.44,-18.774 -17.5,0 -25.77,12.16 -26.3,29.014 0,16.53 10.82,28.69 25.77,28.69 19.41,0 25.34,-18.24 24.82,-31.57 l -41.05,0 c -0.31,-9.6 5.1,-18.134 17.08,-18.134 7.42,0 12.62,3.629 14.21,10.774 l 8.91,0"
         style="fill:#231f20;fill-opacity:1;fill-rule:nonzero;stroke:none"
         id="path146"
         inkscape:connector-curvature="0" /><path
         d="m 2525.12,1022.88 c -1.39,6.93 -6.16,10.98 -13.58,10.98 -13.04,0 -17.08,-10.34 -17.08,-21.54 0,-10.14 4.56,-20.164 16.02,-20.164 8.7,0 13.9,5.121 15.06,13.434 l 9.23,0 c -2.02,-13.434 -10.39,-21.434 -24.18,-21.434 -16.76,0 -25.67,11.735 -25.67,28.164 0,16.53 8.49,29.54 25.88,29.54 12.4,0 22.37,-5.87 23.64,-18.98 l -9.32,0"
         style="fill:#231f20;fill-opacity:1;fill-rule:nonzero;stroke:none"
         id="path148"
         inkscape:connector-curvature="0" /><path
         d="m 2568.52,992.156 c 9.43,0 17.07,7.465 17.07,20.804 0,13.43 -7.64,20.9 -17.07,20.9 -9.45,0 -17.08,-7.47 -17.08,-20.9 0,-13.339 7.63,-20.804 17.08,-20.804 z m 0,49.704 c 17.39,0 26.61,-12.69 26.61,-28.9 0,-16.112 -9.22,-28.804 -26.61,-28.804 -17.4,0 -26.63,12.692 -26.63,28.804 0,16.21 9.23,28.9 26.63,28.9"
         style="fill:#231f20;fill-opacity:1;fill-rule:nonzero;stroke:none"
         id="path150"
         inkscape:connector-curvature="0" /><path
         d="m 2605.75,1040.58 8.49,0 0,-8.11 0.2,0 c 4.04,6.19 10.19,9.39 17.72,9.39 6.68,0 12.83,-2.67 15.06,-9.39 3.71,5.87 10.18,9.39 17.17,9.39 10.93,0 18.25,-4.59 18.25,-16 l 0,-40.422 -9.02,0 0,36.152 c 0,6.83 -1.8,12.27 -10.6,12.27 -8.69,0 -14.32,-5.55 -14.32,-14.08 l 0,-34.342 -9.01,0 0,36.152 c 0,7.15 -2.23,12.27 -10.29,12.27 -10.71,0 -14.63,-9.92 -14.63,-14.08 l 0,-34.342 -9.02,0 0,55.142"
         style="fill:#231f20;fill-opacity:1;fill-rule:nonzero;stroke:none"
         id="path152"
         inkscape:connector-curvature="0" /><path
         d="m 2696.24,1040.58 8.49,0 0,-8.11 0.2,0 c 4.03,6.19 10.19,9.39 17.72,9.39 6.68,0 12.83,-2.67 15.06,-9.39 3.71,5.87 10.18,9.39 17.17,9.39 10.93,0 18.25,-4.59 18.25,-16 l 0,-40.422 -9.02,0 0,36.152 c 0,6.83 -1.81,12.27 -10.6,12.27 -8.7,0 -14.32,-5.55 -14.32,-14.08 l 0,-34.342 -9.01,0 0,36.152 c 0,7.15 -2.23,12.27 -10.29,12.27 -10.71,0 -14.64,-9.92 -14.64,-14.08 l 0,-34.342 -9.01,0 0,55.142"
         style="fill:#231f20;fill-opacity:1;fill-rule:nonzero;stroke:none"
         id="path154"
         inkscape:connector-curvature="0" /><path
         d="m 2832.12,985.438 -8.49,0 0,8.746 -0.21,0 c -3.82,-6.829 -9.96,-10.028 -17.81,-10.028 -14.43,0 -18.88,8.321 -18.88,20.154 l 0,36.27 9.01,0 0,-37.33 c 0,-6.719 4.24,-11.094 11.14,-11.094 10.92,0 16.23,7.36 16.23,17.284 l 0,31.14 9.01,0 0,-55.142"
         style="fill:#231f20;fill-opacity:1;fill-rule:nonzero;stroke:none"
         id="path156"
         inkscape:connector-curvature="0" /><path
         d="m 2845.71,1040.58 8.49,0 0,-8.74 0.2,0 c 3.82,6.82 9.98,10.02 17.83,10.02 14.42,0 18.87,-8.32 18.87,-20.16 l 0,-36.262 -9.01,0 0,37.332 c 0,6.71 -4.25,11.09 -11.13,11.09 -10.93,0 -16.23,-7.36 -16.23,-17.28 l 0,-31.142 -9.02,0 0,55.142"
         style="fill:#231f20;fill-opacity:1;fill-rule:nonzero;stroke:none"
         id="path158"
         inkscape:connector-curvature="0" /><path
         d="m 2905.22,1040.58 9.02,0 0,-55.142 -9.02,0 0,55.142 z m 9.02,9.92 -9.02,0 0,11.09 9.02,0 0,-11.09"
         style="fill:#231f20;fill-opacity:1;fill-rule:nonzero;stroke:none"
         id="path160"
         inkscape:connector-curvature="0" /><path
         d="m 2965.47,1022.88 c -1.39,6.93 -6.15,10.98 -13.58,10.98 -13.04,0 -17.08,-10.34 -17.08,-21.54 0,-10.14 4.57,-20.164 16.02,-20.164 8.7,0 13.9,5.121 15.06,13.434 l 9.23,0 c -2.01,-13.434 -10.39,-21.434 -24.18,-21.434 -16.76,0 -25.67,11.735 -25.67,28.164 0,16.53 8.49,29.54 25.88,29.54 12.4,0 22.38,-5.87 23.64,-18.98 l -9.32,0"
         style="fill:#231f20;fill-opacity:1;fill-rule:nonzero;stroke:none"
         id="path162"
         inkscape:connector-curvature="0" /><path
         d="m 3019.15,1013.91 c -3.5,-2.55 -10.28,-2.66 -16.33,-3.73 -5.94,-1.07 -11.03,-3.2 -11.03,-9.92 0,-5.971 5.09,-8.104 10.6,-8.104 11.88,0 16.76,7.465 16.76,12.484 l 0,9.27 z m 14.64,-28.258 c -1.59,-0.961 -3.61,-1.496 -6.48,-1.496 -4.66,0 -7.63,2.563 -7.63,8.532 -4.98,-5.864 -11.66,-8.532 -19.3,-8.532 -9.97,0 -18.13,4.481 -18.13,15.465 0,12.479 9.22,15.149 18.55,16.959 9.97,1.92 18.46,1.28 18.46,8.11 0,7.89 -6.48,9.17 -12.2,9.17 -7.64,0 -13.25,-2.34 -13.68,-10.45 l -9.01,0 c 0.52,13.65 11.03,18.45 23.22,18.45 9.86,0 20.57,-2.24 20.57,-15.14 l 0,-28.376 c 0,-4.27 0,-6.188 2.87,-6.188 0.74,0 1.59,0.11 2.76,0.532 l 0,-7.036"
         style="fill:#231f20;fill-opacity:1;fill-rule:nonzero;stroke:none"
         id="path164"
         inkscape:connector-curvature="0" /><path
         d="m 3054.7,1040.58 10.93,0 0,-8 -10.93,0 0,-34.236 c 0,-4.16 1.17,-4.906 6.78,-4.906 l 4.15,0 0,-8 -6.9,0 c -9.34,0 -13.05,1.917 -13.05,12.05 l 0,35.092 -9.32,0 0,8 9.32,0 0,16.53 9.02,0 0,-16.53"
         style="fill:#231f20;fill-opacity:1;fill-rule:nonzero;stroke:none"
         id="path166"
         inkscape:connector-curvature="0" /><path
         d="m 3076.13,1040.58 9.02,0 0,-55.142 -9.02,0 0,55.142 z m 9.02,9.92 -9.02,0 0,11.09 9.02,0 0,-11.09"
         style="fill:#231f20;fill-opacity:1;fill-rule:nonzero;stroke:none"
         id="path168"
         inkscape:connector-curvature="0" /><path
         d="m 3122.81,992.156 c 9.44,0 17.07,7.465 17.07,20.804 0,13.43 -7.63,20.9 -17.07,20.9 -9.44,0 -17.08,-7.47 -17.08,-20.9 0,-13.339 7.64,-20.804 17.08,-20.804 z m 0,49.704 c 17.4,0 26.61,-12.69 26.61,-28.9 0,-16.112 -9.21,-28.804 -26.61,-28.804 -17.39,0 -26.62,12.692 -26.62,28.804 0,16.21 9.23,28.9 26.62,28.9"
         style="fill:#231f20;fill-opacity:1;fill-rule:nonzero;stroke:none"
         id="path170"
         inkscape:connector-curvature="0" /><path
         d="m 3160.05,1040.58 8.49,0 0,-8.74 0.2,0 c 3.82,6.82 9.97,10.02 17.82,10.02 14.43,0 18.88,-8.32 18.88,-20.16 l 0,-36.262 -9.01,0 0,37.332 c 0,6.71 -4.25,11.09 -11.14,11.09 -10.92,0 -16.23,-7.36 -16.23,-17.28 l 0,-31.142 -9.01,0 0,55.142"
         style="fill:#231f20;fill-opacity:1;fill-rule:nonzero;stroke:none"
         id="path172"
         inkscape:connector-curvature="0" /><path
         d="m 3224.55,1002.82 c 0.31,-8.105 7.32,-10.664 14.74,-10.664 5.62,0 13.26,1.282 13.26,8.214 0,7.04 -8.92,8.21 -17.93,10.24 -8.91,2.03 -17.92,5.02 -17.92,15.57 0,11.09 10.93,15.68 20.47,15.68 12.09,0 21.74,-3.84 22.48,-17.28 l -9.02,0 c -0.63,7.04 -6.78,9.28 -12.72,9.28 -5.41,0 -11.67,-1.49 -11.67,-7.04 0,-6.5 9.55,-7.57 17.93,-9.6 9.01,-2.03 17.92,-5.01 17.92,-15.68 0,-13.114 -12.2,-17.384 -23.33,-17.384 -12.3,0 -22.7,5.016 -23.22,18.664 l 9.01,0"
         style="fill:#231f20;fill-opacity:1;fill-rule:nonzero;stroke:none"
         id="path174"
         inkscape:connector-curvature="0" /><path
         d="m 311.941,1003.21 91.1719,0 0,186.754 -91.1719,0 0,-186.754 z"
         style="fill:#231f20;fill-opacity:1;fill-rule:nonzero;stroke:none"
         id="path176"
         inkscape:connector-curvature="0" /><path
         d="m 605.422,1003.21 91.1641,0 0,186.754 -91.1641,0 0,-186.754 z"
         style="fill:#231f20;fill-opacity:1;fill-rule:nonzero;stroke:none"
         id="path178"
         inkscape:connector-curvature="0" /><path
         d="m 491.633,1151.18 13.012,26.66 12.953,-25.7 c 1.613,-2.72 2.898,-2.52 5.488,-1.19 l 11.133,5.53 -7.266,-35.93 c -1.504,-7.01 2.485,-9.08 6.809,-4.31 l 15.812,17.05 4.199,-9.67 c 1.454,-2.92 3.567,-2.51 6.395,-1.94 l 16.34,3.48 -5.438,-20.82 -0.172,-0.46 c -0.632,-2.72 -1.91,-5 1.071,-6.26 l 5.883,-2.92 -33.735,-28.74 c -3.488,-3.57 -2.293,-4.69 -0.957,-8.66 l 3.113,-9.66 -31.472,5.72 c -3.887,0.98 -6.563,0.98 -6.676,-2.14 l 1.293,-36.33 -9.5,0 1.25,36.15 c 0,3.65 -2.652,3.54 -9.02,2.23 l -29.058,-5.63 3.719,9.66 c 1.332,3.68 1.652,6.19 -1.274,8.66 l -34.48,28.31 6.343,3.88 c 1.817,1.42 1.965,2.92 0.954,6.08 l -6.411,21.1 16.567,-3.58 c 4.668,-1.05 5.926,0 7.101,2.61 l 4.641,9.56 16.371,-18.66 c 2.93,-3.47 7.012,-1.17 5.746,3.81 l -7.91,38.86 12.223,-6.98 c 1.933,-1.22 4,-1.53 5.121,0.73 l -0.168,-0.5"
         style="fill:#231f20;fill-opacity:1;fill-rule:nonzero;stroke:none"
         id="path180"
         inkscape:connector-curvature="0" /></g></g></svg>