<svg xmlns="http://www.w3.org/2000/svg" width="389.809" height="199.796" viewBox="0 0 389.809 199.796">
  <title>Asset 1</title>
  <g>
    <path d="M389.809,17.806V183.722H224.144V17.806ZM307.031,81.63c-5.255-6.418-9.947-12.247-14.77-17.965-1.006-1.193-2.472-2.79-3.763-2.825-9.059-.245-18.127-.13-28.52-.13L292.05,99.991l-32.115,39.486c9.478,0,17.76.2,26.02-.137a9.725,9.725,0,0,0,6.18-2.934c5.078-5.645,9.739-11.664,14.847-17.894,2.107,2.524,4.265,4.45,5.612,6.834,6.724,11.909,16.611,16.6,30.116,14.218,3.384-.6,6.964-.089,11.428-.089l-32.1-39.5c10.623-13.03,20.941-25.686,32.029-39.288-10.186,0-18.973-.128-27.749.125-1.49.043-3.263,1.444-4.341,2.7C317.016,69.3,312.26,75.248,307.031,81.63Z"/>
    <path d="M99.7,199.8C44.906,199.844.006,154.817,0,99.818a99.586,99.586,0,1,1,199.171-.085C199.221,154.956,154.692,199.749,99.7,199.8ZM97.9,175.207c41.362.054,75.024-33.248,75.093-74.29.07-41.81-33.435-75.716-74.863-75.759a75.025,75.025,0,0,0-.23,150.049Z"/>
    <path d="M57.666,53.089c18.427.693,36.661.147,54.541,2.4,17.43,2.2,30.078,13.049,35.235,30.1,5,16.531,2.52,32.388-9.67,45.658-6.635,7.223-15.031,12.354-24.609,13.194-18.31,1.607-36.74,1.845-55.5,2.668Zm23.368,74.887c7.393,0,14.22.5,20.948-.106,13.037-1.169,21.616-10.09,23.277-23.329,1.862-14.85-4.043-26.63-16.083-30.939-9.07-3.246-18.562-2.238-28.142-2.131Z"/>
    <path d="M81.034,127.976v-56.5c9.58-.107,19.072-1.115,28.142,2.131,12.04,4.309,17.945,16.089,16.083,30.939-1.661,13.239-10.24,22.16-23.277,23.329C95.254,128.473,88.427,127.976,81.034,127.976Z" fill="#fff"/>
  </g>
</svg>
