<?xml version="1.0" encoding="UTF-8" standalone="no"?>
<svg
   xmlns:dc="http://purl.org/dc/elements/1.1/"
   xmlns:cc="http://creativecommons.org/ns#"
   xmlns:rdf="http://www.w3.org/1999/02/22-rdf-syntax-ns#"
   xmlns:svg="http://www.w3.org/2000/svg"
   xmlns="http://www.w3.org/2000/svg"
   viewBox="0 0 231.08749 119.85"
   height="119.85"
   width="231.08749"
   xml:space="preserve"
   version="1.1"
   id="svg2"><metadata
     id="metadata8"><rdf:RDF><cc:Work
         rdf:about=""><dc:format>image/svg+xml</dc:format><dc:type
           rdf:resource="http://purl.org/dc/dcmitype/StillImage" /><dc:title></dc:title></cc:Work></rdf:RDF></metadata><defs
     id="defs6" /><g
     transform="matrix(1.25,0,0,-1.25,0,119.85)"
     id="g10"><g
       transform="scale(0.1,0.1)"
       id="g12"><path
         id="path14"
         style="fill:#100f0d;fill-opacity:1;fill-rule:nonzero;stroke:none"
         d="m 553.184,115.918 c -1.551,13.457 -3.789,24.844 -16.528,24.844 -15.621,0 -19.414,-16.035 -19.414,-43.6604 0,-10.2071 0,-38.0977 19.414,-38.0977 14.082,0 15.641,15.1094 16.528,24.8438 l 21.875,-2.1094 c -1.774,-14.1289 -5.567,-42.2656 -40.18,-42.2656 -35.734,0 -41.535,35.539 -41.535,59.7382 0,26.6561 7.148,60.3671 43.094,60.3671 32.824,0 37.062,-29.043 38.621,-41.355 l -21.875,-2.305" /><path
         id="path16"
         style="fill:#100f0d;fill-opacity:1;fill-rule:nonzero;stroke:none"
         d="m 591.129,42.2969 22.7773,0 0,154.91 -22.7773,0 0,-154.91 z" /><path
         id="path18"
         style="fill:#100f0d;fill-opacity:1;fill-rule:nonzero;stroke:none"
         d="m 651.93,99.4141 c 0,-29.961 6.468,-42.0118 19.203,-42.0118 12.722,0 19.187,11.6016 19.187,42.2383 0,29.4804 -6.25,42.0584 -19.187,42.0584 -13.86,0 -19.203,-14.414 -19.203,-42.2849 z m 62.504,1.4059 c 0,-26.7067 -6.016,-61.3473 -43.536,-61.3473 -34.156,0 -43.085,30.4296 -43.085,60.1679 0,27.6444 7.367,59.9374 43.535,59.9374 34.394,0 43.086,-30.879 43.086,-58.758" /><path
         id="path20"
         style="fill:#100f0d;fill-opacity:1;fill-rule:nonzero;stroke:none"
         d="m 751.117,156.797 0,-72.6837 c 0,-16.0781 0,-25.5586 12.738,-25.5586 18.309,0 18.309,22.043 18.309,43.1833 l 0,55.059 22.777,0 0,-114.5001 -20.996,0 0,17.1953 c -3.996,-8.4063 -9.597,-20.0195 -27.922,-20.0195 -27.671,0 -27.671,25.1054 -27.671,44.1484 l 0,73.1759 22.765,0" /><path
         id="path22"
         style="fill:#100f0d;fill-opacity:1;fill-rule:nonzero;stroke:none"
         d="m 882.676,109.641 c 0,7.422 0,14.843 -4.684,22.285 -2.449,3.73 -7.371,9.527 -15.172,9.527 -16.761,0 -18.988,-22.058 -18.988,-40.406 0,-19.5314 2.004,-42.9728 19.203,-42.9728 6.469,0 11.594,3.6836 14.957,9.043 2.899,4.6406 4.684,10.2461 4.684,22.7656 l 0,19.7582 z m 22.551,87.566 0,-154.9101 -20.973,0 0,17.3984 c -2.914,-6.7265 -8.508,-19.5078 -27.707,-19.5078 -31.027,0 -36.836,36.6875 -36.836,58.7773 0,39.2382 15.859,59.9142 37.734,59.9142 17.184,0 22.555,-10.207 25.231,-15.313 l 0,53.641 22.551,0" /><path
         id="path24"
         style="fill:#100f0d;fill-opacity:1;fill-rule:nonzero;stroke:none"
         d="m 1013.81,98.2422 c -3.55,0.2461 -5.13,0.2461 -6.7,0.2461 -26.348,0 -29.676,-13.7031 -29.676,-24.375 0,-13.7227 7.129,-17.1992 14.722,-17.1992 9.624,0 21.654,10.2031 21.654,35.5468 l 0,5.7813 z m -56.056,29.0428 c 5.144,29.512 31.289,32.293 41.562,32.293 15.844,0 25.204,-6.031 30.364,-12.312 6.91,-7.911 6.91,-22.071 6.91,-34.356 l 0,-38.7967 c 0,-9.7383 0,-23.9453 1.8,-31.8164 l -21.23,0 c -1.09,5.5547 -1.54,8.3164 -1.54,19.0312 -4.24,-8.1328 -11.4,-21.8554 -31.057,-21.8554 -17.844,0 -30.825,11.8554 -30.825,32.9882 0,18.3399 9.614,31.1441 22.785,35.7811 9.383,3.25 21.457,5.117 37.287,4.668 l 0,4.641 c 0,8.316 0,24.629 -16.298,24.629 -14.492,0 -16.977,-13.059 -17.832,-17.942 l -21.926,3.047" /><path
         id="path26"
         style="fill:#100f0d;fill-opacity:1;fill-rule:nonzero;stroke:none"
         d="m 1111.14,115.918 c -1.57,13.457 -3.81,24.844 -16.52,24.844 -15.65,0 -19.42,-16.035 -19.42,-43.6604 0,-10.2071 0,-38.0977 19.42,-38.0977 14.06,0 15.63,15.1094 16.52,24.8438 l 21.89,-2.1094 c -1.79,-14.1289 -5.57,-42.2656 -40.19,-42.2656 -35.74,0 -41.53,35.539 -41.53,59.7382 0,26.6561 7.13,60.3671 43.08,60.3671 32.85,0 37.08,-29.043 38.64,-41.355 l -21.89,-2.305" /><path
         id="path28"
         style="fill:#100f0d;fill-opacity:1;fill-rule:nonzero;stroke:none"
         d="m 1205.53,115.918 c -1.6,13.457 -3.81,24.844 -16.56,24.844 -15.61,0 -19.41,-16.035 -19.41,-43.6604 0,-10.2071 0,-38.0977 19.41,-38.0977 14.07,0 15.64,15.1094 16.56,24.8438 l 21.83,-2.1094 c -1.73,-14.1289 -5.56,-42.2656 -40.16,-42.2656 -35.75,0 -41.54,35.539 -41.54,59.7382 0,26.6561 7.14,60.3671 43.09,60.3671 32.84,0 37.09,-29.043 38.61,-41.355 l -21.83,-2.305" /><path
         id="path30"
         style="fill:#100f0d;fill-opacity:1;fill-rule:nonzero;stroke:none"
         d="m 1264.91,99.4141 c 0,-29.961 6.47,-42.0118 19.18,-42.0118 12.76,0 19.22,11.6016 19.22,42.2383 0,29.4804 -6.24,42.0584 -19.22,42.0584 -13.84,0 -19.18,-14.414 -19.18,-42.2849 z m 62.52,1.4059 c 0,-26.7067 -6.01,-61.3473 -43.56,-61.3473 -34.14,0 -43.08,30.4296 -43.08,60.1679 0,27.6444 7.36,59.9374 43.51,59.9374 34.42,0 43.13,-30.879 43.13,-58.758" /><path
         id="path32"
         style="fill:#100f0d;fill-opacity:1;fill-rule:nonzero;stroke:none"
         d="m 1364.65,156.797 0,-72.6837 c 0,-16.0781 0,-25.5586 12.71,-25.5586 18.31,0 18.31,22.043 18.31,43.1833 l 0,55.059 22.8,0 0,-114.5001 -21.02,0 0,17.1953 c -4.02,-8.4063 -9.6,-20.0195 -27.93,-20.0195 -27.64,0 -27.64,25.1054 -27.64,44.1484 l 0,73.1759 22.77,0" /><path
         id="path34"
         style="fill:#100f0d;fill-opacity:1;fill-rule:nonzero;stroke:none"
         d="m 1435.96,156.797 21.02,0 0,-17.664 c 2.66,6.25 8.24,20.445 27.21,20.445 7.14,0 18.52,-1.844 24.57,-14.195 3.58,-7.18 3.79,-17.852 3.79,-29.238 l 0,-73.8481 -22.75,0 0,72.4301 c 0,14.875 0,25.793 -13.2,25.793 -17.87,0 -17.87,-22.297 -17.87,-34.153 l 0,-64.0701 -22.77,0 0,114.5001" /><path
         id="path36"
         style="fill:#100f0d;fill-opacity:1;fill-rule:nonzero;stroke:none"
         d="m 1580.17,137.715 -21.03,0 0,-50.5978 c 0,-20 0,-27.625 15.19,-27.625 4.03,0 6.72,0.4297 9.38,0.6953 l 0,-18.6328 c -4.46,-0.8984 -9.59,-2.082 -16.95,-2.082 -29.96,0 -29.96,20.9179 -29.96,46.0156 l 0,52.2267 -14.28,0 0,19.082 14.96,0 1.13,29.98 20.53,1.836 0,-31.816 21.03,0 0,-19.082" /><path
         id="path38"
         style="fill:#100f0d;fill-opacity:1;fill-rule:nonzero;stroke:none"
         d="m 1623.5,156.797 0,-114.5001 -22.81,0 0,114.5001 22.81,0 z m -23.46,15.558 0,25.094 23.89,0 0,-25.094 -23.89,0" /><path
         id="path40"
         style="fill:#100f0d;fill-opacity:1;fill-rule:nonzero;stroke:none"
         d="m 1642.78,156.797 21.01,0 0,-17.664 c 2.66,6.25 8.27,20.445 27.24,20.445 7.12,0 18.53,-1.844 24.57,-14.195 3.55,-7.18 3.78,-17.852 3.78,-29.238 l 0,-73.8481 -22.77,0 0,72.4301 c 0,14.875 0,25.793 -13.18,25.793 -17.84,0 -17.84,-22.297 -17.84,-34.153 l 0,-64.0701 -22.81,0 0,114.5001" /><path
         id="path42"
         style="fill:#100f0d;fill-opacity:1;fill-rule:nonzero;stroke:none"
         d="m 1763.1,121.477 c 0,-3.481 0,-22.0629 15.62,-22.0629 15.64,0 15.64,19.3089 15.64,22.0629 0,5.359 -0.91,22.515 -14.99,22.515 -14.06,0 -16.27,-12.762 -16.27,-22.515 z m -8.95,-88.9575 c 0,-12.332 9.83,-16.0156 26.56,-16.0156 9.62,0 26.15,1.5938 26.15,15.793 0,10.4297 -8.04,12.7812 -13.2,13.2109 -4.22,0.4883 -25.22,1.4258 -29.89,1.6328 -3.14,-1.6328 -9.62,-5.3164 -9.62,-14.6211 z m 72.33,125.2145 c -1.99,0.469 -3.34,0.696 -5.11,0.696 -6.48,0 -10.29,-3.028 -12.07,-12.551 5.59,-7.18 8.49,-15.344 8.49,-24.629 0,-17.871 -12.05,-36.6875 -38.17,-36.6875 -6.27,0 -10.27,0.9258 -14.09,2.0703 -3.33,-1.6445 -8.25,-3.7226 -8.25,-10.207 0,-8.5938 5.58,-8.8164 27.91,-10 21.42,-1.3945 42.87,-2.5586 42.87,-30.8985 C 1828.06,5.11719 1798.35,0 1778.04,0 c -15.64,0 -44.44,3.00781 -44.44,28.8008 0,16.0039 11.17,20.2226 16.08,22.0781 -4.23,2.7813 -12.05,7.4492 -12.05,19.0234 0,14.211 11.37,20.2266 16.32,22.7852 -5.38,3.9453 -14.31,10.4495 -14.31,29.2775 0,22.742 16.08,37.613 38.62,37.613 10.49,0 16.3,-2.781 21.03,-4.89 1.52,8.839 3.53,21.14 20.29,21.14 2.89,0 4.91,-0.445 7.15,-0.691 l -0.25,-17.403" /><path
         id="path44"
         style="fill:#1083cf;fill-opacity:1;fill-rule:nonzero;stroke:none"
         d="m 0,607.117 160.391,0 0,-74.137 -81.5824,0 0,-63.949 72.3364,0 0,-72.34 -72.3364,0 0,-137.187 -78.8086,0 0,347.613" /><path
         id="path46"
         style="fill:#1083cf;fill-opacity:1;fill-rule:nonzero;stroke:none"
         d="m 232.711,493.566 0,-68.828 c 29.121,0.543 43.691,10.762 43.691,30.606 0,13.457 -3.382,23.125 -10.089,28.926 -6.727,5.8 -17.946,8.867 -33.602,9.296 z m -65.785,56.09 76.664,0 c 31.023,0 55.48,-8.004 73.437,-23.922 17.95,-15.918 26.934,-37.578 26.934,-64.961 0,-14.043 -3.387,-27.636 -10.16,-40.785 -6.844,-13.101 -16.774,-22.945 -29.809,-29.605 l 52.61,-130.781 -69.539,0 -53.254,132.109 -1.098,0 0,-132.109 -65.785,0 0,290.054" /><path
         id="path48"
         style="fill:#1083cf;fill-opacity:1;fill-rule:nonzero;stroke:none"
         d="m 361.852,549.656 133.226,0 0,-61.695 -67.375,0 0,-53.457 58.442,0 0,-60.195 -58.442,0 0,-52.793 67.809,0 0,-61.914 -133.66,0 0,290.054" /><path
         id="path50"
         style="fill:#1083cf;fill-opacity:1;fill-rule:nonzero;stroke:none"
         d="m 636.973,549.656 65.836,0 0,-107.539 58.445,0 0,107.539 65.848,0 0,-290.054 -65.848,0 0,120.586 -58.445,0 0,-120.586 -65.836,0 0,290.054" /><path
         id="path52"
         style="fill:#121110;fill-opacity:1;fill-rule:nonzero;stroke:none"
         d="m 919.902,402.219 0,-75.981 c 20.403,0.356 35.664,3.403 45.899,9.321 10.215,5.879 15.293,15.586 15.293,29.097 0,25.063 -18.164,37.563 -54.531,37.563 l -6.661,0 z m 0,138.144 0,-75.082 c 37.11,0.879 55.625,13.149 55.625,36.782 0,14.097 -4.433,23.906 -13.3,29.453 -8.848,5.527 -22.918,8.515 -42.325,8.847 z m -78.812,66.754 80.805,0 c 46.992,0 80.895,-9.156 101.495,-27.437 20.63,-18.379 30.95,-41.758 30.95,-70.063 0,-30.601 -14.95,-55.191 -44.87,-73.789 33.62,-13.34 50.41,-38.75 50.41,-76.211 0,-30.039 -10.56,-54.176 -31.64,-72.554 -21.11,-18.403 -48.955,-27.559 -83.474,-27.559 l -103.676,0 0,347.613" /><path
         id="path54"
         style="fill:#121110;fill-opacity:1;fill-rule:nonzero;stroke:none"
         d="m 1169.56,491.711 c -23.74,0 -35.6,-27.91 -35.6,-83.637 0,-35.957 2.99,-59.898 9.02,-71.949 5.99,-12.012 14.73,-18.012 26.19,-18.012 12.29,0 21.74,6 28.37,18.012 6.55,12.051 9.87,35.586 9.87,70.605 0,56.7 -12.62,84.981 -37.85,84.981 z m 2.38,-239.492 c -35.02,0 -61.68,13.457 -80.11,40.332 -18.43,26.894 -27.62,65.683 -27.62,116.367 0,46.758 9.24,83.238 27.68,109.375 18.45,26.191 44.24,39.238 77.28,39.238 35.21,0 62.1,-13.105 80.7,-39.336 18.57,-26.211 27.96,-63.656 27.96,-112.367 0,-48.633 -9.19,-86.383 -27.53,-113.277 -18.3,-26.875 -44.41,-40.332 -78.36,-40.332" /><path
         id="path56"
         style="fill:#121110;fill-opacity:1;fill-rule:nonzero;stroke:none"
         d="m 1386.94,491.711 c -23.78,0 -35.66,-27.91 -35.66,-83.637 0,-35.957 2.99,-59.898 8.98,-71.949 6.06,-12.012 14.79,-18.012 26.22,-18.012 12.3,0 21.77,6 28.34,18.012 6.65,12.051 9.9,35.586 9.9,70.605 0,56.7 -12.6,84.981 -37.78,84.981 z m 2.37,-239.492 c -35.04,0 -61.79,13.457 -80.2,40.332 -18.38,26.894 -27.58,65.683 -27.58,116.367 0,46.758 9.23,83.238 27.68,109.375 18.5,26.191 44.22,39.238 77.27,39.238 35.2,0 62.1,-13.105 80.72,-39.336 18.63,-26.211 27.95,-63.656 27.95,-112.367 0,-48.633 -9.16,-86.383 -27.52,-113.277 -18.31,-26.875 -44.4,-40.332 -78.32,-40.332" /><path
         id="path58"
         style="fill:#121110;fill-opacity:1;fill-rule:nonzero;stroke:none"
         d="m 1500.42,549.656 65.86,0 0,-136.422 1.06,0 62.16,136.422 69.1,0 -67.36,-148.179 64.53,-141.875 -72.3,0 -56.13,120.586 -1.06,0 0,-120.586 -65.86,0 0,290.054" /><path
         id="path60"
         style="fill:#121110;fill-opacity:1;fill-rule:nonzero;stroke:none"
         d="m 1700.99,264.836 0,67.574 c 20.83,-12.129 38.34,-18.238 52.59,-18.238 8.27,0 14.76,2.281 19.55,6.855 4.71,4.532 7.13,10.625 7.13,18.145 0,5.777 -1.91,11.191 -5.74,16.289 -3.85,5.059 -10.45,11.211 -19.88,18.437 -22.72,17.422 -39.24,33.59 -49.44,48.59 -10.21,14.985 -15.31,31.703 -15.31,50.102 0,25.039 7.89,45.484 23.71,61.269 15.78,15.782 36.21,23.672 61.23,23.672 18.57,0 36.98,-3.965 55.24,-11.972 l 0,-64.922 c -19.57,10.664 -35.47,16.074 -47.6,16.074 -8.1,0 -14.52,-2.031 -19.29,-5.996 -4.69,-3.985 -7.04,-9.453 -7.04,-16.391 0,-12.183 10.94,-25.855 32.79,-41.051 13.07,-9.023 26.29,-21.621 39.69,-37.953 13.43,-16.328 20.11,-35.172 20.11,-56.621 0,-25.039 -8.79,-45.758 -26.3,-62.222 -17.52,-16.465 -39.74,-24.653 -66.68,-24.653 -18.43,0 -36.64,4.336 -54.76,13.012" /><path
         id="path62"
         style="fill:#1083cf;fill-opacity:1;fill-rule:nonzero;stroke:none"
         d="m 642.641,334.855 -66.254,94.801 c -66.235,94.809 75.617,156.172 75.617,156.172 l -10.41,10.453 c 0,0 -230.719,-47.558 -134.199,-185.761 l 65.664,-98.965 c 24.671,-37.129 -12.239,-58.496 -35.032,-58.496 -22.812,0 -41.648,0 -41.648,0 l 0,-17.817 32.383,0 c 54.828,0 172.883,12.016 113.879,99.613" /><path
         id="path64"
         style="fill:#638813;fill-opacity:1;fill-rule:nonzero;stroke:none"
         d="m 1417.89,685.828 c 0,0 -30.68,-18.047 -87.14,-100.562 -8.81,-12.911 -14.8,-11.719 -14.8,-11.719 0,0 2.61,-19.727 31.64,-13.809 0,0 41.05,97.34 83.91,116.715 l -13.61,9.375" /><path
         id="path66"
         style="fill:#80cc28;fill-opacity:1;fill-rule:nonzero;stroke:none"
         d="m 1377.67,635.676 c 0,0 19.13,266.172 234.83,259.297 178.76,-5.703 236.23,63.789 236.23,63.789 0,0 1.9,-378.227 -471.06,-323.086" /><path
         id="path68"
         style="fill:#638813;fill-opacity:1;fill-rule:nonzero;stroke:none"
         d="m 1403.68,661.418 c 0,0 89.18,134.844 194.63,145.352 107.26,10.718 172.76,63.593 172.76,63.593 0,0 -65.25,-79.726 -179.29,-91.191 -98.35,-9.824 -188.1,-117.754 -188.1,-117.754" /></g></g></svg>