<?xml version="1.0" encoding="utf-8"?>
<!-- Generator: Adobe Illustrator 21.0.0, SVG Export Plug-In . SVG Version: 6.00 Build 0)  -->
<svg version="1.1" id="Logotype" xmlns="http://www.w3.org/2000/svg" xmlns:xlink="http://www.w3.org/1999/xlink" x="0px" y="0px"
	 viewBox="0 0 503 185" style="enable-background:new 0 0 503 185;" xml:space="preserve">
<style type="text/css">
	.st0{fill:#737373;}
	.st1{fill:#F25022;}
	.st2{fill:#7FBA00;}
	.st3{fill:#00A4EF;}
	.st4{fill:#FFB900;}
</style>
<g>
	<path class="st0" d="M193.8,99.1l-2.4,6.6h-0.1c-0.4-1.5-1.1-3.7-2.2-6.5l-12.6-31.7h-12.4v50.4h8.1v-31c0-1.9,0-4.2-0.1-6.9
		c0-1.3-0.2-2.4-0.2-3.2h0.2c0.4,1.9,0.8,3.3,1.2,4.3l15.2,36.8h5.7l15-37.1c0.3-0.8,0.7-2.5,1-4h0.2c-0.2,3.7-0.4,7-0.4,9v32h8.7
		V67.5h-11.9L193.8,99.1z"/>
	<rect x="226.8" y="81.8" class="st0" width="8.5" height="36.1"/>
	<path class="st0" d="M231.1,66.5c-1.4,0-2.6,0.5-3.6,1.4c-1,0.9-1.5,2.1-1.5,3.5c0,1.4,0.5,2.6,1.5,3.5c1,0.9,2.2,1.4,3.6,1.4
		c1.4,0,2.7-0.5,3.7-1.4c1-0.9,1.5-2.1,1.5-3.5c0-1.4-0.5-2.5-1.5-3.5C233.8,66.9,232.6,66.5,231.1,66.5z"/>
	<path class="st0" d="M265.4,81.4c-1.6-0.3-3.2-0.5-4.7-0.5c-3.9,0-7.4,0.8-10.3,2.5c-3,1.7-5.3,4-6.8,7c-1.6,3-2.3,6.5-2.3,10.4
		c0,3.4,0.8,6.5,2.3,9.3c1.5,2.8,3.6,4.9,6.4,6.4c2.7,1.5,5.8,2.3,9.3,2.3c4,0,7.5-0.8,10.2-2.4l0.1-0.1v-7.8l-0.4,0.3
		c-1.3,0.9-2.7,1.6-4.2,2.2c-1.5,0.5-2.9,0.8-4.1,0.8c-3.3,0-6-1-8-3.1c-1.9-2.1-2.9-4.9-2.9-8.6c0-3.7,1-6.6,3.1-8.8
		c2-2.2,4.7-3.3,8-3.3c2.8,0,5.5,0.9,8.1,2.8l0.4,0.3v-8.2l-0.1-0.1C268.3,82.2,267,81.8,265.4,81.4z"/>
	<path class="st0" d="M293.4,81.2c-2.1,0-4,0.7-5.7,2c-1.4,1.2-2.5,2.8-3.3,4.8h-0.1v-6.3h-8.5v36.1h8.5V99.4c0-3.1,0.7-5.7,2.1-7.7
		c1.4-1.9,3.2-2.9,5.5-2.9c0.8,0,1.6,0.1,2.6,0.4c0.9,0.2,1.6,0.5,2,0.8l0.4,0.3v-8.6l-0.1-0.1C295.9,81.3,294.8,81.2,293.4,81.2z"
		/>
	<path class="st0" d="M316.4,80.9c-6,0-10.7,1.7-14.1,5.2c-3.4,3.4-5.1,8.2-5.1,14.2c0,5.7,1.7,10.2,5,13.5c3.3,3.3,7.8,5,13.3,5
		c5.8,0,10.4-1.8,13.8-5.3c3.4-3.5,5.1-8.2,5.1-14c0-5.7-1.6-10.3-4.8-13.6C326.5,82.6,322,80.9,316.4,80.9z M323.2,108.7
		c-1.6,2-4,3-7.1,3c-3.1,0-5.6-1-7.3-3.1c-1.7-2-2.6-5-2.6-8.7c0-3.8,0.9-6.8,2.6-8.9c1.7-2.1,4.2-3.1,7.2-3.1c3,0,5.4,1,7.1,3
		c1.7,2,2.6,5,2.6,8.8C325.6,103.7,324.8,106.7,323.2,108.7z"/>
	<path class="st0" d="M353.2,96.7c-2.7-1.1-4.4-2-5.1-2.7c-0.7-0.7-1-1.6-1-2.8c0-1.1,0.4-1.9,1.3-2.6c0.9-0.7,2.1-1,3.7-1
		c1.4,0,2.9,0.2,4.4,0.7c1.5,0.4,2.7,1,3.8,1.8l0.4,0.2v-7.9l-0.1-0.1c-1-0.4-2.3-0.8-3.9-1.1c-1.6-0.3-3-0.4-4.2-0.4
		c-4.1,0-7.4,1-10,3.1c-2.6,2.1-3.9,4.8-3.9,8c0,1.7,0.3,3.2,0.8,4.5c0.6,1.3,1.4,2.4,2.6,3.4c1.1,0.9,2.9,1.9,5.2,2.9
		c2,0.8,3.4,1.5,4.3,2c0.9,0.5,1.6,1.1,1.9,1.6c0.4,0.5,0.5,1.2,0.5,2c0,2.4-1.8,3.6-5.6,3.6c-1.4,0-3-0.3-4.7-0.9
		c-1.7-0.6-3.4-1.4-4.8-2.4l-0.4-0.3v8.3l0.1,0.1c1.2,0.6,2.8,1,4.6,1.4c1.8,0.4,3.4,0.6,4.9,0.6c4.4,0,7.9-1,10.5-3.1
		c2.6-2.1,3.9-4.8,3.9-8.2c0-2.4-0.7-4.5-2.1-6.2C359,99.6,356.6,98.1,353.2,96.7z"/>
	<path class="st0" d="M385.4,80.9c-6,0-10.7,1.7-14.1,5.2c-3.4,3.4-5.1,8.2-5.1,14.2c0,5.7,1.7,10.2,5,13.5c3.3,3.3,7.8,5,13.3,5
		c5.8,0,10.4-1.8,13.8-5.3c3.4-3.5,5.1-8.2,5.1-14c0-5.7-1.6-10.3-4.8-13.6C395.4,82.6,391,80.9,385.4,80.9z M392.1,108.7
		c-1.6,2-4,3-7.1,3c-3.1,0-5.6-1-7.3-3.1c-1.7-2-2.6-5-2.6-8.7c0-3.8,0.9-6.8,2.6-8.9c1.7-2.1,4.2-3.1,7.2-3.1c3,0,5.4,1,7.1,3
		c1.7,2,2.6,5,2.6,8.8C394.5,103.7,393.7,106.7,392.1,108.7z"/>
	<path class="st0" d="M448.6,88.7v-6.9H440V71l-0.3,0.1l-8.1,2.5l-0.2,0v8.2h-12.7v-4.5c0-2.1,0.5-3.7,1.4-4.8
		c0.9-1.1,2.3-1.6,3.9-1.6c1.2,0,2.5,0.3,3.7,0.9l0.3,0.1v-7.3l-0.1-0.1c-1.2-0.4-2.8-0.6-4.8-0.6c-2.5,0-4.8,0.5-6.8,1.6
		c-2,1.1-3.6,2.6-4.7,4.6c-1.1,2-1.6,4.2-1.6,6.7v5h-6v6.9h6v29.2h8.6V88.7h12.7v18.5c0,7.6,3.6,11.5,10.7,11.5
		c1.2,0,2.4-0.1,3.7-0.4c1.3-0.3,2.1-0.6,2.7-0.8l0.1-0.1v-7l-0.3,0.2c-0.5,0.3-1,0.6-1.7,0.8c-0.7,0.2-1.3,0.3-1.7,0.3
		c-1.7,0-2.9-0.4-3.7-1.3c-0.8-0.9-1.2-2.5-1.2-4.6v-17H448.6z"/>
</g>
<rect x="54.8" y="50.7" class="st1" width="40" height="40"/>
<rect x="98.9" y="50.7" class="st2" width="40" height="40"/>
<rect x="54.8" y="94.8" class="st3" width="40" height="40"/>
<rect x="98.9" y="94.8" class="st4" width="40" height="40"/>
</svg>
