<?xml version="1.0" encoding="utf-8"?>
<!-- Generator: Adobe Illustrator 16.0.4, SVG Export Plug-In . SVG Version: 6.00 Build 0)  -->
<!DOCTYPE svg PUBLIC "-//W3C//DTD SVG 1.1//EN" "http://www.w3.org/Graphics/SVG/1.1/DTD/svg11.dtd">
<svg version="1.1" id="Layer_1" xmlns="http://www.w3.org/2000/svg" xmlns:xlink="http://www.w3.org/1999/xlink" x="0px" y="0px"
	 width="209.989px" height="113.994px" viewBox="0 0 209.989 113.994" enable-background="new 0 0 209.989 113.994"
	 xml:space="preserve">
<g>
	<g>
		<g>
			<defs>
				<rect id="SVGID_5_" x="33.286" y="19.407" width="142.367" height="55.332"/>
			</defs>
			<clipPath id="SVGID_2_">
				<use xlink:href="#SVGID_5_"  overflow="visible"/>
			</clipPath>
			<g clip-path="url(#SVGID_2_)">
				<defs>
					<rect id="SVGID_7_" x="6.661" y="-11.146" width="195.618" height="126.11"/>
				</defs>
				<clipPath id="SVGID_4_">
					<use xlink:href="#SVGID_7_"  overflow="visible"/>
				</clipPath>
				<path clip-path="url(#SVGID_4_)" fill="#A24689" d="M57.371,26.754c3.236,0,6.293,0.645,9.168,1.933
					c2.874,1.289,5.401,3.023,7.582,5.203c2.18,2.181,3.915,4.726,5.204,7.632c1.288,2.909,1.932,6.013,1.932,9.316
					c0,3.305-0.628,6.394-1.883,9.268c-1.256,2.874-2.958,5.401-5.104,7.582c-2.148,2.181-4.675,3.898-7.582,5.153
					c-2.909,1.257-6.046,1.884-9.416,1.884c-3.305,0-6.41-0.595-9.316-1.784c-2.908-1.189-5.451-2.857-7.632-5.005
					c-2.18-2.146-3.899-4.674-5.154-7.583c-1.256-2.906-1.883-6.078-1.883-9.515c0-3.304,0.61-6.393,1.833-9.267
					c1.222-2.875,2.924-5.385,5.104-7.532c2.18-2.146,4.741-3.866,7.681-5.154C50.845,27.597,54.001,26.888,57.371,26.754
					 M57.272,36.565c-1.917,0-3.75,0.364-5.501,1.091c-1.751,0.728-3.27,1.735-4.559,3.023c-1.289,1.287-2.313,2.792-3.072,4.509
					c-0.76,1.719-1.14,3.603-1.14,5.649c0,1.917,0.379,3.751,1.14,5.501c0.759,1.752,1.784,3.288,3.072,4.608
					c1.289,1.322,2.808,2.364,4.559,3.123c1.75,0.76,3.583,1.14,5.501,1.14c1.916,0,3.749-0.38,5.501-1.14
					c1.75-0.759,3.271-1.801,4.559-3.123c1.289-1.32,2.312-2.856,3.072-4.608c0.759-1.75,1.14-3.584,1.14-5.501
					c-0.198-3.897-1.586-7.185-4.162-9.861c-2.578-2.676-5.915-4.146-10.011-4.411H57.272L57.272,36.565z"/>
				<path clip-path="url(#SVGID_4_)" fill="#231F20" d="M39.278,24.396c0,0,1.294-2.666,3.882-3.199
					c2.588-0.532,4.96,1.227,4.96,1.227l2.211,1.493l0.647,0.479c0,0,0.647-0.16,0.485-0.479c-0.162-0.32-0.107-2.293,1.618-3.146
					c0,0,1.079-0.693,4.799-1.173c0,0,1.348-0.213,1.726,0.533c0,0,0.377,0.611,0.485,1.852c0,0,0.377,0.252,0.755,0
					c0,0,0.971-1.318,1.725-1.638c0,0,0.701-0.214,1.995-0.054c0,0,2.049,0.853,3.235,1.865l1.294-2.587
					c0,0,0.162-0.398,0.916,0.241l5.877,5.544l0.431,0.479c0,0,0.377,1.013-0.377,1.546c0,0-0.377-0.214-1.186-1.226
					c-0.809-1.013-5.176-4.958-5.176-4.958l-0.755,1.279c0,0-0.27,0.906,0.162,1.333c0,0,0.809,1.386,0.593,2.292
					c0,0-0.054,0.8-0.701,0.32c0,0-1.51-1.066-2.804-1.066c0,0-1.024,0-1.726-0.32l-2.965-1.386l-0.377-0.234h-0.432
					c0,0-0.7,0.981-1.024,1.194c0,0,0.809,0.319,1.078,0.426c0,0,0.755,0.373,1.025,0.906c0.27,0.533,0.647,0.854,0.647,0.854
					s0.324,0.426,0.917,0.586c0.593,0.16,0.08,0.483-0.423,0.373c0,0-0.602-0.022-0.925-0.624c0,0-0.485-1.135-0.97-1.401
					c0,0-0.216-0.16-1.133-0.479c0,0-1.348-0.267-1.671-0.32l-0.485,0.374c0,0,0.701,0.372,1.078,0.959l0.54,0.868
					c0,0,0.377,0.411,0.62,0.491c0,0,0.62,0.532-0.377,0.452c0,0-0.512-0.106-0.701-0.719c0,0-0.054-1.572-1.429-1.546
					c0,0-0.458,0-1.213,0.347c0,0-1.294,0.133-2.399,0c0,0-0.188-0.022-0.458,0.975c0,0-0.351,0.8-0.943,0.951
					c0,0-0.377,0.036-0.647,0c-0.27-0.034-0.027-0.487,0.243-0.62c0,0,0.862-0.453,1.132-0.933c0.27-0.48,0.243-0.613,0.243-0.613
					s-0.62-0.507-1.375-0.479c-0.755,0.026-2.022,0.16-3.073,0.532c-1.052,0.374-4.799,1.162-4.799,1.162s-2.884,0.784-4.772,0.544
					c0,0-1.079-0.133-0.89-1.092C38.389,26.581,38.988,24.895,39.278,24.396"/>
				<path clip-path="url(#SVGID_4_)" fill="none" stroke="#231F20" stroke-width="0.252" stroke-miterlimit="10" d="M39.278,24.396
					c0,0,1.294-2.666,3.882-3.199c2.588-0.532,4.96,1.227,4.96,1.227l2.211,1.493l0.647,0.479c0,0,0.647-0.16,0.485-0.479
					c-0.162-0.32-0.107-2.293,1.618-3.146c0,0,1.079-0.693,4.799-1.173c0,0,1.348-0.213,1.726,0.533c0,0,0.377,0.611,0.485,1.852
					c0,0,0.377,0.252,0.755,0c0,0,0.971-1.318,1.725-1.638c0,0,0.701-0.214,1.995-0.054c0,0,2.049,0.853,3.235,1.865l1.294-2.587
					c0,0,0.162-0.398,0.916,0.241l5.877,5.544l0.431,0.479c0,0,0.377,1.013-0.377,1.546c0,0-0.377-0.214-1.186-1.226
					c-0.809-1.013-5.176-4.958-5.176-4.958l-0.755,1.279c0,0-0.27,0.906,0.162,1.333c0,0,0.809,1.386,0.593,2.292
					c0,0-0.054,0.8-0.701,0.32c0,0-1.51-1.066-2.804-1.066c0,0-1.024,0-1.726-0.32l-2.965-1.386l-0.377-0.234h-0.432
					c0,0-0.7,0.981-1.024,1.194c0,0,0.809,0.319,1.078,0.426c0,0,0.755,0.373,1.025,0.906c0.27,0.533,0.647,0.854,0.647,0.854
					s0.324,0.426,0.917,0.586c0.593,0.16,0.08,0.483-0.423,0.373c0,0-0.602-0.022-0.925-0.624c0,0-0.485-1.135-0.97-1.401
					c0,0-0.216-0.16-1.133-0.479c0,0-1.348-0.267-1.671-0.32l-0.485,0.374c0,0,0.701,0.372,1.078,0.959l0.54,0.868
					c0,0,0.377,0.411,0.62,0.491c0,0,0.62,0.532-0.377,0.452c0,0-0.512-0.106-0.701-0.719c0,0-0.054-1.572-1.429-1.546
					c0,0-0.458,0-1.213,0.347c0,0-1.294,0.133-2.399,0c0,0-0.188-0.022-0.458,0.975c0,0-0.351,0.8-0.943,0.951
					c0,0-0.377,0.036-0.647,0c-0.27-0.034-0.027-0.487,0.243-0.62c0,0,0.862-0.453,1.132-0.933c0.27-0.48,0.243-0.613,0.243-0.613
					s-0.62-0.507-1.375-0.479c-0.755,0.026-2.022,0.16-3.073,0.532c-1.052,0.374-4.799,1.162-4.799,1.162s-2.884,0.784-4.772,0.544
					c0,0-1.079-0.133-0.89-1.092C38.389,26.581,38.988,24.895,39.278,24.396z"/>
				<path clip-path="url(#SVGID_4_)" fill="#8F8F8F" d="M120.18,59.797c-0.336,0.14-0.645,0.318-0.927,0.523
					c-0.61,0.382-0.948,0.622-1.485,1.018c-0.046,0.034-0.235,0.168-0.235,0.168l-0.306,0.256c-2.497,2.061-6.121,3.354-9.586,3.354
					c-7.997,0-14.496-6.254-14.532-14.377c0.036-8.123,6.535-14.377,14.532-14.377c3.466,0,7.09,1.294,9.586,3.354l0.306,0.256
					c0,0,0.189,0.134,0.235,0.168c0.538,0.396,0.875,0.636,1.485,1.018c0.283,0.205,0.591,0.384,0.927,0.523
					c2.31,0.956,4.954-0.132,5.907-2.431c0.665-1.604,0.329-3.371-0.718-4.62c-0.218-0.301-0.473-0.582-0.76-0.861l-0.045-0.035
					l-0.08-0.079l-0.937-0.82c-4.41-3.715-9.959-5.864-16.08-5.864c-13.065,0-23.667,10.569-23.791,23.653h-0.006
					c0,0.025,0.001,0.051,0.001,0.076v0.002h-0.001c0,0.013,0,0.024,0,0.037c0,0.013,0,0.024,0,0.037h0.001v0.002
					c0,0.025-0.001,0.051-0.001,0.076h0.006c0.125,13.084,10.726,23.653,23.791,23.653c6.121,0,11.67-2.149,16.08-5.863l0.937-0.82
					l0.08-0.08l0.045-0.035c0.288-0.278,0.542-0.561,0.76-0.861c1.047-1.249,1.383-3.017,0.718-4.62
					C125.134,59.929,122.489,58.841,120.18,59.797"/>
				<path clip-path="url(#SVGID_4_)" fill="#8F8F8F" d="M173.991,41.537c-1.322-2.909-3.106-5.451-5.352-7.632
					c-2.247-2.181-4.807-3.915-7.681-5.203c-2.875-1.288-5.897-1.934-9.069-1.934c-3.238,0-6.311,0.628-9.218,1.884
					c-2.909,1.255-5.451,2.974-7.632,5.154c-2.18,2.18-3.915,4.723-5.203,7.632c-1.288,2.906-1.933,6.012-1.933,9.315
					c0,0.113,0.006,0.221,0.007,0.332h-0.007c0.001,0.171,0.012,0.339,0.017,0.509c0.006,0.232,0.013,0.465,0.024,0.694
					c0,0.014,0.002,0.027,0.002,0.041c0.147,2.923,0.708,5.537,1.691,7.84c0.74,1.735,1.721,3.402,2.937,5.003
					c4.269,5.808,11.069,9.566,18.733,9.566c0.118,0,0.234-0.006,0.352-0.008c0.109,0.002,0.218,0.008,0.328,0.008
					c0.358,0,0.733-0.028,1.117-0.07c4.88-0.353,9.337-2.131,13.057-5.011v0.046c0,0.66,0.131,1.289,0.396,1.884
					c0.263,0.595,0.61,1.14,1.041,1.635c0.429,0.496,0.941,0.876,1.537,1.141c0.594,0.263,1.189,0.362,1.784,0.297h0.396
					c1.123,0.065,2.18-0.381,3.172-1.338c0.991-0.959,1.167-1.999,1.167-3.122V50.754C175.653,47.516,175.312,44.443,173.991,41.537
					 M138.756,45.204c0.759-1.719,1.784-3.221,3.072-4.509c1.288-1.289,2.808-2.314,4.559-3.072c1.75-0.761,3.584-1.14,5.501-1.14
					c1.916,0,3.732,0.379,5.451,1.14c1.717,0.758,3.236,1.783,4.559,3.072c1.321,1.288,2.362,2.79,3.123,4.509
					c0.758,1.718,1.14,3.888,1.14,5.869c0,1.785-0.381,3.535-1.14,5.254c-0.761,1.718-1.801,3.254-3.123,4.608
					c-1.226,1.255-2.622,2.267-4.187,3.039c-1.862,0.84-3.948,1.331-5.99,1.367c-1.857-0.021-3.635-0.398-5.335-1.135
					c-1.751-0.761-3.271-1.784-4.559-3.072s-2.313-2.81-3.072-4.56c-0.761-1.752-1.14-3.586-1.14-5.501
					C137.617,49.092,137.996,46.922,138.756,45.204"/>
			</g>
		</g>
	</g>
	<g>
		<path fill="#8F8F8F" d="M45.405,87.371c-1.02-1.069-2.665-1.604-4.935-1.604c-1.73,0-3.175,0.324-4.335,0.975
			c-1.34,0.77-2.01,1.875-2.01,3.314c0,1.431,0.64,2.525,1.92,3.285c1.11,0.65,2.51,0.975,4.2,0.975c2.19,0,3.85-0.539,4.98-1.619
			l1.035,0.449c-1.48,1.391-3.48,2.086-6,2.086c-1.93,0-3.54-0.365-4.83-1.096c-1.6-0.91-2.4-2.25-2.4-4.02
			c0-1.82,0.825-3.2,2.475-4.141c1.34-0.75,2.995-1.125,4.965-1.125c2.62,0,4.605,0.686,5.955,2.055L45.405,87.371z"/>
		<path fill="#8F8F8F" d="M62.79,94.136c-1.29,0.73-2.93,1.096-4.92,1.096c-1.97,0-3.6-0.36-4.89-1.08
			c-1.61-0.91-2.415-2.28-2.415-4.11c0-1.79,0.81-3.13,2.43-4.021c1.26-0.68,2.885-1.02,4.875-1.02c1.99,0,3.615,0.34,4.875,1.02
			c1.63,0.881,2.445,2.221,2.445,4.021C65.189,91.861,64.389,93.226,62.79,94.136z M62.145,86.801
			c-1.08-0.59-2.505-0.885-4.275-0.885c-1.67,0-3.04,0.271-4.11,0.81c-1.39,0.711-2.085,1.815-2.085,3.315
			c0,1.46,0.645,2.565,1.935,3.315c1.11,0.64,2.53,0.959,4.26,0.959c1.68,0,3.065-0.289,4.155-0.869
			c1.38-0.74,2.07-1.875,2.07-3.405C64.094,88.591,63.444,87.511,62.145,86.801z"/>
		<path fill="#8F8F8F" d="M83.474,95.126v-8.505l-5.955,8.505h-0.825l-5.955-8.505v8.505h-1.095v-10.17h1.2l6.255,8.939l6.285-8.939
			h1.185v10.17H83.474z"/>
		<path fill="#8F8F8F" d="M103.364,95.126v-8.505l-5.955,8.505h-0.825l-5.955-8.505v8.505h-1.095v-10.17h1.2l6.255,8.939
			l6.285-8.939h1.185v10.17H103.364z"/>
		<path fill="#8F8F8F" d="M119.264,94.556c-0.92,0.45-2.235,0.676-3.945,0.676c-1.72,0-3.045-0.23-3.975-0.69
			c-1.28-0.63-1.92-1.72-1.92-3.271v-6.314h1.095v6.3c0,2.04,1.6,3.06,4.8,3.06c3.2,0,4.8-1,4.8-3v-6.359h1.095v6.345
			C121.214,92.831,120.564,93.916,119.264,94.556z"/>
		<path fill="#8F8F8F" d="M137.189,95.126l-9.93-8.805v8.805h-1.095v-10.17h1.095c1.16,1.08,2.82,2.555,4.98,4.425
			c2.32,2.001,3.975,3.45,4.965,4.351v-8.775h1.095v10.17H137.189z"/>
		<path fill="#8F8F8F" d="M143.234,95.126v-10.17h1.095v10.17H143.234z"/>
		<path fill="#8F8F8F" d="M154.499,85.871v9.255h-1.095v-9.255h-5.265v-0.915h11.61v0.915H154.499z"/>
		<path fill="#8F8F8F" d="M169.664,90.28v4.846h-1.095V90.28l-6.75-5.324h1.59l5.7,4.47l5.7-4.47h1.575L169.664,90.28z"/>
	</g>
</g>
</svg>
