<?xml version="1.0" encoding="UTF-8" standalone="no"?>
<svg
   xmlns:dc="http://purl.org/dc/elements/1.1/"
   xmlns:cc="http://creativecommons.org/ns#"
   xmlns:rdf="http://www.w3.org/1999/02/22-rdf-syntax-ns#"
   xmlns:svg="http://www.w3.org/2000/svg"
   xmlns="http://www.w3.org/2000/svg"
   viewBox="0 0 875 500"
   height="500"
   width="875"
   xml:space="preserve"
   version="1.1"
   id="svg3398"><metadata
     id="metadata3404"><rdf:RDF><cc:Work
         rdf:about=""><dc:format>image/svg+xml</dc:format><dc:type
           rdf:resource="http://purl.org/dc/dcmitype/StillImage" /><dc:title></dc:title></cc:Work></rdf:RDF></metadata><defs
     id="defs3402" /><g
     transform="matrix(1.25,0,0,-1.25,0,500)"
     id="g3406"><g
       transform="scale(0.1,0.1)"
       id="g3408"><path
         id="path3410"
         style="fill:#ffffff;fill-opacity:1;fill-rule:nonzero;stroke:none"
         d="m 0,0 7000,0 0,4000 L 0,4000 0,0 Z" /><path
         id="path3412"
         style="fill:#88c532;fill-opacity:1;fill-rule:nonzero;stroke:none"
         d="m 1772.72,2594.4 c 6.93,0 13.91,-2.35 20.59,-6.95 -51.45,-24.21 -106.6,-85.19 -129.89,-206.96 -34.04,-10.54 -67.31,-20.84 -98.07,-30.37 27.28,92.88 92.06,244.28 207.37,244.28 z m 47.7,-45.15 c 9.87,-24.74 16.29,-60.24 16.29,-108.15 0,-2.45 -0.02,-4.69 -0.04,-6.96 -39.08,-12.1 -81.52,-25.24 -124.07,-38.42 23.89,92.2 68.67,136.73 107.82,153.53 z m 118.43,-83.49 c -17.83,-5.52 -38.1,-11.79 -60.07,-18.59 0.02,4.23 0.03,8.4 0.03,12.95 0,39.7 -5.5,71.66 -14.35,97 35.52,-4.46 59.17,-44.86 74.39,-91.36 z m 288.32,-70.67 c -0.86,6.26 -6.34,9.72 -10.87,10.1 -4.52,0.38 -100.2,7.47 -100.2,7.47 0,0 -66.45,65.97 -73.74,73.27 -7.3,7.29 -21.55,5.08 -27.08,3.45 -0.82,-0.24 -14.52,-4.47 -37.19,-11.48 -22.2,63.87 -61.37,122.57 -130.29,122.57 -1.9,0 -3.86,-0.08 -5.83,-0.19 -19.59,25.92 -43.87,37.18 -64.84,37.18 -160.54,0 -237.24,-200.69 -261.29,-302.68 -62.38,-19.33 -106.7,-33.07 -112.36,-34.85 -34.83,-10.92 -35.92,-12.02 -40.49,-44.83 -3.45,-24.84 -94.56,-729.44 -94.56,-729.44 l 709.95,-133.02 384.68,83.22 c 0,0 -135.04,912.97 -135.89,919.23" /><path
         id="path3414"
         style="fill:#538f31;fill-opacity:1;fill-rule:nonzero;stroke:none"
         d="m 2216.3,2405.19 c -4.52,0.38 -100.2,7.47 -100.2,7.47 0,0 -66.45,65.97 -73.74,73.26 -2.73,2.73 -6.41,4.12 -10.26,4.72 l -53.68,-1097.99 384.64,83.21 c 0,0 -135.04,912.96 -135.89,919.23 -0.86,6.26 -6.34,9.72 -10.87,10.1" /><path
         id="path3416"
         style="fill:#ffffff;fill-opacity:1;fill-rule:nonzero;stroke:none"
         d="m 1847.8,2192.64 -47.43,-141.09 c 0,0 -41.56,22.18 -92.5,22.18 -74.68,0 -78.44,-46.87 -78.44,-58.68 0,-64.44 167.97,-89.13 167.97,-240.07 0,-118.75 -75.31,-195.22 -176.87,-195.22 -121.88,0 -184.19,75.85 -184.19,75.85 l 32.63,107.81 c 0,0 64.06,-55 118.12,-55 35.31,0 49.69,27.81 49.69,48.13 0,84.06 -137.81,87.81 -137.81,225.93 0,116.25 83.43,228.75 251.87,228.75 64.9,0 96.96,-18.59 96.96,-18.59" /><path
         id="path3418"
         style="fill:#100f0d;fill-opacity:1;fill-rule:nonzero;stroke:none"
         d="m 2811.49,1928.14 c -38.37,20.82 -58.09,38.36 -58.09,62.48 0,30.69 27.4,50.42 70.15,50.42 49.79,0 94.26,-20.83 94.26,-20.83 l 35.08,107.42 c 0,0 -32.25,25.21 -127.15,25.21 -132.09,0 -223.61,-75.63 -223.61,-181.96 0,-60.28 42.75,-106.32 99.75,-139.2 46.04,-26.3 62.48,-44.94 62.48,-72.35 0,-28.5 -23.02,-51.51 -65.77,-51.51 -63.69,0 -123.86,32.88 -123.86,32.88 l -37.27,-107.42 c 0,0 55.57,-37.26 149.07,-37.26 135.93,0 233.48,66.86 233.48,187.43 0,64.67 -49.33,110.71 -108.52,144.69" /><path
         id="path3420"
         style="fill:#100f0d;fill-opacity:1;fill-rule:nonzero;stroke:none"
         d="m 3352.97,2153.94 c -66.86,0 -119.47,-31.79 -160.03,-80.02 l -2.19,1.1 58.09,303.62 -151.26,0 -146.88,-772.76 151.26,0 50.43,264.16 c 19.73,99.75 71.24,161.13 119.47,161.13 33.98,0 47.14,-23.01 47.14,-55.9 0,-20.82 -2.2,-46.03 -6.58,-66.86 l -57,-302.53 151.27,0 59.18,312.39 c 6.58,32.89 10.97,72.35 10.97,98.65 0,85.5 -44.95,137.02 -123.87,137.02" /><path
         id="path3422"
         style="fill:#100f0d;fill-opacity:1;fill-rule:nonzero;stroke:none"
         d="m 3744.3,1711.11 c -51.52,0 -73.44,43.84 -73.44,98.64 0,86.6 44.94,228 127.15,228 53.7,0 71.24,-46.04 71.24,-90.98 0,-93.17 -44.94,-235.66 -124.95,-235.66 z m 74.53,442.83 c -181.95,0 -302.52,-164.42 -302.52,-347.47 0,-117.29 72.34,-211.55 208.26,-211.55 178.66,0 299.23,160.03 299.23,347.47 0,108.51 -63.57,211.55 -204.97,211.55" /><path
         id="path3424"
         style="fill:#100f0d;fill-opacity:1;fill-rule:nonzero;stroke:none"
         d="m 4266.06,1708.92 c -39.28,0 -62.48,21.91 -62.48,21.91 l 25.21,141.41 c 17.54,94.26 66.86,156.74 119.48,156.74 46.03,0 60.28,-42.75 60.28,-83.3 0,-97.56 -58.09,-236.76 -142.49,-236.76 z m 144.69,445.02 c -102.1,0 -160.04,-89.88 -160.04,-89.88 l -2.19,0 8.77,81.11 -133.72,0 c -6.58,-54.81 -18.64,-138.11 -30.7,-200.59 l -105.23,-553.54 151.27,0 41.65,223.61 3.29,0 c 0,0 31.05,-19.73 88.79,-19.73 177.57,0 293.75,181.95 293.75,366.1 0,101.94 -44.94,192.92 -155.64,192.92" /><path
         id="path3426"
         style="fill:#100f0d;fill-opacity:1;fill-rule:nonzero;stroke:none"
         d="m 4782.34,2370.97 c -48.22,0 -86.59,-38.36 -86.59,-87.69 0,-44.94 28.5,-75.64 71.25,-75.64 l 2.19,0 c 47.13,0 87.69,31.8 88.79,87.69 0,43.85 -29.6,75.64 -75.64,75.64" /><path
         id="path3428"
         style="fill:#100f0d;fill-opacity:1;fill-rule:nonzero;stroke:none"
         d="m 4570.79,1605.88 151.27,0 103.03,536 -152.36,0 -101.94,-536" /><path
         id="path3430"
         style="fill:#100f0d;fill-opacity:1;fill-rule:nonzero;stroke:none"
         d="m 5209.82,2142.98 -105.23,0 5.48,25.21 c 8.77,51.51 39.46,97.55 89.89,97.55 26.92,0 48.22,-7.67 48.22,-7.67 l 29.6,118.38 c 0,0 -26.31,13.15 -82.21,13.15 -53.71,0 -107.42,-15.35 -147.98,-50.42 -51.52,-43.85 -75.63,-107.42 -87.69,-170.99 l -4.38,-25.21 -70.15,0 -21.92,-114 70.15,0 -80.02,-423.1 151.26,0 80.02,423.1 104.13,0 20.83,114" /><path
         id="path3432"
         style="fill:#100f0d;fill-opacity:1;fill-rule:nonzero;stroke:none"
         d="m 5573.73,2141.88 c 0,0 -94.55,-238.25 -137.01,-368.3 l -2.19,0 c -2.91,41.87 -37.27,368.3 -37.27,368.3 l -158.94,0 90.98,-492.16 c 2.19,-10.95 1.1,-17.53 -3.29,-25.21 -17.54,-33.98 -47.13,-66.86 -82.21,-90.97 -28.49,-20.83 -60.28,-33.98 -85.49,-42.75 l 41.65,-128.25 c 30.69,6.58 94.27,31.79 147.97,82.21 69.06,64.67 132.63,164.42 198.4,300.34 l 185.24,396.79 -157.84,0" /></g></g></svg>