<svg xmlns="http://www.w3.org/2000/svg" width="446.314" height="127.493" viewBox="0 0 446.314 127.493">
  <title>Asset 1</title>
  <g>
    <g>
      <path d="M95.874,24.238a1.2,1.2,0,0,0-1.087-1.011c-.452-.038-10.02-.747-10.02-.747s-6.645-6.6-7.374-7.326a3.023,3.023,0,0,0-2.708-.346c-.082.024-1.452.447-3.719,1.148C68.746,9.569,64.829,3.7,57.938,3.7c-.191,0-.387.009-.583.02C55.4,1.126,52.967,0,50.87,0,34.816,0,27.146,20.07,24.741,30.268,18.5,32.2,14.071,33.575,13.505,33.753c-3.482,1.093-3.592,1.2-4.048,4.483C9.111,40.72,0,111.181,0,111.181l71,13.3,38.467-8.322S95.96,24.864,95.874,24.238ZM67.042,17.17l-6.006,1.859c0-.423,0-.839,0-1.295a29.468,29.468,0,0,0-1.435-9.7C63.155,8.48,65.52,12.521,67.042,17.17ZM55.2,8.821a29.813,29.813,0,0,1,1.628,10.815c0,.245,0,.469,0,.7L44.417,24.174C46.807,14.954,51.284,10.5,55.2,8.821ZM50.429,4.307A3.629,3.629,0,0,1,52.489,5C47.343,7.423,41.828,13.521,39.5,25.7l-9.807,3.037C32.421,19.446,38.9,4.307,50.429,4.307Z" fill="#95bf47"/>
      <path d="M94.787,23.227c-.452-.038-10.02-.747-10.02-.747s-6.645-6.6-7.374-7.326a1.818,1.818,0,0,0-1.026-.472L71,124.481l38.464-8.321s-13.5-91.3-13.589-91.922A1.2,1.2,0,0,0,94.787,23.227Z" fill="#5e8e3e"/>
      <path d="M57.937,44.482,53.2,58.592a21.819,21.819,0,0,0-9.25-2.219c-7.469,0-7.844,4.687-7.844,5.868,0,6.444,16.8,8.913,16.8,24.007,0,11.875-7.532,19.522-17.688,19.522-12.187,0-18.419-7.585-18.419-7.585L20.054,87.4s6.406,5.5,11.812,5.5a4.765,4.765,0,0,0,4.969-4.812c0-8.407-13.781-8.782-13.781-22.594,0-11.625,8.344-22.875,25.187-22.875C54.731,42.623,57.937,44.482,57.937,44.482Z" fill="#fff"/>
    </g>
    <path d="M154.306,70.932C150.47,68.85,148.5,67.1,148.5,64.684c0-3.069,2.74-5.041,7.015-5.041a25.074,25.074,0,0,1,9.427,2.082l3.507-10.742s-3.225-2.521-12.715-2.521c-13.208,0-22.361,7.563-22.361,18.2,0,6.028,4.275,10.632,9.975,13.92,4.6,2.631,6.248,4.495,6.248,7.235,0,2.85-2.3,5.152-6.577,5.152a29.547,29.547,0,0,1-12.386-3.289L126.9,100.418s5.557,3.727,14.908,3.727c13.592,0,23.347-6.686,23.347-18.743C165.158,78.934,160.225,74.33,154.306,70.932Z"/>
    <path d="M208.454,48.353c-6.686,0-11.947,3.178-16,8l-.219-.109,5.81-30.363H182.915l-14.688,77.276h15.127L188.4,76.742c1.973-9.975,7.125-16.113,11.948-16.113,3.4,0,4.713,2.3,4.713,5.59a34.615,34.615,0,0,1-.658,6.687l-5.7,30.252h15.127l5.919-31.239a56.528,56.528,0,0,0,1.1-9.865C220.841,53.5,216.346,48.353,208.454,48.353Z"/>
    <path d="M255.041,48.353c-18.2,0-30.253,16.441-30.253,34.746,0,11.729,7.234,21.155,20.826,21.155,17.867,0,29.924-16,29.924-34.747C275.538,58.656,269.18,48.353,255.041,48.353Zm-7.454,44.283c-5.152,0-7.344-4.385-7.344-9.865,0-8.66,4.494-22.8,12.715-22.8,5.371,0,7.124,4.6,7.124,9.1C260.082,78.387,255.589,92.636,247.587,92.636Z"/>
    <path d="M314.232,48.353c-10.209,0-16,8.988-16,8.988h-.219l.877-8.112H285.514c-.658,5.481-1.864,13.811-3.07,20.059l-10.523,55.354h15.127l4.165-22.36h.329s3.106,1.972,8.879,1.972c17.757,0,29.375-18.2,29.375-36.61C329.8,57.451,325.3,48.353,314.232,48.353Zm-14.469,44.5a9.6,9.6,0,0,1-6.248-2.192l2.522-14.14c1.753-9.427,6.686-15.675,11.947-15.675,4.6,0,6.028,4.275,6.028,8.33C314.012,78.934,308.2,92.855,299.763,92.855Z"/>
    <path d="M351.391,26.649a8.633,8.633,0,0,0-8.659,8.769c0,4.495,2.85,7.564,7.125,7.564h.219a8.543,8.543,0,0,0,8.879-8.769A7.192,7.192,0,0,0,351.391,26.649Z"/>
    <polygon points="330.236 103.158 345.363 103.158 355.666 49.558 340.431 49.558 330.236 103.158"/>
    <path d="M394.139,49.449H383.616l.548-2.521c.877-5.152,3.946-9.756,8.989-9.756a15.761,15.761,0,0,1,4.822.767l2.96-11.838s-2.631-1.315-8.221-1.315a22.458,22.458,0,0,0-14.8,5.042c-5.152,4.385-7.563,10.742-8.769,17.1l-.439,2.521h-7.015l-2.192,11.4h7.015l-8,42.31h15.127l8-42.31h10.413Z"/>
    <path d="M430.53,49.558s-9.455,23.825-13.7,36.83h-.219c-.29-4.187-3.727-36.83-3.727-36.83H396.989l9.1,49.216a3.216,3.216,0,0,1-.329,2.521,25.868,25.868,0,0,1-8.221,9.1,32.683,32.683,0,0,1-8.549,4.275l4.165,12.826a34.555,34.555,0,0,0,14.8-8.222c6.9-6.467,13.262-16.442,19.839-30.033l18.524-39.68Z"/>
  </g>
</svg>
