<?xml version="1.0" encoding="UTF-8"?>
<!-- Generator: Adobe Illustrator 22.1.0, SVG Export Plug-In . SVG Version: 6.00 Build 0)  -->
<svg version="1.1" id="Layer_1" xmlns="http://www.w3.org/2000/svg" xmlns:xlink="http://www.w3.org/1999/xlink" x="0px" y="0px" viewBox="0 0 168.3 218.6" style="enable-background:new 0 0 168.3 218.6;" xml:space="preserve">
<style type="text/css">
	.st0{fill:#E5176B;}
	.st1{fill:#934AF4;}
	.st2{fill:#231F20;}
</style>
<title>TopHat_Lockup_FullColor_RGB</title>
<polygon class="st0" points="142.9,39.2 142.9,0 25.4,0 25.4,39.2 142.9,39.2 "/>
<polygon class="st1" points="64.6,156.8 103.7,156.8 103.7,117.6 64.6,117.6 64.6,156.8 "/>
<polygon class="st0" points="102.1,78.4 103.7,78.4 103.7,59.5 103.7,0 64.6,0 64.6,78.4 65.2,78.4 102.1,78.4 "/>
<polygon class="st1" points="103.7,0 103.7,39.2 25.4,39.2 25.4,0 103.7,0 "/>
<path class="st2" d="M36,218.6c-6.7,0-10.9-4.8-10.9-11.5s4.1-11.5,10.9-11.5s10.9,4.8,10.9,11.5S42.7,218.6,36,218.6z M36,199.4  c-4.1,0-6.4,3.2-6.4,7.7s2.2,7.7,6.4,7.7s6.4-3.2,6.4-7.7S40.1,199.4,36,199.4z"/>
<path class="st2" d="M67.1,209.3H61l-0.3,0.3v8.3l-0.3,0.3h-3.8l-0.3-0.3v-21.7l0.3-0.3h10.6c4.5,0,7.7,2.2,7.7,6.7  S71.6,209.3,67.1,209.3z M67.1,199.7H61l-0.3,0.3v5.1l0.3,0.3h6.1c1.9,0,3.2-0.6,3.2-2.9S69,199.7,67.1,199.7L67.1,199.7z"/>
<polygon class="st2" points="113.6,195.9 109.8,195.9 109.5,196.2 109.5,204.2 109.1,204.6 100,204.6 100,209 109.1,209   109.5,209.3 109.5,217.9 109.8,218.2 113.6,218.2 113.9,217.9 113.9,196.2 113.6,195.9 "/>
<path class="st2" d="M143.4,218.2h-2.9l-0.3-0.3l-1.6-4.1l-0.6-0.3h-8l-0.6,0.3l-1.6,4.1l-0.3,0.3h-2.9l-0.3-0.3v-3.2l7.3-18.5  l0.3-0.3h4.1l0.3,0.3l7.3,18.5v3.2L143.4,218.2L143.4,218.2z M134.1,201.6h-0.3l-2.9,7.7l0.3,0.3h5.4l0.3-0.3L134.1,201.6z"/>
<polygon class="st2" points="168,199.7 161.6,199.7 161.3,200.1 161.3,217.9 160.9,218.2 157.1,218.2 156.8,217.9 156.8,200.1   156.5,199.7 150.1,199.7 149.8,199.4 149.8,196.2 150.1,195.9 168,195.9 168.3,196.2 168.3,199.4 168,199.7 "/>
<polygon class="st2" points="18.2,199.7 11.8,199.7 11.5,200.1 11.5,217.9 11.2,218.2 7.3,218.2 7,217.9 7,200.1 6.7,199.7   0.3,199.7 0,199.4 0,196.2 0.3,195.9 18.2,195.9 18.5,196.2 18.5,199.4 18.2,199.7 "/>
<polygon class="st2" points="100,196.2 100,204.6 95.8,204.6 95.5,204.2 95.5,196.2 95.8,195.9 99.7,195.9 100,196.2 "/>
<polygon class="st2" points="100,209 100,217.9 99.7,218.2 95.8,218.2 95.5,217.9 95.5,209.3 95.8,209 100,209 "/>
<head xmlns=""/></svg>