<?xml version="1.0" encoding="utf-8"?>
<!-- Generator: Adobe Illustrator 22.1.0, SVG Export Plug-In . SVG Version: 6.00 Build 0)  -->
<svg version="1.1" id="Layer_1" xmlns="http://www.w3.org/2000/svg" xmlns:xlink="http://www.w3.org/1999/xlink" x="0px" y="0px"
	 width="991px" height="197px" viewBox="0 0 991 197" style="enable-background:new 0 0 991 197;" xml:space="preserve">
<style type="text/css">
	.st0{fill:#2F2F2F;}
</style>
<g>
	<path class="st0" d="M115.8,81H75.4v49.6c0,15.9,1.9,27.6,21.8,27.6c4.9,0,14.7-0.6,18.7-4.3v38.3c-10.1,3.7-21.4,4.6-32.2,4.6
		c-30.6,0-54.2-12.6-54.2-45.1V81H0V44.2h29.4V0.1h46v44.1h40.5V81z"/>
	<path class="st0" d="M282.5,193.2h-44.1V173h-0.6c-6.1,11.6-21.1,23.9-43.5,23.9c-46.6,0-55.1-30.7-55.1-70.5V44.2h45.9v72.9
		c0,17.2,0.3,39.2,23.9,39.2c23.9,0,27.6-18.7,27.6-38V44.2h45.9V193.2z"/>
	<path class="st0" d="M406.6,92.4C402.1,85.9,393.5,81,384,81c-23,0-36.8,15.3-36.8,37.7c0,22.4,13.8,37.7,36.8,37.7
		c10.1,0,17.5-5.2,22.7-11.3l30.3,31.9c-14.4,14.7-35.5,19.9-53,19.9c-46,0-82.7-30.7-82.7-78.1S338,40.6,384,40.6
		c17.5,0,38.6,5.2,53,19.9L406.6,92.4z"/>
	<path class="st0" d="M527.7,40.6c46,0,82.7,30.7,82.7,78.1s-36.8,78.1-82.7,78.1c-46,0-82.7-30.7-82.7-78.1S481.7,40.6,527.7,40.6z
		 M527.7,156.4c23,0,36.8-15.3,36.8-37.7c0-22.4-13.8-37.7-36.8-37.7c-23,0-36.8,15.3-36.8,37.7
		C490.9,141.1,504.7,156.4,527.7,156.4z"/>
	<path class="st0" d="M607.4,44.2h49l30.4,93.5h0.6l25.4-93.5H763l27.6,93.5h0.6l27.9-93.5h46.6l-53,148.9h-45.3l-31-99h-0.6
		l-27.6,99h-46.3L607.4,44.2z"/>
	<path class="st0" d="M957,88.1c-6.7-8.3-15.6-12.6-26.7-12.6c-7.7,0-16.9,3.4-16.9,12.2c0,22.1,77.5,3.4,77.5,60.1
		c0,38-36.8,49-68.6,49c-20.8,0-43.8-5.2-58.5-20.2l27.9-31c8.6,10.4,18.7,16.2,32.5,16.2c10.4,0,20.8-2.7,20.8-10.7
		c0-23.9-77.5-3.7-77.5-60.4c0-34.9,31.3-50.3,62.5-50.3c19.6,0,41.4,4.9,55.2,19.6L957,88.1z"/>
	<path class="st0" d="M115.8,81H75.4v49.6c0,15.9,1.9,27.6,21.8,27.6c4.9,0,14.7-0.6,18.7-4.3v38.3c-10.1,3.7-21.4,4.6-32.2,4.6
		c-30.6,0-54.2-12.6-54.2-45.1V81H0V44.2h29.4V0.1h46v44.1h40.5V81z"/>
	<path class="st0" d="M282.5,193.2h-44.1V173h-0.6c-6.1,11.6-21.1,23.9-43.5,23.9c-46.6,0-55.1-30.7-55.1-70.5V44.2h45.9v72.9
		c0,17.2,0.3,39.2,23.9,39.2c23.9,0,27.6-18.7,27.6-38V44.2h45.9V193.2z"/>
	<path class="st0" d="M406.6,92.4C402.1,85.9,393.5,81,384,81c-23,0-36.8,15.3-36.8,37.7c0,22.4,13.8,37.7,36.8,37.7
		c10.1,0,17.5-5.2,22.7-11.3l30.3,31.9c-14.4,14.7-35.5,19.9-53,19.9c-46,0-82.7-30.7-82.7-78.1S338,40.6,384,40.6
		c17.5,0,38.6,5.2,53,19.9L406.6,92.4z"/>
	<path class="st0" d="M527.7,40.6c46,0,82.7,30.7,82.7,78.1s-36.8,78.1-82.7,78.1c-46,0-82.7-30.7-82.7-78.1S481.7,40.6,527.7,40.6z
		 M527.7,156.4c23,0,36.8-15.3,36.8-37.7c0-22.4-13.8-37.7-36.8-37.7c-23,0-36.8,15.3-36.8,37.7
		C490.9,141.1,504.7,156.4,527.7,156.4z"/>
	<path class="st0" d="M607.4,44.2h49l30.4,93.5h0.6l25.4-93.5H763l27.6,93.5h0.6l27.9-93.5h46.6l-53,148.9h-45.3l-31-99h-0.6
		l-27.6,99h-46.3L607.4,44.2z"/>
	<path class="st0" d="M957,88.1c-6.7-8.3-15.6-12.6-26.7-12.6c-7.7,0-16.9,3.4-16.9,12.2c0,22.1,77.5,3.4,77.5,60.1
		c0,38-36.8,49-68.6,49c-20.8,0-43.8-5.2-58.5-20.2l27.9-31c8.6,10.4,18.7,16.2,32.5,16.2c10.4,0,20.8-2.7,20.8-10.7
		c0-23.9-77.5-3.7-77.5-60.4c0-34.9,31.3-50.3,62.5-50.3c19.6,0,41.4,4.9,55.2,19.6L957,88.1z"/>
</g>
</svg>
