<?xml version="1.0" encoding="utf-8"?>
<!-- Generator: Adobe Illustrator 22.1.0, SVG Export Plug-In . SVG Version: 6.00 Build 0)  -->
<svg version="1.1" id="Layer_1" xmlns="http://www.w3.org/2000/svg" xmlns:xlink="http://www.w3.org/1999/xlink" x="0px" y="0px"
	 viewBox="0 0 1920 1080" style="enable-background:new 0 0 1920 1080;" xml:space="preserve">
<style type="text/css">
	.st0{fill:#1F65A6;}
	.st1{fill:#328FF8;}
	.st2{fill:#111111;}
	.st3{fill:#76C3FC;}
</style>
<path class="st0" d="M200.7,664.5l2.4,0.8c28.5,9.2,59-5.5,67.7-32.7L303.1,527c8.7-27.1-7.5-56.8-36-66l-2.4-0.8
	c-28.5-9.2-59,5.5-67.7,32.7l-32.3,105.6C155.9,625.6,172.1,655.3,200.7,664.5z"/>
<path class="st1" d="M410.2,680.7c6.7-15.7,11.6-33.8,16.7-49.9c11.3-35.4,21.2-71.5,32-107.1c4.6-14.9,9.1-29.9,13.6-44.8
	c10-31-5.2-63.8-33.8-73l-2.4-0.8c-28.5-9.1-59.8,8.6-69.9,39.4l-60.9,202.9c-8.4,26.1-28.2,45.1-51.2,52.5
	c-1.8,0.6-3.6,1.1-5.5,1.5c-11.8,2.8-24.2,2.5-36.2-1.4l-2.4-0.8c-1.9-0.6-3.7-1.4-5.5-2.1c12.6,18.1,37.9,37.4,67.6,47.2
	c33,10.8,70.9,6,99.4-13.9C390.3,717.5,401.7,700.6,410.2,680.7z"/>
<path class="st2" d="M1088,463.5c-25.7-4.6-37.6,2.5-37.6,2.5c-8.3,4.5-10,13.7-10,13.7l-37.9,135.2c-0.3-0.9-0.7-1.9-1-2.8
	c-0.9-2.6-1.9-5.1-2.8-7.7c-1.4-3.9-2.8-7.7-4.2-11.6c-1.8-4.8-3.5-9.7-5.3-14.5c-2-5.5-4-11-6-16.5c-2.1-5.8-4.2-11.6-6.3-17.4
	c-2.1-5.8-4.2-11.6-6.3-17.4c-2-5.5-4-10.9-5.9-16.4c-1.7-4.8-3.5-9.6-5.2-14.4c-1.4-3.8-2.8-7.6-4.1-11.4c-0.9-2.5-1.8-5-2.7-7.5
	c-1.4-3.9-3.5-7.7-6.8-10.4c-3.8-3.1-9.1-4.4-13.8-5.1c-1.8-0.3-3.7-0.4-5.5-0.4c-11.3,0.2-17.7,3.4-21.3,6c-2.5,1.8-4.1,4.4-5,7.3
	l-43.6,137.2c0,0-40.4-132.3-40.4-132.4c-2.2-7.1-6.5-12.8-13.7-15.2c-5.9-2-12.3-2.6-18.5-2.5c-5.2,0.1-10.3,0.6-15.4,1.5
	c0,0-21.3,3-14.2,24.2c0.3,1,0.6,1.9,0.9,2.9c0.7,2.3,1.5,4.6,2.2,6.9c1.1,3.4,2.2,6.8,3.3,10.3c1.4,4.4,2.8,8.7,4.2,13.1
	c1.7,5.1,3.3,10.3,5,15.4c1.8,5.7,3.7,11.4,5.5,17.1c2,6.1,3.9,12.2,5.9,18.2c2,6.3,4.1,12.5,6.1,18.8c2,6.3,4.1,12.6,6.1,18.8
	c2,6.1,4,12.2,5.9,18.3c1.9,5.7,3.7,11.5,5.6,17.2c1.7,5.2,3.4,10.3,5,15.5c1.4,4.4,2.9,8.9,4.3,13.3c1.1,3.5,2.3,7,3.4,10.5
	c1.5,4.6,2.5,9.5,6.4,12.8c5.5,4.6,13.5,6.1,20.4,6.9c3.1,0.3,6.3,0.5,9.4,0.6c10.4,0.1,23.6-0.3,32.1-7.2c4.4-3.6,5.6-9.4,7.1-14.6
	c0.9-3,1.8-6,2.7-9c2.5-8.3,4.9-16.5,7.4-24.8c2.9-9.6,5.8-19.3,8.7-28.9c2.7-9.1,5.4-18.1,8.1-27.2c1.9-6.5,3.9-13,5.8-19.5
	c0.6-2,1.2-4.1,1.8-6.1c1,2.7,2,5.5,2.9,8.2c2.5,6.9,4.9,13.9,7.4,20.8c3.3,9.2,6.6,18.4,9.8,27.6c3.4,9.5,6.8,19,10.2,28.6
	c2.4,6.7,4.6,13.4,7,20c1.4,3.9,2.9,7.7,4.3,11.6c1.3,3.7,2.3,7.2,4.7,10.4c7.2,10,21.5,10.1,32.6,9.9c10-0.1,25.7-1.3,31.2-11.3
	c1.9-3.3,2.6-7.5,3.8-11.1c0.7-2.1,1.3-4.1,2-6.2c1.6-5,3.2-10,4.7-15c4-12.6,7.9-25.3,11.8-37.9c4.5-14.3,8.9-28.7,13.3-43
	c4.3-13.9,8.6-27.8,12.9-41.7c3.5-11.3,7-22.7,10.5-34c1.6-5.3,3.2-10.8,5-16.1C1109.4,466.5,1088,463.5,1088,463.5z"/>
<path class="st2" d="M1198.1,511.7c-8.4,0.6-16.5,3.2-23.8,7.4c-3.7,2.1-7.2,4.6-10.4,7.3c-3.2,2.7-6,5.7-10.3,6.6
	c-8,1.8-15.9-3-22.2-7.5c-3.1-2.3-10.9-8.8-13.8-15c-2.3-4.9-0.9-9.1,1.2-12.1c17.7-21.4,46.5-33.2,73.3-35.3
	c27.2-2.1,59.7-0.7,83.2,14.6c18.2,11.8,26.8,35.7,27.4,64.4l1.6,149.7c0,1.3-0.4,2.4-0.7,3.2c-3.1,7.1-15.9,9.7-25.9,9.9
	c-10,0.1-22.9-2.2-26.1-9.3c-0.4-0.8-0.8-1.8-0.8-3.2l0-4.9c-3.9,3.9-8.7,7.1-14.3,9.4c-9,4-23.6,6.2-39.3,6.4
	c-26.1,0-55.6-6.8-70-20.3c-15.1-13.2-23-30.5-23.2-51.4c-0.2-19.9,8.3-36.8,21.2-50.1c12.9-13.6,32.1-20.7,57.1-21.3l66.8-0.8
	c0.2-7.9,1.5-16.7-0.3-24.5C1243.6,513.3,1216.7,510.4,1198.1,511.7z M1200.5,602.9c-17.3-0.1-43.3,1.2-43.7,23.8
	c-0.4,23,30.2,26.8,47,26.6l2.2,0c19-0.2,29.4-4.3,34.8-7.7c6-4.2,9.3-14.4,9.2-28.6l-0.1-13.9
	C1249.9,603.1,1200.5,602.9,1200.5,602.9z"/>
<path class="st2" d="M1528.6,463.3c-1.2-0.3-2.4-0.5-3.5-0.6c-7.5-1-15.1-1.5-22.6-0.2c-9.8,1.7-16.3,7.8-19.3,17.2l-3.6,8.7
	l-51.7,128.4c-3.9-10-7.8-20.1-11.6-30.1c-7.5-19.5-15-38.9-22.5-58.4c-4.1-10.5-8.3-21-12.3-31.6c-3.9-10.3-7.4-21.6-16-29.1
	c-10-8.7-24.3-6.7-36.3-4.5c-3.9,0.7-7.7,2.4-10.5,5.2c-5.6,5.5-5.1,13.7-2.7,20.6c2.9,8.5,6.7,16.7,10,25
	c4.8,12.1,9.6,24.3,14.5,36.4c5.5,13.9,11,27.7,16.5,41.6c5.4,13.7,10.9,27.3,16.3,41c4.4,11.1,8.8,22.1,13.1,33.2
	c2.2,5.5,4.4,11.1,6.5,16.6c2,5.1,3.6,9.9,7.7,13.7c7.3,6.8,19,7.5,28.5,7.6c9.6,0.1,21.5-1.5,28-9.5c3.9-4.8,5.9-10.9,7.9-16.6
	c2.3-6.4,4.9-12.6,7.4-18.9c4.3-10.5,8.5-21.1,12.8-31.6c4.9-12.1,9.8-24.3,14.8-36.4c5-12.2,9.9-24.5,14.9-36.7
	c4.4-10.8,8.8-21.6,13.1-32.4c3.2-7.9,6.4-15.7,9.6-23.6c3.4-8.4,8.8-18.8,3.2-27.5C1537.8,466.7,1533.3,464.4,1528.6,463.3z"/>
<path class="st2" d="M1652.3,705c0,0,51.6,2.3,86.5-25.3c2.5-2.1,10.3-8.5,14.8-14.1c2-3.1,3.3-7.4,0.9-12.3
	c-3.1-6.2-11-12.7-14.2-14.9c0,0-7.8-6.2-17.6-7.9c-4.8-0.9-7.2,0.1-13.6,6.1c-12.4,10.4-26.3,15.9-41.4,15.9
	c-15,0-40.6-5.4-49.8-14.5c-8.8-7.9-15.2-18.4-16-33.3c0,0,112.1,0,140.5,0c0,0,18.1-0.5,18.2-20.6c0-8.9-0.2-20.4-0.3-21.9
	c-0.3-31.3-10.2-56.3-29.4-74.3c-18.9-17.6-52-28.9-88-27c-11.3,0.6-23,2.1-34.6,6.2c-11.9,4.2-22.8,11.1-32.3,20.4
	c-9.4,9.3-17.2,22-23.1,37.8c-5.9,15.5-8.9,35-8.9,58.1c0,24.1,3.8,44,10.2,59c6.3,15.9,14.6,28.5,24.9,37.6c5.3,4.3,11,8,16.7,10.8
	C1620.8,704.2,1642.6,704.8,1652.3,705 M1618.4,521.6c8.8-7.1,19.6-8.8,35.7-9.4c12.7-0.5,29.6,4.8,37.6,12.6
	c7.4,7.5,11.9,19.5,13.1,33.8l-103.2-0.1C1604.3,537.2,1610,528.3,1618.4,521.6z"/>
<path class="st3" d="M567.8,680.5c-2.4,6.8-39.4,103.3-157.4,62.8c0,0,24.3-7.7,32.3-35.7c3.8-13.5,37.8-125.7,37.8-125.7l0.1,0
	l65.2-219.3c8.7-27.1,39.2-41.8,67.7-32.7l2.4,0.8c28.5,9.2,44.7,38.9,36,66l-70.1,235.8C581.8,632.6,570.2,673.7,567.8,680.5z"/>
</svg>
