<svg xmlns="http://www.w3.org/2000/svg" width="630" height="144" viewBox="0 0 630 144">
  <title>Artboard 1</title>
  <g>
    <path d="M531.262,25.378l-32.506,85.34c-3.112,8.308-7.172,9.484-13.174,9.484s-10.06-1.176-13.158-9.484l-32.306-85.34h18.568l27.106,71.984,26.866-71.984h18.6" fill="#203640"/>
    <path d="M390.952,102.68c-16.6,0-30.036-13.9-30.036-31.048s13.438-31.038,30.036-31.038,30.034,13.9,30.034,31.038S407.536,102.68,390.952,102.68Zm47.57-30.666c0-.05-.024-.1-.024-.16V71.78C438.372,44.7,417.124,22.8,390.892,22.8c-26.29,0-47.606,22.044-47.606,49.218s21.316,49.192,47.606,49.192a46.494,46.494,0,0,0,30.56-11.48V121.12H438.5V72.156C438.5,72.108,438.522,72.05,438.522,72.014Z" fill="#203640"/>
    <path d="M581.724,39.69c10.44,0,15.272,3.1,21.076,8.914L551.712,77.082a38.3,38.3,0,0,1-.4-5.25c0-18.974,12.8-32.142,30.414-32.142Zm30.318,38.77c-3.8,15.138-11.646,25.48-30.318,25.48-10.482,0-19.226-4.682-24.6-12.432L626.6,52.858c-8.7-18-23.222-29.41-44.878-29.41-25.754,0-48.216,19.738-48.216,48.384,0,28.628,22.462,48.37,48.216,48.37,26.17,0,45.6-17.878,48.174-41.742Z" fill="#203640"/>
    <path d="M324.644,25.406l-26.888,71.98-27.1-71.98H252.082l.02.054h-.02l-26.89,71.976L198.106,25.46H179.528l32.314,85.328c3.1,8.32,7.166,9.476,13.172,9.476,5.99,0,10.046-1.156,13.144-9.476L261.37,49.9l23.022,60.832c3.1,8.328,7.158,9.5,13.162,9.5s10.066-1.168,13.168-9.5L343.23,25.406H324.644" fill="#203640"/>
    <path d="M110.99,125.09a45.827,45.827,0,0,1-18.668-3.966A48.344,48.344,0,0,1,73.19,49.074a45.984,45.984,0,0,0-18.676-3.942c-20.688,0-41.462,15.528-45.464,35.734-4.312,21.778,7,40.328,25.454,52.012a74.118,74.118,0,0,0,15.588,7.606,67.649,67.649,0,0,0,8.814,2.312c.69.126,1.378.266,2.074.368.052.012.1.016.156.026a72.33,72.33,0,0,0,10.64.81,70.752,70.752,0,0,0,35.862-9.438c.452-.258,1.7-.988,1.882-1.094a72.569,72.569,0,0,0,11.862-9.082,75.776,75.776,0,0,1-10.392.7" fill="#017e91"/>
    <path d="M86.628,1.488c-.08-.012-.158-.032-.234-.048-.992-.2-1.994-.374-3-.534-.41-.066-.828-.122-1.242-.18C81.372.616,80.59.514,79.8.43,79.1.354,78.378.3,77.666.246,77.1.2,76.548.148,75.988.116,74.666.046,73.34,0,72,0A71.886,71.886,0,0,0,.562,80.858c.56-2.242,1.06-4.108,1.588-5.8A53.867,53.867,0,0,1,80.412,43.238a49.214,49.214,0,0,1,20.742,21.03,53.636,53.636,0,0,1,6.606,25.856,54.64,54.64,0,0,1-6.388,25.152,54.236,54.236,0,0,0,29.714-2.078c.066-.1.306-.484.374-.586A79.165,79.165,0,0,0,137.6,101.68c.162-.36.33-.72.486-1.082.174-.392.336-.794.5-1.192.316-.766.624-1.54.916-2.32.06-.16.12-.318.178-.478q1.11-3.057,1.948-6.238.183-.714.35-1.438c.1-.414.192-.824.286-1.234a78.572,78.572,0,0,0,1.686-13.808c.01-.316.022-.632.024-.95.01-.366.016-.738.02-1.112A72.026,72.026,0,0,0,86.628,1.488" fill="#02d9e0"/>
  </g>
</svg>
