<?xml version="1.0" encoding="utf-8"?>
<!-- Generator: Adobe Illustrator 16.0.4, SVG Export Plug-In . SVG Version: 6.00 Build 0)  -->
<!DOCTYPE svg PUBLIC "-//W3C//DTD SVG 1.1//EN" "http://www.w3.org/Graphics/SVG/1.1/DTD/svg11.dtd" [
	<!ENTITY ns_flows "http://ns.adobe.com/Flows/1.0/">
	<!ENTITY ns_extend "http://ns.adobe.com/Extensibility/1.0/">
	<!ENTITY ns_ai "http://ns.adobe.com/AdobeIllustrator/10.0/">
	<!ENTITY ns_graphs "http://ns.adobe.com/Graphs/1.0/">
]>
<svg version="1.1" id="Layer_1" xmlns:x="&ns_extend;" xmlns:i="&ns_ai;" xmlns:graph="&ns_graphs;"
	 xmlns="http://www.w3.org/2000/svg" xmlns:xlink="http://www.w3.org/1999/xlink" xmlns:a="http://ns.adobe.com/AdobeSVGViewerExtensions/3.0/"
	 x="0px" y="0px" width="325.172px" height="366.569px" viewBox="0 0 325.172 366.569" enable-background="new 0 0 325.172 366.569"
	 xml:space="preserve">
<g>
	<path fill="#F4F4F4" d="M13.565,123.528c0-0.625,0.334-1.203,0.875-1.516s1.209-0.312,1.75,0l42.269,24.404
		c0.541,0.312,0.875,0.891,0.875,1.516V317.91l75.507,43.868v-71.21l-63.632-36.739c-0.541-0.312-0.875-0.891-0.875-1.516v-21.285
		c0-0.625,0.334-1.203,0.875-1.516s1.209-0.312,1.75,0l61.882,35.727v-12.062l-63.632-36.739c-0.541-0.312-0.875-0.891-0.875-1.516
		v-21.287c0-0.625,0.334-1.203,0.875-1.516s1.209-0.312,1.75,0l61.882,35.729v-12.062l-63.632-36.739
		c-0.541-0.312-0.875-0.891-0.875-1.516v-21.287c0-0.625,0.334-1.203,0.875-1.516s1.209-0.312,1.75,0l61.882,35.729v-10.793
		L3.5,103.359v182.112l10.065,5.848V123.528z"/>
	<path fill="#F4F4F4" d="M200.584,254.285l1.411-0.816v-90.666c0-0.625,0.334-1.203,0.875-1.516l36.381-21.005
		c0.541-0.312,1.209-0.312,1.75,0s0.875,0.891,0.875,1.516v89.819l9.179,5.315l54.476-31.451v-8.944v-2.477l-7.149,4.128
		c-0.271,0.156-0.573,0.234-0.875,0.234s-0.604-0.078-0.875-0.234c-0.541-0.312-0.875-0.891-0.875-1.516v-21.287
		c0-0.625,0.334-1.203,0.875-1.516l8.899-5.138v-12.063l-7.149,4.129c-0.271,0.156-0.573,0.234-0.875,0.234
		s-0.604-0.078-0.875-0.234c-0.541-0.312-0.875-0.891-0.875-1.516v-21.287c0-0.625,0.334-1.203,0.875-1.516l8.899-5.139v-12.062
		l-7.149,4.128c-0.271,0.156-0.573,0.234-0.875,0.234s-0.604-0.078-0.875-0.234c-0.541-0.312-0.875-0.891-0.875-1.516v-21.286
		c0-0.625,0.333-1.203,0.875-1.516l8.899-5.14V83.121l-167.189,96.548v10.809l7.124-4.113c0.541-0.312,1.209-0.312,1.75,0
		s0.875,0.891,0.875,1.516v21.287c0,0.625-0.334,1.203-0.875,1.516l-8.874,5.123v12.062l7.124-4.113c0.541-0.312,1.209-0.312,1.75,0
		s0.875,0.891,0.875,1.516v21.287c0,0.625-0.334,1.203-0.875,1.516l-8.874,5.124v12.062l7.124-4.112c0.541-0.312,1.209-0.312,1.75,0
		s0.875,0.891,0.875,1.516v21.286c0,0.625-0.334,1.203-0.875,1.516l-8.874,5.124v71.2l61.369-35.438V255.8
		C199.71,255.175,200.043,254.598,200.584,254.285z M248.147,128.091c0-0.625,0.334-1.203,0.875-1.516l40.796-23.554
		c0.541-0.312,1.209-0.312,1.75,0s0.875,0.891,0.875,1.516v21.286c0,0.625-0.334,1.203-0.875,1.516l-40.796,23.555
		c-0.271,0.156-0.573,0.234-0.875,0.234s-0.604-0.078-0.875-0.234c-0.541-0.312-0.875-0.891-0.875-1.516V128.091z M248.147,165.481
		c0-0.625,0.334-1.203,0.875-1.516l40.796-23.553c0.541-0.312,1.209-0.312,1.75,0s0.875,0.891,0.875,1.516v21.286
		c0,0.625-0.334,1.203-0.875,1.516l-40.796,23.554c-0.271,0.156-0.573,0.234-0.875,0.234s-0.604-0.078-0.875-0.234
		c-0.541-0.312-0.875-0.891-0.875-1.516V165.481z M248.147,202.873c0-0.625,0.334-1.203,0.875-1.516l40.796-23.554
		c0.541-0.312,1.209-0.312,1.75,0s0.875,0.891,0.875,1.516v21.287c0,0.625-0.334,1.203-0.875,1.516l-40.796,23.553
		c-0.271,0.156-0.573,0.234-0.875,0.234s-0.604-0.078-0.875-0.234c-0.541-0.312-0.875-0.891-0.875-1.516V202.873z M195.698,256.462
		c0,0.625-0.334,1.203-0.875,1.516l-40.796,23.553c-0.271,0.156-0.573,0.234-0.875,0.234s-0.604-0.078-0.875-0.234
		c-0.541-0.312-0.875-0.891-0.875-1.516v-21.286c0-0.625,0.334-1.203,0.875-1.516l40.796-23.554c0.541-0.312,1.209-0.312,1.75,0
		s0.875,0.891,0.875,1.516V256.462z M195.698,219.071c0,0.625-0.334,1.203-0.875,1.516l-40.796,23.553
		c-0.271,0.156-0.573,0.234-0.875,0.234s-0.604-0.078-0.875-0.234c-0.541-0.312-0.875-0.891-0.875-1.516v-21.287
		c0-0.625,0.334-1.203,0.875-1.516l40.796-23.553c0.541-0.312,1.209-0.312,1.75,0s0.875,0.891,0.875,1.516V219.071z M195.698,181.68
		c0,0.625-0.334,1.203-0.875,1.516l-40.796,23.554c-0.271,0.156-0.573,0.234-0.875,0.234s-0.604-0.078-0.875-0.234
		c-0.541-0.312-0.875-0.891-0.875-1.516v-21.287c0-0.625,0.334-1.203,0.875-1.516l40.796-23.553c0.541-0.312,1.209-0.312,1.75,0
		s0.875,0.891,0.875,1.516V181.68z"/>
	<polygon fill="#F4F4F4" points="234.111,264.929 230.485,267.021 230.485,308.577 234.111,306.483 	"/>
	<polygon fill="#F4F4F4" points="305.53,226.374 260.262,252.511 260.262,291.383 305.53,265.241 	"/>
	<polygon fill="#F4F4F4" points="229.485,309.155 229.485,267.599 225.938,269.646 225.938,311.203 	"/>
	<path fill="#F4F4F4" d="M26.98,274.734c0-0.179,0.096-0.344,0.25-0.433c0.154-0.09,0.346-0.09,0.5,0l17.938,10.357
		c0.154,0.089,0.25,0.254,0.25,0.433v25.009l9.915,5.725V148.943L17.065,126.56v166.882l9.915,5.725V274.734z"/>
	<polygon fill="#F4F4F4" points="205.495,251.445 207.931,250.036 207.931,166.079 208.181,165.936 235.94,149.908 235.94,233.839 
		238.376,232.43 238.376,144.829 205.495,163.813 	"/>
	<polygon fill="#F4F4F4" points="208.931,249.458 234.94,234.417 234.94,151.641 208.931,166.657 	"/>
	<polygon fill="#F4F4F4" points="269.782,135.876 270.782,135.298 270.782,135.299 288.943,124.812 288.943,107.568 
		270.782,118.054 270.782,133.566 269.782,134.144 269.782,118.631 251.647,129.102 251.647,146.347 269.782,135.876 	"/>
	<path fill="#E24446" d="M249.022,150.894c0.271,0.156,0.573,0.234,0.875,0.234s0.604-0.078,0.875-0.234l40.796-23.555
		c0.541-0.312,0.875-0.891,0.875-1.516v-21.286c0-0.625-0.334-1.203-0.875-1.516s-1.209-0.312-1.75,0l-40.796,23.554
		c-0.541,0.312-0.875,0.891-0.875,1.516v21.287C248.147,150.003,248.481,150.581,249.022,150.894z M251.647,129.102l18.135-10.471
		v15.513l1-0.577v-15.513l18.161-10.485v17.244l-18.161,10.486v-0.001l-1,0.578l0,0l-18.135,10.471V129.102z"/>
	<polygon fill="#F4F4F4" points="305.53,115.236 305.53,97.991 299.256,101.615 299.256,118.859 	"/>
	<path fill="#E24446" d="M249.022,188.284c0.271,0.156,0.573,0.234,0.875,0.234s0.604-0.078,0.875-0.234l40.796-23.554
		c0.541-0.312,0.875-0.891,0.875-1.516v-21.286c0-0.625-0.334-1.203-0.875-1.516s-1.209-0.312-1.75,0l-40.796,23.553
		c-0.541,0.312-0.875,0.891-0.875,1.516v21.287C248.147,187.394,248.481,187.972,249.022,188.284z M251.647,166.492l18.135-10.47
		v15.592l1-0.578v-15.591l18.161-10.485v17.244l-11.715,6.764l0.034,0.06l-13.212,7.627l-0.034-0.059l-12.369,7.142V166.492z"/>
	<polygon fill="#F4F4F4" points="305.53,152.627 305.53,135.383 299.256,139.006 299.256,156.251 	"/>
	<path fill="#E24446" d="M249.022,225.675c0.271,0.156,0.573,0.234,0.875,0.234s0.604-0.078,0.875-0.234l40.796-23.553
		c0.541-0.312,0.875-0.891,0.875-1.516v-21.287c0-0.625-0.334-1.203-0.875-1.516s-1.209-0.312-1.75,0l-40.796,23.554
		c-0.541,0.312-0.875,0.891-0.875,1.516v21.286C248.147,224.784,248.481,225.362,249.022,225.675z M251.647,203.884l18.135-10.471
		v15.514l1-0.577v-15.514l18.161-10.485v17.245l-11.696,6.752l0.001,0.001l-13.212,7.628v-0.001l-12.389,7.152V203.884z"/>
	<polygon fill="#F4F4F4" points="305.53,190.019 305.53,172.774 299.256,176.396 299.256,193.642 	"/>
	<polygon fill="#F4F4F4" points="174.032,189.426 173.032,190.004 173.032,174.49 154.902,184.957 154.902,202.202 167.319,195.033 
		167.319,195.033 180.531,187.406 180.53,187.405 192.198,180.669 192.198,163.425 174.032,173.913 	"/>
	<path fill="#E24446" d="M194.823,158.878c-0.541-0.312-1.209-0.312-1.75,0l-40.796,23.553c-0.541,0.312-0.875,0.891-0.875,1.516
		v21.287c0,0.625,0.334,1.203,0.875,1.516c0.271,0.156,0.573,0.234,0.875,0.234s0.604-0.078,0.875-0.234l40.796-23.554
		c0.541-0.312,0.875-0.891,0.875-1.516v-21.286C195.698,159.769,195.364,159.19,194.823,158.878z M192.198,180.669l-11.668,6.736
		l0.001,0.001l-13.212,7.627l0,0l-12.417,7.169v-17.245l18.13-10.467v15.514l1-0.578v-15.513l18.166-10.488V180.669z"/>
	<polygon fill="#F4F4F4" points="144.59,190.911 138.341,194.52 138.341,211.764 144.59,208.156 	"/>
	<polygon fill="#F4F4F4" points="174.032,226.776 173.032,227.354 173.032,211.881 154.902,222.348 154.902,239.593 
		173.032,229.126 173.032,229.085 174.032,228.508 174.032,228.549 192.198,218.061 192.198,200.815 174.032,211.304 	"/>
	<path fill="#E24446" d="M194.823,196.269c-0.541-0.312-1.209-0.312-1.75,0l-40.796,23.553c-0.541,0.312-0.875,0.891-0.875,1.516
		v21.287c0,0.625,0.334,1.203,0.875,1.516c0.271,0.156,0.573,0.234,0.875,0.234s0.604-0.078,0.875-0.234l40.796-23.553
		c0.541-0.312,0.875-0.891,0.875-1.516v-21.287C195.698,197.159,195.364,196.581,194.823,196.269z M192.198,218.061l-18.166,10.488
		v-0.041l-1,0.577v0.041l-18.13,10.467v-17.245l18.13-10.467v15.473l1-0.577v-15.473l18.166-10.488V218.061z"/>
	<polygon fill="#F4F4F4" points="144.59,228.302 138.341,231.91 138.341,249.155 144.59,245.547 	"/>
	<polygon fill="#F4F4F4" points="174.032,264.255 173.032,264.832 173.032,249.271 154.902,259.739 154.902,276.983 
		167.299,269.826 167.319,269.862 180.531,262.234 180.511,262.199 192.198,255.451 192.198,238.206 174.032,248.694 	"/>
	<path fill="#E24446" d="M194.823,233.659c-0.541-0.312-1.209-0.312-1.75,0l-40.796,23.554c-0.541,0.312-0.875,0.891-0.875,1.516
		v21.286c0,0.625,0.334,1.203,0.875,1.516c0.271,0.156,0.573,0.234,0.875,0.234s0.604-0.078,0.875-0.234l40.796-23.553
		c0.541-0.312,0.875-0.891,0.875-1.516v-21.287C195.698,234.55,195.364,233.972,194.823,233.659z M192.198,255.451l-11.688,6.748
		l0.021,0.035l-13.212,7.628l-0.021-0.036l-12.396,7.157v-17.244l18.13-10.468v15.561l1-0.577v-15.561l18.166-10.488V255.451z"/>
	<polygon fill="#F4F4F4" points="144.59,265.693 138.341,269.301 138.341,286.546 144.59,282.938 	"/>
	<polygon fill="#F4F4F4" points="112.449,198.817 134.841,211.745 134.841,194.5 104.837,177.177 104.837,192.69 113.199,197.519 	
		"/>
	<polygon fill="#F4F4F4" points="103.837,192.113 103.837,176.6 73.834,159.276 73.834,176.521 95.459,189.007 96.209,187.709 	"/>
	<polygon fill="#F4F4F4" points="112.449,236.193 104.837,231.798 104.837,231.812 134.841,249.136 134.841,231.891 
		104.837,214.567 104.837,230.066 113.199,234.895 	"/>
	<polygon fill="#F4F4F4" points="96.209,225.085 103.837,229.489 103.837,213.99 73.834,196.667 73.834,213.912 103.837,231.235 
		103.837,231.221 95.459,226.384 	"/>
	<polygon fill="#F4F4F4" points="103.837,266.905 103.837,251.382 73.834,234.06 73.834,251.303 95.464,263.792 96.209,262.502 	"/>
	<polygon fill="#F4F4F4" points="112.454,273.601 134.841,286.526 134.841,269.281 104.837,251.959 104.837,267.483 
		113.199,272.311 	"/>
	<path fill="#F4F4F4" d="M309.03,206.492c0,0.625-0.334,1.203-0.875,1.516l-53.605,30.948l4.839,2.802
		c0.136,0.079,0.258,0.174,0.365,0.282l61.399-35.449l-2.838-1.649c-0.055-0.032-0.108-0.067-0.159-0.104l-9.126-5.269V206.492z"/>
	<path fill="#F4F4F4" d="M260.216,242.927c0.023,0.113,0.046,0.228,0.046,0.346v5.196l61.407-35.454l-0.016-5.558L260.216,242.927z"
		/>
	<path fill="#E24446" d="M325.148,205.867c-0.002-0.622-0.333-1.195-0.87-1.508l-4.028-2.342c-0.053-0.039-0.109-0.076-0.168-0.11
		l-11.052-6.381v-4.497v-21.286v-16.105v-21.286v-16.104V94.96V80.09c0-0.048-0.015-0.092-0.019-0.14
		c-0.009-0.106-0.015-0.215-0.042-0.316c0-0.001-0.001-0.002-0.001-0.002c-0.079-0.293-0.233-0.561-0.448-0.775
		c-0.061-0.062-0.137-0.108-0.208-0.161c-0.052-0.039-0.097-0.086-0.154-0.119l-0.001-0.001c-0.001,0-0.002-0.001-0.002-0.001
		s-0.001,0-0.002-0.001L173.179,0.236c-0.544-0.314-1.211-0.314-1.755-0.002L157.452,8.31l-7.029-4.085
		c-0.544-0.315-1.151-0.474-1.759-0.474c-0.605,0-1.21,0.156-1.753,0.471l-3.357,1.941c-1.081,0.626-1.747,1.78-1.747,3.029v8.152
		c0,0.002,0.001,0.004,0.001,0.007L0.874,98.803c-0.405,0.234-0.693,0.618-0.812,1.058c-0.016,0.055-0.014,0.114-0.023,0.171
		C0.022,100.125,0,100.219,0,100.316v0.001v0.001v186.16c0,0.623,0.332,1.2,0.871,1.513l13.171,7.652
		c0.116,0.124,0.247,0.236,0.398,0.324l25.645,14.807l95.627,55.558l0,0c0.002,0.001,0.002,0.002,0.004,0.003
		c0.115,0.066,0.237,0.111,0.361,0.149c0.021,0.007,0.041,0.021,0.062,0.025c0.148,0.04,0.3,0.06,0.451,0.06
		c0.244,0,0.484-0.065,0.713-0.168c0.053-0.023,0.109-0.036,0.16-0.065l0,0c0.001-0.001,0.002-0.001,0.002-0.001l63.728-36.801
		l17.021,9.885c0.271,0.157,0.575,0.236,0.879,0.236c0.301,0,0.602-0.077,0.872-0.232l5.096-2.928
		c0.543-0.312,0.878-0.891,0.878-1.518v-19.715l9.65-5.571l17.014,9.887c0.001,0.001,0.002,0.001,0.004,0.002
		c0.001,0,0.002,0.001,0.003,0.002c0.106,0.062,0.22,0.101,0.333,0.138c0.03,0.01,0.059,0.028,0.089,0.036
		c0.444,0.119,0.924,0.06,1.33-0.178l5.03-2.927c0.539-0.313,0.87-0.89,0.87-1.513v-19.715l47.894-27.657
		c0.541-0.312,0.875-0.891,0.875-1.516v-41.897l15.267-8.814c0.543-0.313,0.877-0.894,0.875-1.521L325.148,205.867z
		 M321.669,213.015l-61.407,35.454v-5.196c0-0.118-0.022-0.232-0.046-0.346l61.438-35.47L321.669,213.015z M203.21,326.657v-69.263
		l15.383,8.932v69.266L203.21,326.657z M145.807,17.057v-6.995l37.354,21.712l-6.028,3.479L145.807,17.057z M136.34,114.287
		l-0.005-1.717l15.22-8.787l0.02,6.998l-15.22,8.787L136.34,114.287z M135.354,119.562l-12.591-7.316l-0.02-6.994l12.591,7.318
		L135.354,119.562z M127.666,100.673l-5.674,3.276c-0.069,0.039-0.121,0.098-0.163,0.163c-0.012,0.018-0.021,0.035-0.029,0.054
		c-0.01,0.021-0.025,0.038-0.032,0.06L97.369,90.047l-0.02-6.993L127.666,100.673z M190.374,32.643l0.02,7l-79.778,46.06
		l-6.052-3.517L190.374,32.643z M189.874,31.777l-86.558,49.975c-0.154,0.089-0.25,0.254-0.25,0.432
		c0,0.179,0.095,0.344,0.249,0.434l28.469,16.543c0.154,0.09,0.347,0.091,0.501,0l6.173-3.563l12.597,7.321l-5.272,3.044
		l-9.947,5.742l-2.229-1.296l-10.365-6.024l5.674-3.276c0.154-0.089,0.25-0.254,0.25-0.432c0-0.179-0.095-0.344-0.249-0.434
		L97.844,82.184l86.563-49.977c0.154-0.089,0.25-0.254,0.25-0.432c0-0.179-0.095-0.344-0.249-0.434L146.304,9.193l2.359-1.364
		L189.874,31.777z M143.563,20.38l26.584,15.442L95.097,79.151c-1.086,0.627-1.754,1.787-1.75,3.042l0.023,8.152
		c0.004,1.243,0.666,2.392,1.741,3.016l23.639,13.737l0.015,5.445c0.004,1.242,0.666,2.391,1.741,3.016l13.593,7.899
		c0.544,0.315,1.151,0.474,1.759,0.474c0.604,0,1.208-0.156,1.75-0.469l16.218-9.363c1.086-0.627,1.754-1.787,1.75-3.041
		l-0.023-8.151c-0.004-1.243-0.666-2.392-1.741-3.016l-13.593-7.899c-0.544-0.316-1.151-0.475-1.759-0.475
		c-0.604,0-1.208,0.156-1.75,0.469l-4.668,2.695l-14.444-8.393l75.048-43.328c1.086-0.627,1.754-1.787,1.75-3.042l-0.023-8.151
		c-0.004-1.243-0.667-2.391-1.741-3.016L160.94,10.337l11.357-6.564l131.489,76.313l-167.193,96.55L5.24,100.322L143.563,20.38z
		 M318.315,204.941l2.838,1.649l-61.399,35.449c-0.107-0.108-0.229-0.203-0.365-0.282l-4.839-2.802l53.605-30.948
		c0.541-0.312,0.875-0.891,0.875-1.516v-6.924l9.126,5.269C318.207,204.874,318.261,204.909,318.315,204.941z M229.485,267.599
		v41.557l-3.547,2.048v-41.557L229.485,267.599z M230.485,267.021l3.626-2.093v41.555l-3.626,2.094V267.021z M237.611,306.819
		v-43.912l14.12-8.152v60.27L237.611,306.819z M256.762,314.132l-1.53,0.891v-63.299c0-0.625-0.334-1.203-0.875-1.516
		s-1.209-0.312-1.75,0l-29.293,16.912c-0.541,0.312-0.875,0.891-0.875,1.516v65.329l-2.148,1.233
		c-0.004,0.002-0.006,0.005-0.009,0.007l-0.688,0.396v-69.273l37.169-21.467V314.132z M138.341,361.788v-71.2l8.874-5.124
		c0.541-0.312,0.875-0.891,0.875-1.516v-21.286c0-0.625-0.334-1.203-0.875-1.516s-1.209-0.312-1.75,0l-7.124,4.112v-12.062
		l8.874-5.124c0.541-0.312,0.875-0.891,0.875-1.516v-21.287c0-0.625-0.334-1.203-0.875-1.516s-1.209-0.312-1.75,0l-7.124,4.113
		v-12.062l8.874-5.123c0.541-0.312,0.875-0.891,0.875-1.516V187.88c0-0.625-0.334-1.203-0.875-1.516s-1.209-0.312-1.75,0
		l-7.124,4.113v-10.809L305.53,83.121v10.828l-8.899,5.14c-0.542,0.312-0.875,0.891-0.875,1.516v21.286
		c0,0.625,0.334,1.203,0.875,1.516c0.271,0.156,0.573,0.234,0.875,0.234s0.604-0.078,0.875-0.234l7.149-4.128v12.062l-8.899,5.139
		c-0.541,0.312-0.875,0.891-0.875,1.516v21.287c0,0.625,0.334,1.203,0.875,1.516c0.271,0.156,0.573,0.234,0.875,0.234
		s0.604-0.078,0.875-0.234l7.149-4.129v12.063l-8.899,5.138c-0.541,0.312-0.875,0.891-0.875,1.516v21.287
		c0,0.625,0.334,1.203,0.875,1.516c0.271,0.156,0.573,0.234,0.875,0.234s0.604-0.078,0.875-0.234l7.149-4.128v2.477v8.944
		l-54.476,31.451l-9.179-5.315v-89.819c0-0.625-0.334-1.203-0.875-1.516s-1.209-0.312-1.75,0l-36.381,21.005
		c-0.541,0.312-0.875,0.891-0.875,1.516v90.666l-1.411,0.816c-0.541,0.312-0.874,0.89-0.874,1.515v70.55L138.341,361.788z
		 M305.53,172.774v17.244l-6.274,3.623v-17.245L305.53,172.774z M305.53,135.383v17.244l-6.274,3.624v-17.245L305.53,135.383z
		 M305.53,97.991v17.245l-6.274,3.623v-17.244L305.53,97.991z M95.459,263.801l0.005-0.009l-21.63-12.489V234.06l30.003,17.322
		v15.523l1,0.578v-15.524l30.004,17.322v17.245l-22.387-12.926l-0.005,0.009L95.459,263.801z M138.341,269.301l6.249-3.607v17.244
		l-6.249,3.608V269.301z M103.837,231.235l-30.003-17.323v-17.245l30.003,17.323v15.499l1,0.577v-15.499l30.004,17.323v17.245
		l-30.004-17.323v-0.015l-1-0.577V231.235z M138.341,231.91l6.249-3.608v17.245l-6.249,3.608V231.91z M95.459,189.008
		L95.459,189.008l-21.625-12.486v-17.245l30.003,17.323v15.514l1,0.577v-15.514l30.004,17.323v17.245l-22.392-12.928l0,0
		L95.459,189.008z M138.341,194.52l6.249-3.608v17.245l-6.249,3.607V194.52z M238.376,232.43l-2.436,1.409v-83.931l-27.76,16.027
		l-0.25,0.144v83.957l-2.436,1.409v-87.632l32.881-18.984V232.43z M234.94,234.417l-26.01,15.041v-82.801l26.01-15.017V234.417z
		 M240.827,235.055l15.438,8.938l-37.171,21.467l-15.39-8.936L240.827,235.055z M3.5,103.359l131.341,76.306v10.793l-61.882-35.729
		c-0.541-0.312-1.209-0.312-1.75,0s-0.875,0.891-0.875,1.516v21.287c0,0.625,0.334,1.203,0.875,1.516l63.632,36.739v12.062
		L72.959,192.12c-0.541-0.312-1.209-0.312-1.75,0s-0.875,0.891-0.875,1.516v21.287c0,0.625,0.334,1.203,0.875,1.516l63.632,36.739
		v12.062l-61.882-35.727c-0.541-0.312-1.209-0.312-1.75,0s-0.875,0.891-0.875,1.516v21.285c0,0.625,0.334,1.203,0.875,1.516
		l63.632,36.739v71.21L59.334,317.91V147.933c0-0.625-0.334-1.203-0.875-1.516L16.19,122.013c-0.541-0.312-1.209-0.312-1.75,0
		s-0.875,0.891-0.875,1.516v167.791L3.5,285.472V103.359z M17.065,126.56l38.769,22.384v166.882l-9.915-5.725v-25.009
		c0-0.179-0.096-0.344-0.25-0.433L27.73,274.302c-0.154-0.09-0.346-0.09-0.5,0c-0.154,0.089-0.25,0.254-0.25,0.433v24.432
		l-9.915-5.725V126.56z M260.262,252.511l45.269-26.137v38.867l-45.269,26.142V252.511z"/>
	<polygon fill="#F4F4F4" points="251.731,254.755 237.611,262.907 237.611,306.819 251.731,315.024 	"/>
	<polygon fill="#F4F4F4" points="218.593,266.326 203.21,257.395 203.21,326.657 218.593,335.592 	"/>
	<path fill="#F4F4F4" d="M256.762,244.86l-37.169,21.467v69.273l0.688-0.396c0.003-0.002,0.005-0.005,0.009-0.007l2.148-1.233
		v-65.329c0-0.625,0.334-1.203,0.875-1.516l29.293-16.912c0.541-0.312,1.209-0.312,1.75,0s0.875,0.891,0.875,1.516v63.299
		l1.53-0.891V244.86z"/>
	<polygon fill="#F4F4F4" points="219.094,265.46 256.265,243.993 240.827,235.055 203.704,256.524 	"/>
	<polygon fill="#F4F4F4" points="112.449,198.817 113.199,197.519 104.837,192.69 103.837,192.113 96.209,187.709 95.459,189.007 
		95.459,189.008 112.449,198.817 	"/>
	<polygon fill="#F4F4F4" points="112.449,236.193 113.199,234.895 104.837,230.066 103.837,229.489 96.209,225.085 95.459,226.384 
		103.837,231.221 104.837,231.798 	"/>
	<polygon fill="#F4F4F4" points="112.454,273.601 113.199,272.311 104.837,267.483 103.837,266.905 96.209,262.502 95.464,263.792 
		95.459,263.801 112.449,273.609 	"/>
	<polygon fill="#F4F4F4" points="264.051,176.654 277.263,169.027 277.229,168.968 288.943,162.204 288.943,144.96 270.782,155.445 
		270.782,171.036 269.782,171.614 269.782,156.022 251.647,166.492 251.647,183.737 264.017,176.596 	"/>
	<polygon fill="#F4F4F4" points="264.036,213.977 277.248,206.349 277.247,206.348 288.943,199.596 288.943,182.351 
		270.782,192.836 270.782,208.35 269.782,208.927 269.782,193.413 251.647,203.884 251.647,221.128 264.036,213.976 	"/>
	<path fill="#F4F4F4" d="M136.594,176.636l167.193-96.55L172.298,3.772l-11.357,6.564l31.689,18.416
		c1.074,0.625,1.737,1.772,1.741,3.016l0.023,8.151c0.004,1.255-0.664,2.415-1.75,3.042L117.597,86.29l14.444,8.393l4.668-2.695
		c0.542-0.312,1.146-0.469,1.75-0.469c0.607,0,1.215,0.158,1.759,0.475l13.593,7.899c1.075,0.624,1.737,1.772,1.741,3.016
		l0.023,8.151c0.004,1.254-0.664,2.414-1.75,3.041l-16.218,9.363c-0.542,0.312-1.146,0.469-1.75,0.469
		c-0.607,0-1.215-0.158-1.759-0.474l-13.593-7.899c-1.075-0.625-1.737-1.773-1.741-3.016l-0.015-5.445L95.111,93.361
		c-1.075-0.624-1.737-1.772-1.741-3.016l-0.023-8.152c-0.004-1.255,0.664-2.415,1.75-3.042l75.051-43.329L143.563,20.38
		L5.24,100.322L136.594,176.636z M164.115,102.442l21.37-12.338c0.543-0.313,1.213-0.312,1.754,0.003l23.608,13.721
		c0.538,0.312,0.869,0.886,0.871,1.508l0.023,8.152c0.002,0.627-0.332,1.207-0.875,1.521l-21.369,12.338
		c-0.271,0.156-0.573,0.234-0.875,0.234c-0.304,0-0.607-0.079-0.879-0.237l-23.609-13.721c-0.538-0.312-0.869-0.886-0.871-1.508
		l-0.023-8.152C163.238,103.336,163.572,102.756,164.115,102.442z M55.804,102.015l20.182-11.652
		c0.542-0.314,1.212-0.312,1.754,0.003l11.139,6.473c0.538,0.312,0.869,0.886,0.871,1.508l0.023,8.152
		c0.002,0.627-0.332,1.207-0.875,1.521l-20.183,11.652c-0.271,0.156-0.573,0.234-0.875,0.234c-0.304,0-0.607-0.079-0.879-0.237
		l-11.138-6.473c-0.538-0.312-0.869-0.886-0.871-1.508l-0.023-8.152C54.927,102.908,55.261,102.328,55.804,102.015z"/>
	<polygon fill="#F4F4F4" points="207.724,106.061 186.357,93.643 167.233,104.684 188.601,117.101 	"/>
	<polygon fill="#F4F4F4" points="188.116,123.513 188.101,117.968 166.745,105.557 166.761,111.102 	"/>
	<polygon fill="#F4F4F4" points="189.116,123.525 208.239,112.484 208.224,106.926 189.101,117.967 	"/>
	<path fill="#E24446" d="M164.135,113.623l23.609,13.721c0.271,0.158,0.575,0.237,0.879,0.237c0.302,0,0.604-0.078,0.875-0.234
		l21.369-12.338c0.543-0.313,0.877-0.894,0.875-1.521l-0.023-8.152c-0.002-0.622-0.333-1.195-0.871-1.508l-23.608-13.721
		c-0.541-0.315-1.211-0.316-1.754-0.003l-21.37,12.338c-0.543,0.313-0.877,0.894-0.875,1.521l0.023,8.152
		C163.266,112.737,163.597,113.312,164.135,113.623z M186.357,93.643l21.366,12.418l-19.123,11.04l-21.367-12.417L186.357,93.643z
		 M208.239,112.484l-19.123,11.041l-0.016-5.559l19.123-11.041L208.239,112.484z M188.101,117.968l0.016,5.545l-21.355-12.411
		l-0.016-5.545L188.101,117.968z"/>
	<polygon fill="#F4F4F4" points="67.333,115.837 67.318,110.292 58.434,105.128 58.449,110.674 	"/>
	<polygon fill="#F4F4F4" points="85.754,99.07 76.857,93.9 58.923,104.256 67.818,109.425 	"/>
	<polygon fill="#F4F4F4" points="68.333,115.85 86.27,105.494 86.254,99.936 68.318,110.291 	"/>
	<path fill="#E24446" d="M54.952,111.688c0.002,0.622,0.333,1.196,0.871,1.508l11.138,6.473c0.271,0.158,0.575,0.237,0.879,0.237
		c0.302,0,0.604-0.078,0.875-0.234l20.183-11.652c0.543-0.313,0.877-0.894,0.875-1.521l-0.023-8.152
		c-0.002-0.622-0.333-1.196-0.871-1.508l-11.139-6.473c-0.542-0.314-1.212-0.317-1.754-0.003l-20.182,11.652
		c-0.543,0.313-0.877,0.894-0.875,1.521L54.952,111.688z M76.857,93.9l8.896,5.17l-17.936,10.354l-8.896-5.169L76.857,93.9z
		 M86.27,105.494L68.333,115.85l-0.015-5.559l17.936-10.355L86.27,105.494z M67.318,110.292l0.015,5.545l-8.884-5.163l-0.016-5.546
		L67.318,110.292z"/>
	<polygon fill="#F4F4F4" points="177.132,35.253 183.16,31.773 145.807,10.062 145.807,17.057 	"/>
	<polygon fill="#F4F4F4" points="190.394,39.643 190.374,32.643 104.563,82.186 110.615,85.702 	"/>
	<path fill="#F4F4F4" d="M121.768,104.226c0.007-0.021,0.022-0.039,0.032-0.06c0.009-0.019,0.018-0.036,0.029-0.054
		c0.042-0.065,0.094-0.124,0.163-0.163l5.674-3.276L97.35,83.054l0.02,6.993L121.768,104.226z"/>
	<path fill="#F4F4F4" d="M148.663,7.829l-2.359,1.364l38.104,22.148c0.154,0.09,0.249,0.255,0.249,0.434
		c0,0.178-0.096,0.343-0.25,0.432L97.844,82.184l31.071,18.059c0.154,0.09,0.249,0.255,0.249,0.434c0,0.178-0.096,0.343-0.25,0.432
		l-5.674,3.276l10.365,6.024l2.229,1.296l9.947-5.742l5.272-3.044l-12.597-7.321l-6.173,3.563c-0.154,0.091-0.347,0.09-0.501,0
		l-28.469-16.543c-0.154-0.09-0.249-0.255-0.249-0.434c0-0.178,0.096-0.343,0.25-0.432l86.558-49.975L148.663,7.829z"/>
	<polygon fill="#F4F4F4" points="151.555,103.783 136.335,112.57 136.34,114.287 136.354,119.568 151.574,110.781 	"/>
	<polygon fill="#F4F4F4" points="135.335,112.57 122.744,105.252 122.764,112.246 135.354,119.562 	"/>
</g>
</svg>
