<?xml version="1.0" encoding="utf-8"?>
<!-- Generator: Adobe Illustrator 16.0.4, SVG Export Plug-In . SVG Version: 6.00 Build 0)  -->
<!DOCTYPE svg PUBLIC "-//W3C//DTD SVG 1.1//EN" "http://www.w3.org/Graphics/SVG/1.1/DTD/svg11.dtd" [
	<!ENTITY ns_flows "http://ns.adobe.com/Flows/1.0/">
	<!ENTITY ns_extend "http://ns.adobe.com/Extensibility/1.0/">
	<!ENTITY ns_ai "http://ns.adobe.com/AdobeIllustrator/10.0/">
	<!ENTITY ns_graphs "http://ns.adobe.com/Graphs/1.0/">
]>
<svg version="1.1" id="Layer_1" xmlns:x="&ns_extend;" xmlns:i="&ns_ai;" xmlns:graph="&ns_graphs;"
	 xmlns="http://www.w3.org/2000/svg" xmlns:xlink="http://www.w3.org/1999/xlink" xmlns:a="http://ns.adobe.com/AdobeSVGViewerExtensions/3.0/"
	 x="0px" y="0px" width="656.965px" height="215.237px" viewBox="0 0 656.965 215.237" enable-background="new 0 0 656.965 215.237"
	 xml:space="preserve">
<g>
	<path d="M203.107,175.119c4.773,0,9.02,1.592,12.853,4.717c2.296,1.889,3.181,3.244,3.181,5.012c0,2.418-1.943,4.363-4.418,4.363
		c-1.241,0-2.184-0.412-3.299-1.416l-0.95-0.885c-1.944-1.768-4.713-2.83-7.427-2.83c-6.189,0-11.199,5.131-11.199,11.318
		c0,6.191,5.128,11.26,11.32,11.26c2.472,0,5.42-1.002,6.954-2.414l1.592-1.477c1.059-1.002,2.123-1.414,3.36-1.414
		c2.42,0,4.421,2.004,4.421,4.422c0,1.355-0.648,2.533-2.122,4.01c-3.597,3.594-9.02,5.834-14.205,5.834
		c-11.142,0-20.343-9.197-20.343-20.279C182.825,184.199,191.966,175.119,203.107,175.119z"/>
	<path d="M242.553,208.308l-1.24,2.889l-0.352,0.887c-1.004,2.18-2.417,3.18-4.421,3.18c-2.417,0-4.537-1.945-4.537-4.303
		c0-0.768,0.233-1.65,0.646-2.531l0.409-0.887l13.031-29.178c0.825-1.83,2.296-2.773,4.304-2.773c1.886,0,3.535,1.004,4.303,2.773
		l13.38,29.061c0.886,1.885,1.005,2.477,1.005,3.535c0,2.357-2.12,4.363-4.537,4.363c-2.008,0-3.479-1.061-4.425-3.125l-0.409-0.943
		l-1.359-2.947H242.553z M250.45,189.21l-4.658,11.314h9.435L250.45,189.21z"/>
	<path d="M310.229,181.369v-1c0.062-3.066,1.83-5.014,4.482-5.014c2.712,0,4.54,2.004,4.54,5.014v1v28.293
		c0,2.182-0.118,2.949-0.706,3.777c-0.886,1.352-2.42,2.18-4.069,2.18c-1.65,0-2.533-0.531-4.247-2.83l-16.029-20.576v17.156v1.004
		c0,3.066-1.769,5.07-4.482,5.07c-2.715,0-4.537-2.064-4.537-5.07v-1.004v-28.768c0-1.709,0.173-2.475,0.764-3.299
		c0.886-1.299,2.124-1.947,3.54-1.947c1.646,0,2.708,0.592,4.242,2.594l16.503,20.809V181.369z"/>
	<path d="M345.845,208.308l-1.237,2.889l-0.354,0.887c-1.005,2.18-2.42,3.18-4.419,3.18c-2.417,0-4.543-1.945-4.543-4.303
		c0-0.768,0.237-1.65,0.649-2.531l0.412-0.887l13.028-29.178c0.828-1.83,2.299-2.773,4.303-2.773c1.89,0,3.536,1.004,4.307,2.773
		l13.38,29.061c0.882,1.885,1.004,2.477,1.004,3.535c0,2.357-2.126,4.363-4.54,4.363c-2.007,0-3.478-1.061-4.424-3.125l-0.41-0.943
		l-1.355-2.947H345.845z M353.742,189.21l-4.655,11.314h9.431L353.742,189.21z"/>
	<path d="M388.472,182.015v-1.059c0.058-3.418,1.886-5.246,5.246-5.246h1.062h7.605c6.072,0,9.787,1.119,13.499,4.07
		c4.834,3.891,7.663,9.605,7.663,15.678c0,6.777-3.597,13.146-9.489,16.74c-3.069,1.889-6.899,2.828-11.673,2.828h-7.605h-1.062
		c-3.421-0.055-5.246-1.883-5.246-5.242v-1.064V182.015z M401.32,206.837c3.895,0,6.132-0.475,8.134-1.771
		c3.13-2.002,5.076-5.656,5.076-9.607c0-6.781-5.249-11.318-13.148-11.318h-3.892v22.697H401.32z"/>
	<path d="M447.607,208.308l-1.24,2.889l-0.352,0.887c-1.004,2.18-2.417,3.18-4.425,3.18c-2.417,0-4.537-1.945-4.537-4.303
		c0-0.768,0.236-1.65,0.649-2.531l0.409-0.887l13.031-29.178c0.824-1.83,2.299-2.773,4.3-2.773c1.89,0,3.54,1.004,4.304,2.773
		l13.383,29.061c0.886,1.885,1.004,2.477,1.004,3.535c0,2.357-2.123,4.363-4.54,4.363c-2.005,0-3.479-1.061-4.418-3.125
		l-0.416-0.943l-1.355-2.947H447.607z M455.504,189.21l-4.654,11.314h9.432L455.504,189.21z"/>
	<path fill="#E24446" d="M159.059,73.095l-32.604-32.418c-4.357-4.332-6.999-10.24-6.999-16.67
		c0-12.996,10.694-23.626,23.762-23.626c6.863,0,13.069,2.887,17.427,7.615l22.175,22.05l22.84-22.708
		c4.225-4.333,10.161-6.957,16.767-6.957c13.069,0,23.76,10.63,23.76,23.626c0,6.829-3.037,12.992-7.656,17.326l-31.945,31.762
		v29.667c0,12.995-10.691,23.628-23.765,23.628c-13.069,0-23.76-10.633-23.76-23.628V73.095z"/>
	<path d="M321.419,8.943c14.64,0,28.371,5.621,38.666,15.832c2.915,3.018,4.526,6.842,4.526,10.781
		c0,8.309-6.822,15.066-15.205,15.066c-4.146,0-8.235-1.803-11.215-4.945l-0.302-0.312l-0.328-0.285
		c-4.512-3.875-10.241-6.008-16.143-6.008c-13.453,0-24.4,10.908-24.4,24.311c0,13.408,10.947,24.315,24.4,24.315
		c6.355,0,12.604-2.584,17.124-7.084c2.899-2.881,6.759-4.466,10.863-4.466c8.383,0,15.205,6.757,15.205,15.067
		c0,4.088-1.807,8.125-5.032,11.146c-10.387,9.974-23.939,15.468-38.16,15.468c-30.219,0-54.802-24.427-54.802-54.447
		C266.617,33.365,291.2,8.943,321.419,8.943 M321.419,0.381c-34.982,0-63.366,28.221-63.366,63.001
		c0,34.784,28.384,63.008,63.366,63.008c17.03,0,32.607-6.828,44.095-17.854c4.619-4.329,7.653-10.496,7.653-17.32
		c0-12.996-10.691-23.632-23.761-23.632c-6.603,0-12.539,2.625-16.896,6.957c-2.775,2.76-6.73,4.595-11.091,4.595
		c-8.712,0-15.838-7.085-15.838-15.753c0-8.66,7.126-15.748,15.838-15.748c3.961,0,7.657,1.441,10.563,3.938
		c4.354,4.592,10.557,7.614,17.424,7.614c13.069,0,23.761-10.634,23.761-23.63c0-6.561-2.769-12.469-6.995-16.801
		C354.688,7.338,338.85,0.381,321.419,0.381L321.419,0.381z"/>
	<path d="M452.361,8.943c30.216,0,54.802,24.422,54.802,54.439c0,30.021-24.586,54.447-54.802,54.447
		c-30.222,0-54.801-24.427-54.801-54.447C397.561,33.365,422.14,8.943,452.361,8.943 M452.361,87.698
		c13.457,0,24.4-10.907,24.4-24.315c0-13.402-10.943-24.311-24.4-24.311c-13.46,0-24.402,10.908-24.402,24.311
		C427.959,76.791,438.901,87.698,452.361,87.698 M452.361,0.381c-34.982,0-63.366,28.221-63.366,63.001
		c0,34.784,28.384,63.008,63.366,63.008c34.985,0,63.367-28.224,63.367-63.008C515.729,28.602,487.347,0.381,452.361,0.381
		L452.361,0.381z M452.361,79.135c-8.712,0-15.845-7.085-15.845-15.753c0-8.66,7.133-15.748,15.845-15.748
		s15.842,7.088,15.842,15.748C468.203,72.05,461.073,79.135,452.361,79.135L452.361,79.135z"/>
	<path d="M633.205,8.943c8.383,0,15.197,6.759,15.197,15.064v78.755c0,8.304-6.814,15.067-15.197,15.067
		c-4.146,0-8.236-1.805-11.213-4.947l-0.09-0.086l-0.086-0.09l-38.02-37.801l-14.601-14.52v20.589v21.787
		c0,8.304-6.82,15.067-15.199,15.067s-15.202-6.764-15.202-15.067V24.007c0-8.306,6.823-15.064,15.202-15.064
		c4.019,0,7.833,1.586,10.73,4.467l38.677,38.457l14.6,14.516V45.796V24.007C618.004,15.702,624.822,8.943,633.205,8.943
		 M633.205,0.381c-13.07,0-23.762,10.63-23.762,23.626v21.789L570.762,7.338c-4.354-4.333-10.297-6.957-16.765-6.957
		c-13.066,0-23.761,10.63-23.761,23.626v78.755c0,12.995,10.694,23.628,23.761,23.628c13.069,0,23.761-10.633,23.761-23.628V80.975
		l38.02,37.8c4.357,4.594,10.564,7.615,17.428,7.615c13.066,0,23.76-10.633,23.76-23.628V24.007
		C656.965,11.011,646.271,0.381,633.205,0.381L633.205,0.381z"/>
	<g>
		<path fill="#E24446" d="M64.494,1.076H23.499C10.576,1.076,0,11.587,0,24.446v77.885c0,12.854,10.576,23.366,23.499,23.366
			c12.929,0,23.501-10.512,23.501-23.366v-9.094h15.666c25.589,0,46.348-21.548,46.348-46.073
			C109.014,22.368,89.173,2.117,64.494,1.076z M68.206,63.386H41.748l2.068-3.574L30.535,46.521l1.812-1.818v-5.729h5.739
			l1.818-1.82l7.053,7.057V31.265h3.117l4.901-4.904l4.904,4.904h3.114V44.21l7.053-7.057l1.822,1.82h5.732v5.729l1.822,1.818
			L66.141,59.812L68.206,63.386z"/>
	</g>
</g>
</svg>
