<?xml version="1.0" encoding="utf-8"?>
<!-- Generator: Adobe Illustrator 16.0.4, SVG Export Plug-In . SVG Version: 6.00 Build 0)  -->
<!DOCTYPE svg PUBLIC "-//W3C//DTD SVG 1.1//EN" "http://www.w3.org/Graphics/SVG/1.1/DTD/svg11.dtd" [
	<!ENTITY ns_flows "http://ns.adobe.com/Flows/1.0/">
	<!ENTITY ns_extend "http://ns.adobe.com/Extensibility/1.0/">
	<!ENTITY ns_ai "http://ns.adobe.com/AdobeIllustrator/10.0/">
	<!ENTITY ns_graphs "http://ns.adobe.com/Graphs/1.0/">
]>
<svg version="1.1" id="Layer_1" xmlns:x="&ns_extend;" xmlns:i="&ns_ai;" xmlns:graph="&ns_graphs;"
	 xmlns="http://www.w3.org/2000/svg" xmlns:xlink="http://www.w3.org/1999/xlink" xmlns:a="http://ns.adobe.com/AdobeSVGViewerExtensions/3.0/"
	 x="0px" y="0px" width="288.473px" height="38.492px" viewBox="0 0 288.473 38.492" enable-background="new 0 0 288.473 38.492"
	 xml:space="preserve">
<g>
	<g>
		<path fill="#E24243" d="M227.425,24.057c1.33,0,2.54-0.562,3.387-1.403c1.332-1.322,3.146-2.125,5.162-2.125
			c3.992,0,7.259,3.248,7.259,7.217c0,2.086-0.928,3.971-2.34,5.293c-3.508,3.369-8.266,5.453-13.468,5.453
			c-10.687,0-19.355-8.621-19.355-19.246C208.07,8.621,216.739,0,227.425,0c5.323,0,10.162,2.125,13.67,5.613
			c1.29,1.323,2.138,3.127,2.138,5.132c0,3.97-3.267,7.218-7.259,7.218c-2.097,0-3.992-0.923-5.322-2.326
			c-0.888-0.762-2.017-1.202-3.227-1.202c-2.661,0-4.839,2.165-4.839,4.811S224.764,24.057,227.425,24.057z"/>
		<path fill="#E24243" d="M260.972,3.568c1.29-2.125,3.63-3.568,6.291-3.568s5,1.443,6.29,3.568l13.992,24.137
			c0.564,1.043,0.928,2.287,0.928,3.568c0,3.971-3.266,7.219-7.258,7.219c-2.702,0-5.081-1.484-6.331-3.689l-1.331-2.325h-12.581
			l-1.411,2.446c-1.291,2.125-3.589,3.568-6.25,3.568c-3.993,0-7.259-3.248-7.259-7.219c0-1.281,0.322-2.525,0.927-3.568
			L260.972,3.568z"/>
	</g>
</g>
<g>
	<path fill="#061E3B" d="M48.585,22.212l-9.959-9.902c-1.331-1.323-2.139-3.128-2.139-5.092c0-3.97,3.268-7.217,7.259-7.217
		c2.097,0,3.991,0.882,5.322,2.326l6.773,6.735l6.977-6.937C64.109,0.802,65.923,0,67.94,0c3.992,0,7.259,3.247,7.259,7.217
		c0,2.086-0.929,3.969-2.34,5.292l-9.758,9.702v9.062c0,3.971-3.266,7.219-7.259,7.219c-3.992,0-7.258-3.248-7.258-7.219
		L48.585,22.212L48.585,22.212z"/>
	<path fill="#061E3B" d="M98.179,2.616c4.472,0,8.666,1.717,11.812,4.836c0.891,0.922,1.383,2.09,1.383,3.293
		c0,2.538-2.084,4.603-4.646,4.603c-1.267,0-2.516-0.551-3.426-1.511l-0.092-0.096l-0.102-0.087
		c-1.378-1.184-3.128-1.835-4.931-1.835c-4.109,0-7.453,3.332-7.453,7.426c0,4.096,3.344,7.426,7.453,7.426
		c1.941,0,3.85-0.789,5.23-2.164c0.886-0.879,2.063-1.362,3.317-1.362c2.562,0,4.646,2.063,4.646,4.603
		c0,1.248-0.553,2.481-1.537,3.404c-3.173,3.047-7.312,4.725-11.656,4.725c-9.229,0-16.739-7.461-16.739-16.63
		C81.439,10.076,88.948,2.616,98.179,2.616 M98.179,0.001c-10.686,0-19.354,8.62-19.354,19.244c0,10.625,8.67,19.247,19.354,19.247
		c5.202,0,9.96-2.086,13.469-5.455c1.411-1.322,2.338-3.205,2.338-5.291c0-3.97-3.266-7.218-7.258-7.218
		c-2.017,0-3.83,0.802-5.161,2.125c-0.848,0.843-2.056,1.403-3.388,1.403c-2.661,0-4.838-2.164-4.838-4.812
		c0-2.646,2.177-4.811,4.838-4.811c1.21,0,2.339,0.44,3.227,1.203c1.33,1.402,3.226,2.325,5.322,2.325
		c3.992,0,7.258-3.248,7.258-7.218c0-2.004-0.846-3.809-2.137-5.132C108.341,2.126,103.503,0.001,98.179,0.001L98.179,0.001z"/>
	<path fill="#061E3B" d="M138.176,2.616c9.229,0,16.739,7.46,16.739,16.629c0,9.17-7.511,16.631-16.739,16.631
		c-9.231,0-16.739-7.461-16.739-16.631C121.437,10.076,128.944,2.616,138.176,2.616 M138.176,26.671c4.11,0,7.453-3.33,7.453-7.426
		c0-4.094-3.343-7.426-7.453-7.426c-4.111,0-7.454,3.332-7.454,7.426C130.722,23.341,134.064,26.671,138.176,26.671 M138.176,0.001
		c-10.686,0-19.355,8.62-19.355,19.244c0,10.625,8.671,19.247,19.355,19.247c10.687,0,19.354-8.621,19.354-19.247
		C157.531,8.621,148.862,0.001,138.176,0.001L138.176,0.001z M138.176,24.057c-2.661,0-4.84-2.164-4.84-4.812
		c0-2.646,2.179-4.811,4.84-4.811s4.839,2.165,4.839,4.811C143.015,21.893,140.837,24.057,138.176,24.057L138.176,24.057z"/>
	<path fill="#061E3B" d="M193.415,2.616c2.561,0,4.643,2.064,4.643,4.602v24.056c0,2.537-2.082,4.603-4.643,4.603
		c-1.268,0-2.517-0.551-3.425-1.51l-0.027-0.027l-0.026-0.026l-11.612-11.547l-4.461-4.435v6.288v6.655
		c0,2.537-2.083,4.603-4.643,4.603s-4.644-2.064-4.644-4.603V7.218c0-2.537,2.084-4.602,4.644-4.602
		c1.229,0,2.393,0.484,3.277,1.364l11.813,11.747l4.459,4.435v-6.289V7.218C188.771,4.681,190.854,2.616,193.415,2.616
		 M193.415,0.001c-3.992,0-7.258,3.247-7.258,7.217v6.655L174.342,2.126c-1.33-1.323-3.146-2.125-5.121-2.125
		c-3.991,0-7.258,3.247-7.258,7.217v24.056c0,3.97,3.267,7.218,7.258,7.218c3.992,0,7.258-3.248,7.258-7.218v-6.655l11.613,11.547
		c1.331,1.403,3.227,2.326,5.323,2.326c3.99,0,7.258-3.248,7.258-7.218V7.218C200.673,3.248,197.406,0.001,193.415,0.001
		L193.415,0.001z"/>
	<g>
		<path fill="#061E3B" d="M19.7,0.213H7.178C3.23,0.213,0,3.424,0,7.352v23.79c0,3.927,3.229,7.139,7.178,7.139
			c3.949,0,7.179-3.212,7.179-7.139v-2.777h4.785c7.816,0,14.157-6.582,14.157-14.073C33.299,6.717,27.238,0.531,19.7,0.213z
			 M20.834,19.246h-8.082l0.632-1.092l-4.057-4.06l0.554-0.556v-1.75h1.753l0.556-0.556l2.154,2.155V9.435h0.952l1.497-1.498
			l1.498,1.498h0.951v3.954l2.153-2.155l0.558,0.556h1.751v1.75l0.557,0.556l-4.058,4.06L20.834,19.246z"/>
	</g>
</g>
</svg>
