<?xml version="1.0" encoding="utf-8"?>
<!-- Generator: Adobe Illustrator 16.0.4, SVG Export Plug-In . SVG Version: 6.00 Build 0)  -->
<!DOCTYPE svg PUBLIC "-//W3C//DTD SVG 1.1//EN" "http://www.w3.org/Graphics/SVG/1.1/DTD/svg11.dtd" [
	<!ENTITY ns_flows "http://ns.adobe.com/Flows/1.0/">
	<!ENTITY ns_extend "http://ns.adobe.com/Extensibility/1.0/">
	<!ENTITY ns_ai "http://ns.adobe.com/AdobeIllustrator/10.0/">
	<!ENTITY ns_graphs "http://ns.adobe.com/Graphs/1.0/">
]>
<svg version="1.1" id="Layer_1" xmlns:x="&ns_extend;" xmlns:i="&ns_ai;" xmlns:graph="&ns_graphs;"
	 xmlns="http://www.w3.org/2000/svg" xmlns:xlink="http://www.w3.org/1999/xlink" xmlns:a="http://ns.adobe.com/AdobeSVGViewerExtensions/3.0/"
	 x="0px" y="0px" width="470.655px" height="583.048px" viewBox="0 0 470.655 583.048" enable-background="new 0 0 470.655 583.048"
	 xml:space="preserve">
<g>
	<path fill="#FFFFFF" d="M401.215,203.804c-0.503-0.294-1.037-0.538-1.584-0.754c-0.149-0.061-0.309-0.111-0.464-0.164
		c-0.419-0.145-0.847-0.271-1.291-0.374c-0.15-0.034-0.298-0.072-0.452-0.104c-0.585-0.112-1.184-0.192-1.797-0.228
		c-0.122-0.008-0.244,0-0.363-0.004c-0.51-0.018-1.036-0.01-1.57,0.029c-0.231,0.018-0.473,0.043-0.709,0.068
		c-0.439,0.053-0.883,0.121-1.331,0.203c-0.325,0.064-0.653,0.134-0.987,0.216c-0.355,0.081-0.712,0.188-1.072,0.296
		c-0.568,0.168-1.146,0.371-1.727,0.595c-0.316,0.12-0.632,0.241-0.955,0.382c-0.997,0.432-2.004,0.918-3.038,1.511
		c-1.291,0.745-2.551,1.622-3.788,2.561c-0.209,0.158-0.415,0.306-0.618,0.47c-1.175,0.924-2.319,1.936-3.428,3.012
		c-0.268,0.258-0.527,0.521-0.792,0.787c-0.564,0.576-1.121,1.171-1.666,1.777c-0.292,0.331-0.59,0.653-0.875,0.994
		c-0.33,0.387-0.652,0.783-0.972,1.183c-0.379,0.466-0.751,0.935-1.114,1.415c-0.212,0.28-0.416,0.564-0.624,0.849
		c-0.431,0.589-0.847,1.191-1.257,1.803c-0.149,0.224-0.299,0.447-0.449,0.676c-0.521,0.804-1.029,1.623-1.516,2.457
		c-0.09,0.159-0.176,0.323-0.272,0.481c-0.411,0.727-0.812,1.463-1.195,2.207c-0.112,0.215-0.218,0.431-0.328,0.646
		c-0.379,0.749-0.735,1.507-1.076,2.269c-0.068,0.15-0.136,0.296-0.203,0.447c-0.384,0.882-0.739,1.772-1.077,2.664
		c-0.092,0.231-0.169,0.465-0.255,0.696c-0.245,0.688-0.478,1.372-0.692,2.058c-0.104,0.322-0.201,0.645-0.293,0.967
		c-0.168,0.561-0.313,1.124-0.454,1.684c-0.114,0.438-0.224,0.877-0.32,1.312c-0.099,0.427-0.174,0.853-0.253,1.278
		c-0.124,0.646-0.241,1.295-0.334,1.936c-0.05,0.354-0.087,0.697-0.127,1.046c-0.169,1.411-0.281,2.811-0.273,4.174l0.069,25.637
		l62.111,36.093l-0.075-25.637c-0.003-1.364,0.107-2.763,0.276-4.174c0.019-0.168,0.01-0.322,0.03-0.49
		c0.021-0.186,0.07-0.37,0.094-0.555c0.094-0.643,0.211-1.287,0.336-1.938c0.053-0.275,0.083-0.55,0.141-0.83
		c0.03-0.15,0.078-0.296,0.113-0.447c0.096-0.434,0.208-0.873,0.317-1.309c0.087-0.335,0.157-0.666,0.246-1.002
		c0.063-0.225,0.143-0.452,0.208-0.68c0.1-0.331,0.196-0.659,0.301-0.989c0.081-0.263,0.154-0.525,0.24-0.788
		c0.133-0.4,0.285-0.796,0.426-1.192c0.094-0.262,0.185-0.521,0.283-0.782c0.039-0.104,0.072-0.207,0.112-0.311
		c0.279-0.73,0.575-1.458,0.892-2.177c0.017-0.039,0.038-0.077,0.056-0.12c0.088-0.207,0.188-0.409,0.278-0.615
		c0.212-0.461,0.41-0.921,0.635-1.377c0.101-0.215,0.218-0.426,0.321-0.642c0.143-0.284,0.29-0.568,0.435-0.856
		c0.102-0.189,0.189-0.387,0.292-0.576c0.272-0.508,0.56-1.012,0.846-1.515c0.094-0.164,0.18-0.327,0.269-0.486
		c0.014-0.017,0.021-0.034,0.033-0.052c0.402-0.697,0.826-1.391,1.26-2.07c0.077-0.12,0.158-0.236,0.235-0.356
		c0.157-0.232,0.313-0.465,0.471-0.697c0.234-0.353,0.469-0.714,0.712-1.062c0.161-0.228,0.332-0.448,0.496-0.672
		c0.215-0.297,0.431-0.589,0.65-0.882c0.156-0.215,0.313-0.439,0.478-0.649c0.215-0.28,0.446-0.538,0.666-0.81
		c0.305-0.378,0.606-0.753,0.915-1.119c0.139-0.158,0.268-0.33,0.408-0.49c0.16-0.189,0.344-0.357,0.51-0.541
		c0.547-0.615,1.106-1.21,1.678-1.791c0.164-0.167,0.318-0.349,0.482-0.512c0.086-0.086,0.18-0.15,0.267-0.232
		c1.114-1.084,2.271-2.104,3.451-3.037c0.199-0.155,0.4-0.297,0.6-0.448c1.237-0.946,2.504-1.824,3.798-2.573
		c1.027-0.594,2.038-1.08,3.038-1.51c0.111-0.047,0.233-0.125,0.343-0.173c0.207-0.086,0.405-0.134,0.614-0.21
		c0.58-0.225,1.156-0.427,1.722-0.594c0.174-0.053,0.354-0.135,0.526-0.182c0.183-0.051,0.354-0.068,0.534-0.111
		c0.354-0.086,0.702-0.16,1.051-0.224c0.185-0.035,0.374-0.091,0.559-0.121c0.232-0.038,0.452-0.043,0.682-0.068
		c0.25-0.03,0.505-0.061,0.756-0.077c0.124-0.009,0.258-0.035,0.384-0.039c0.415-0.021,0.821-0.004,1.222,0.008
		c0.101,0.006,0.211-0.004,0.313,0.006c0.025,0,0.056,0,0.084,0c0.506,0.033,1,0.09,1.481,0.171c0.087,0.018,0.17,0.044,0.258,0.062
		c0.133,0.024,0.262,0.06,0.395,0.09c0.244,0.055,0.492,0.098,0.724,0.168c0.229,0.064,0.44,0.154,0.663,0.231
		c0.125,0.048,0.259,0.087,0.378,0.138c0.083,0.03,0.174,0.053,0.251,0.086c0.426,0.177,0.836,0.38,1.23,0.603
		c0.042,0.026,0.089,0.052,0.133,0.078C442.622,227.864,421.922,215.834,401.215,203.804z"/>
	<g>
		<polygon fill="#FFFFFF" points="111.37,451.049 173.176,486.806 163.191,516.361 104.364,544.826 83.174,514.147 		"/>
		<path fill="#FFFFFF" d="M198.789,312.413c35.812-20.676,64.967-4.255,65.081,36.669c0.117,40.92-28.845,90.898-64.659,111.575
			c-35.812,20.673-64.969,4.254-65.08-36.671C134.01,383.065,162.978,333.088,198.789,312.413z M199.051,405.058
			c8.917-5.146,16.181-17.698,16.15-27.877c-0.025-10.182-7.339-14.318-16.253-9.17c-8.916,5.15-16.212,17.715-16.185,27.896
			C182.795,406.09,190.135,410.204,199.051,405.058"/>
		<path fill="#FFFFFF" d="M383.926,205.523c13.36-7.715,24.368-1.54,24.41,13.749l0.262,92.645
			c0.045,15.293-10.889,34.137-24.25,41.85c-7.035,4.062-13.402,4.175-17.865,1.344l-39.058-22.002l0.075,25.633
			c0.042,15.293-10.868,34.122-24.259,41.851c-13.365,7.719-24.34,1.528-24.382-13.765l-0.263-92.646
			c-0.044-15.288,10.859-34.113,24.226-41.832c6.639-3.83,12.721-4.238,17.184-1.729l39.736,22.388l-0.07-25.637
			C359.628,232.081,370.535,213.257,383.926,205.523z"/>
		<path fill="#FFFFFF" d="M199.037,312.671c35.814-20.674,64.967-4.255,65.083,36.67c0.118,40.921-28.845,90.9-64.661,111.573
			c-35.812,20.677-64.968,4.257-65.081-36.668C134.258,383.325,163.226,333.347,199.037,312.671z M199.299,405.316
			c8.917-5.146,16.182-17.697,16.153-27.878c-0.027-10.181-7.342-14.315-16.256-9.168c-8.916,5.15-16.212,17.714-16.182,27.895
			C183.043,406.351,190.384,410.465,199.299,405.316"/>
		<path fill="#FFFFFF" d="M64.717,389.821c17.861-10.314,34.087-11.492,45.885-4.831c4.346,2.604,7.208,7.882,7.23,15.611
			c0.043,15.286-10.862,34.112-24.258,41.845c-7.029,4.062-13.398,4.174-17.861,1.343c-2.984-1.217-6.764-0.723-10.843,1.628
			c-8.914,5.153-16.178,17.699-16.152,27.881c0.029,10.185,7.34,14.319,16.261,9.169c4.471-2.581,8.515-7.091,11.345-11.961
			c4.459-7.685,10.53-14.27,17.282-18.169c13.391-7.731,24.367-1.534,24.411,13.724c0.022,8.047-3.078,17.09-7.794,24.927
			c-11.72,19.751-27.645,37.011-45.086,47.078c-35.812,20.676-64.969,4.254-65.084-36.666
			C-0.064,460.474,28.904,410.498,64.717,389.821z"/>
		<path fill="#FFFFFF" d="M384.177,205.784c13.359-7.716,24.368-1.541,24.41,13.747l0.262,92.646
			c0.042,15.293-10.892,34.135-24.251,41.85c-7.035,4.062-13.402,4.176-17.865,1.343l-39.057-21.999l0.072,25.631
			c0.044,15.293-10.865,34.123-24.256,41.85c-13.365,7.72-24.341,1.527-24.383-13.765l-0.264-92.646
			c-0.043-15.288,10.859-34.113,24.225-41.833c6.642-3.829,12.724-4.238,17.187-1.729l39.736,22.389l-0.073-25.637
			C359.878,232.341,370.786,213.517,384.177,205.784z"/>
		<path fill="#27B14B" d="M445.982,241.569c13.362-7.715,24.365-1.54,24.411,13.748l0.262,92.646
			c0.042,15.291-10.892,34.135-24.252,41.849c-7.034,4.062-13.401,4.174-17.864,1.343l-39.058-22.001l0.073,25.633
			c0.044,15.292-10.866,34.121-24.254,41.851c-13.367,7.719-24.344,1.526-24.388-13.767l-0.262-92.644
			c-0.042-15.289,10.863-34.114,24.226-41.834c6.64-3.829,12.724-4.238,17.187-1.729l39.738,22.388l-0.075-25.637
			C421.685,268.128,432.592,249.302,445.982,241.569z"/>
		<path fill="#FFFFFF" d="M319.955,250.571c-0.503-0.284-1.032-0.517-1.576-0.723c-0.138-0.052-0.275-0.1-0.416-0.146
			c-0.441-0.154-0.9-0.279-1.369-0.383c-0.133-0.03-0.262-0.064-0.395-0.09c-0.581-0.108-1.185-0.182-1.795-0.211
			c-0.136-0.009-0.281,0-0.422-0.005c-0.482-0.013-0.971,0-1.472,0.034c-0.255,0.021-0.508,0.047-0.768,0.078
			c-0.403,0.047-0.814,0.115-1.229,0.193c-0.337,0.06-0.667,0.129-1.001,0.211c-0.358,0.086-0.717,0.193-1.072,0.302
			c-0.563,0.167-1.133,0.365-1.708,0.589c-0.293,0.111-0.59,0.228-0.888,0.357c-1.011,0.43-2.028,0.92-3.077,1.523
			c-1.298,0.748-2.565,1.631-3.808,2.576c-0.189,0.143-0.379,0.28-0.568,0.426c-1.183,0.935-2.336,1.954-3.455,3.039
			c-0.245,0.24-0.491,0.49-0.734,0.734c-0.594,0.603-1.175,1.219-1.743,1.859c-0.27,0.297-0.538,0.598-0.8,0.904
			c-0.363,0.426-0.709,0.856-1.059,1.295c-0.337,0.418-0.674,0.839-0.999,1.27c-0.262,0.348-0.524,0.701-0.779,1.059
			c-0.367,0.512-0.728,1.028-1.079,1.553c-0.18,0.268-0.367,0.533-0.543,0.805c-0.521,0.801-1.024,1.618-1.504,2.449
			c-0.117,0.193-0.216,0.387-0.33,0.584c-0.367,0.65-0.726,1.309-1.071,1.972c-0.15,0.288-0.295,0.575-0.438,0.864
			c-0.349,0.697-0.679,1.398-0.999,2.104c-0.082,0.182-0.166,0.362-0.243,0.547c-0.374,0.853-0.724,1.717-1.051,2.578
			c-0.107,0.297-0.211,0.59-0.313,0.882c-0.227,0.637-0.442,1.274-0.646,1.911c-0.099,0.322-0.197,0.641-0.293,0.963
			c-0.179,0.598-0.335,1.2-0.487,1.803c-0.099,0.393-0.201,0.783-0.287,1.18c-0.107,0.473-0.19,0.946-0.281,1.42
			c-0.11,0.594-0.218,1.184-0.304,1.769c-0.057,0.392-0.099,0.778-0.141,1.166c-0.162,1.395-0.276,2.771-0.268,4.122l0.258,92.646
			c0.026,7.568,2.729,12.912,7.074,15.438l62.105,36.092c-4.345-2.526-7.045-7.865-7.069-15.439l-0.262-92.644
			c-0.004-1.365,0.109-2.768,0.275-4.18c0.017-0.163,0.011-0.321,0.03-0.486c0.026-0.184,0.068-0.379,0.094-0.562
			c0.092-0.604,0.199-1.21,0.316-1.82c0.059-0.314,0.094-0.623,0.157-0.938c0.039-0.177,0.091-0.357,0.131-0.534
			c0.082-0.349,0.167-0.697,0.258-1.041c0.098-0.396,0.18-0.791,0.287-1.187c0.075-0.259,0.164-0.521,0.237-0.779
			c0.081-0.271,0.163-0.539,0.249-0.81c0.09-0.293,0.174-0.58,0.268-0.873c0.138-0.418,0.297-0.83,0.449-1.248
			c0.085-0.232,0.162-0.46,0.248-0.689c0.042-0.114,0.082-0.231,0.124-0.348c0.281-0.727,0.576-1.453,0.892-2.178
			c0.021-0.047,0.042-0.094,0.063-0.141c0.07-0.164,0.151-0.324,0.225-0.486c0.225-0.496,0.438-0.994,0.679-1.486
			c0.11-0.223,0.229-0.446,0.341-0.67c0.129-0.262,0.263-0.524,0.401-0.787c0.1-0.207,0.201-0.414,0.309-0.615
			c0.297-0.564,0.61-1.118,0.931-1.674c0.05-0.09,0.102-0.18,0.152-0.271c0.023-0.039,0.04-0.078,0.063-0.112
			c0.402-0.697,0.826-1.387,1.264-2.065c0.059-0.096,0.124-0.186,0.185-0.28c0.187-0.289,0.385-0.568,0.571-0.857
			c0.22-0.325,0.431-0.656,0.657-0.98c0.147-0.209,0.31-0.412,0.461-0.619c0.243-0.34,0.491-0.676,0.742-1.007
			c0.147-0.188,0.281-0.388,0.426-0.576c0.186-0.241,0.385-0.466,0.571-0.696c0.341-0.427,0.681-0.85,1.029-1.258
			c0.134-0.15,0.255-0.314,0.384-0.465c0.164-0.184,0.332-0.349,0.499-0.533c0.543-0.602,1.088-1.188,1.647-1.756
			c0.176-0.181,0.339-0.375,0.515-0.551c0.092-0.09,0.196-0.163,0.29-0.249c1.104-1.075,2.246-2.083,3.421-3.012
			c0.192-0.155,0.396-0.297,0.593-0.448c1.24-0.938,2.501-1.815,3.791-2.564c1.039-0.598,2.057-1.084,3.065-1.52
			c0.11-0.047,0.231-0.124,0.349-0.172c0.192-0.077,0.372-0.12,0.564-0.193c0.577-0.223,1.15-0.422,1.715-0.59
			c0.175-0.051,0.367-0.137,0.543-0.185c0.161-0.042,0.321-0.064,0.484-0.104c0.347-0.085,0.681-0.154,1.021-0.214
			c0.211-0.042,0.431-0.108,0.637-0.138c0.21-0.034,0.414-0.039,0.62-0.061c0.245-0.029,0.486-0.056,0.728-0.072
			c0.155-0.014,0.31-0.039,0.464-0.048c0.337-0.013,0.654,0.005,0.979,0.009c0.165,0.004,0.328,0,0.491,0.008
			c0.045,0,0.097-0.004,0.139,0c0.503,0.031,1,0.086,1.479,0.174c0.056,0.008,0.103,0.024,0.161,0.037
			c0.134,0.021,0.262,0.061,0.391,0.091c0.273,0.06,0.56,0.107,0.826,0.19c0.176,0.051,0.344,0.124,0.52,0.18
			c0.147,0.052,0.297,0.099,0.439,0.154c0.113,0.044,0.229,0.074,0.34,0.121c0.424,0.176,0.835,0.379,1.231,0.603L319.955,250.571z"
			/>
		<path fill="#FFFFFF" d="M272.55,402.941l-62.112-36.094c2.899,1.683,4.698,5.241,4.712,10.284
			c0.006,1.016-0.064,2.058-0.202,3.106c-0.026,0.19-0.068,0.388-0.099,0.581c-0.026,0.183-0.061,0.362-0.089,0.543
			c-0.065,0.366-0.112,0.728-0.192,1.093c-0.133,0.61-0.283,1.223-0.452,1.837c-0.056,0.203-0.124,0.409-0.188,0.611
			c-0.03,0.111-0.063,0.225-0.099,0.335c-0.072,0.23-0.138,0.462-0.216,0.694c-0.168,0.507-0.353,1.019-0.548,1.522
			c-0.185,0.486-0.384,0.973-0.591,1.454c-0.02,0.039-0.036,0.078-0.055,0.117c-0.017,0.039-0.037,0.076-0.052,0.116
			c-0.175,0.391-0.346,0.782-0.535,1.175c-0.225,0.464-0.461,0.925-0.702,1.379c-0.225,0.423-0.457,0.836-0.692,1.249
			c-0.005,0.004-0.01,0.014-0.015,0.017c-0.017,0.034-0.037,0.069-0.054,0.104c-0.276,0.465-0.557,0.925-0.843,1.377
			c-0.309,0.478-0.622,0.95-0.947,1.41c-0.138,0.199-0.286,0.388-0.431,0.582c-0.077,0.106-0.157,0.215-0.239,0.322
			c-0.135,0.189-0.269,0.379-0.411,0.563c-0.431,0.556-0.868,1.089-1.322,1.609c-0.199,0.232-0.415,0.438-0.622,0.668
			c-0.181,0.192-0.356,0.387-0.544,0.576c-0.206,0.212-0.399,0.443-0.609,0.649c-0.456,0.446-0.943,0.83-1.416,1.243
			c-0.321,0.28-0.626,0.577-0.952,0.839c-0.986,0.784-1.992,1.502-3.034,2.104c-0.766,0.439-1.519,0.813-2.258,1.122
			c-0.255,0.107-0.496,0.169-0.741,0.255c-0.191,0.068-0.371,0.133-0.554,0.194c-0.204,0.063-0.415,0.153-0.611,0.21
			c-0.493,0.13-0.971,0.233-1.434,0.306c-0.215,0.034-0.426,0.043-0.638,0.065c-0.077,0.003-0.159,0.017-0.235,0.021
			c-0.112,0.01-0.234,0.029-0.344,0.033c-0.373,0.019-0.728,0.014-1.082-0.007c-0.339-0.021-0.668-0.06-0.99-0.117
			c-0.069-0.013-0.133-0.033-0.203-0.047c-0.047-0.009-0.094-0.021-0.138-0.029c-0.191-0.043-0.39-0.078-0.575-0.135
			c-0.297-0.087-0.586-0.189-0.865-0.305c-0.281-0.116-0.556-0.249-0.818-0.401c-0.03-0.017-0.06-0.033-0.09-0.051l62.109,36.093
			c0.714,0.418,1.505,0.705,2.345,0.887c0.047,0.013,0.094,0.025,0.145,0.034c0.824,0.163,1.698,0.206,2.612,0.138
			c0.079-0.005,0.162-0.018,0.239-0.021c0.86-0.086,1.755-0.287,2.679-0.581c0.184-0.06,0.37-0.125,0.555-0.192
			c0.979-0.35,1.974-0.785,3-1.378c1.042-0.603,2.053-1.322,3.042-2.11c0.31-0.247,0.606-0.535,0.908-0.797
			c0.709-0.617,1.411-1.25,2.084-1.946c0.168-0.176,0.334-0.356,0.497-0.538c0.841-0.908,1.644-1.867,2.402-2.883
			c0.065-0.091,0.133-0.177,0.198-0.266c0.816-1.12,1.587-2.286,2.289-3.497c0.007-0.016,0.017-0.028,0.025-0.047
			c0.723-1.252,1.376-2.538,1.953-3.851c0-0.004,0.005-0.008,0.005-0.013c0.555-1.26,1.023-2.542,1.418-3.823
			c0.041-0.114,0.074-0.225,0.108-0.337c0.354-1.187,0.625-2.371,0.826-3.545c0.03-0.181,0.063-0.358,0.091-0.534
			c0.188-1.252,0.305-2.493,0.302-3.691C277.244,408.183,275.445,404.624,272.55,402.941z"/>
		<path fill="#FFFFFF" d="M245.025,307.804c-1.357-0.787-2.79-1.445-4.267-2.025c-0.36-0.139-0.73-0.259-1.101-0.388
			c-1.153-0.405-2.335-0.744-3.55-1.021c-0.389-0.091-0.763-0.193-1.153-0.267c-1.552-0.298-3.145-0.508-4.788-0.599
			c-0.349-0.021-0.709,0-1.058-0.008c-1.331-0.039-2.682-0.013-4.059,0.081c-0.661,0.048-1.338,0.126-2.014,0.204
			c-1.119,0.129-2.254,0.309-3.4,0.523c-0.88,0.164-1.771,0.35-2.666,0.568c-1.593,0.387-3.194,0.799-4.834,1.351
			c-0.085,0.03-0.171,0.052-0.259,0.083c-1.846,0.627-3.729,1.41-5.627,2.254c-0.513,0.228-1.03,0.461-1.547,0.705
			c-1.966,0.931-3.954,1.938-5.967,3.1c-2.086,1.204-4.149,2.529-6.188,3.927c-0.677,0.465-1.339,0.978-2.004,1.46
			c-1.355,0.978-2.703,1.975-4.027,3.029c-0.771,0.61-1.527,1.252-2.285,1.893c-1.206,1.012-2.401,2.044-3.575,3.114
			c-0.776,0.706-1.546,1.421-2.303,2.148c-0.912,0.869-1.8,1.777-2.689,2.681c-1.497,1.514-2.965,3.082-4.402,4.687
			c-0.821,0.915-1.652,1.824-2.451,2.771c-0.84,0.984-1.658,1.997-2.47,3.008c-1.008,1.248-2.006,2.5-2.975,3.785
			c-0.589,0.785-1.173,1.581-1.75,2.38c-1.083,1.499-2.144,3.018-3.177,4.558c-0.447,0.662-0.897,1.321-1.333,1.992
			c-1.416,2.178-2.79,4.385-4.097,6.635c-0.133,0.229-0.254,0.461-0.383,0.688c-1.17,2.04-2.29,4.11-3.364,6.197
			c-0.328,0.633-0.649,1.269-0.969,1.91c-1.006,2.011-1.966,4.037-2.874,6.076c-0.155,0.344-0.322,0.688-0.474,1.032
			c-1.033,2.362-1.988,4.747-2.886,7.135c-0.25,0.663-0.479,1.329-0.716,1.992c-0.623,1.729-1.206,3.464-1.75,5.197
			c-0.289,0.917-0.573,1.835-0.84,2.75c-0.439,1.507-0.83,3.008-1.209,4.51c-0.283,1.127-0.581,2.259-0.831,3.387
			c-0.262,1.169-0.463,2.337-0.689,3.507c-0.33,1.717-0.635,3.429-0.881,5.132c-0.219,1.519-0.403,3.038-0.556,4.545
			c-0.077,0.786-0.171,1.579-0.227,2.362c-0.18,2.384-0.293,4.754-0.289,7.087c0.061,20.254,7.229,34.505,18.799,41.231
			l62.108,36.09c-11.571-6.724-18.741-20.976-18.796-41.229c-0.008-2.35,0.106-4.739,0.289-7.138
			c0.055-0.725,0.142-1.455,0.209-2.183c0.109-1.076,0.176-2.146,0.32-3.231c0.063-0.494,0.185-1.002,0.258-1.499
			c0.235-1.655,0.537-3.312,0.854-4.978c0.152-0.808,0.242-1.605,0.414-2.412c0.086-0.415,0.212-0.826,0.306-1.24
			c0.242-1.079,0.521-2.165,0.795-3.25c0.241-0.959,0.44-1.918,0.707-2.882c0.162-0.59,0.365-1.18,0.537-1.77
			c0.259-0.877,0.529-1.76,0.81-2.637c0.223-0.718,0.417-1.434,0.654-2.146c0.341-1.021,0.731-2.035,1.093-3.051
			c0.257-0.71,0.5-1.417,0.767-2.128c0.109-0.294,0.206-0.602,0.323-0.897c0.743-1.937,1.529-3.869,2.363-5.788
			c0.054-0.134,0.117-0.263,0.181-0.391c0.14-0.328,0.3-0.65,0.446-0.978c0.627-1.414,1.259-2.828,1.936-4.229
			c0.297-0.61,0.619-1.213,0.925-1.824c0.343-0.688,0.689-1.367,1.041-2.054c0.28-0.537,0.54-1.083,0.823-1.617
			c0.751-1.419,1.55-2.822,2.348-4.221c0.198-0.34,0.377-0.688,0.576-1.028c0.036-0.063,0.072-0.134,0.109-0.197
			c1.079-1.852,2.194-3.679,3.349-5.482c0.191-0.307,0.405-0.594,0.597-0.896c0.436-0.667,0.888-1.32,1.327-1.979
			c0.611-0.912,1.205-1.838,1.833-2.736c0.437-0.625,0.907-1.218,1.354-1.838c0.573-0.797,1.153-1.584,1.743-2.366
			c0.406-0.543,0.8-1.106,1.215-1.644c0.57-0.737,1.182-1.43,1.767-2.153c0.812-1.011,1.626-2.017,2.462-3.003
			c0.355-0.412,0.688-0.856,1.044-1.268c0.458-0.525,0.952-0.99,1.413-1.503c1.439-1.608,2.904-3.167,4.399-4.687
			c0.449-0.45,0.861-0.955,1.315-1.397c0.446-0.443,0.92-0.849,1.373-1.282c0.761-0.728,1.531-1.441,2.306-2.146
			c1.175-1.072,2.368-2.105,3.574-3.116c0.757-0.642,1.516-1.283,2.286-1.894c1.324-1.054,2.67-2.052,4.027-3.029
			c0.671-0.486,1.329-0.993,2.005-1.457c2.039-1.4,4.1-2.725,6.188-3.93c2.013-1.166,3.997-2.17,5.968-3.098
			c0.524-0.246,1.041-0.478,1.561-0.711c0.528-0.236,1.071-0.512,1.601-0.73c1.344-0.561,2.675-1.059,3.99-1.512
			c0.122-0.042,0.241-0.072,0.367-0.111c1.112-0.375,2.216-0.727,3.307-1.02c0.476-0.129,0.925-0.186,1.395-0.297
			c0.92-0.224,1.825-0.418,2.729-0.586c0.528-0.098,1.084-0.262,1.607-0.344c0.604-0.095,1.185-0.106,1.778-0.177
			c0.677-0.078,1.346-0.153,2.008-0.202c0.355-0.024,0.722-0.09,1.066-0.107c1.017-0.043,2.002-0.004,2.992,0.025
			c0.348,0.01,0.713-0.013,1.057,0.01c0.083,0.004,0.174-0.004,0.256,0c1.339,0.082,2.646,0.236,3.924,0.46
			c0.197,0.034,0.385,0.095,0.576,0.134c0.414,0.076,0.813,0.186,1.219,0.279c0.618,0.142,1.252,0.25,1.854,0.427
			c0.564,0.163,1.098,0.387,1.646,0.579c0.387,0.134,0.774,0.259,1.146,0.406c0.208,0.08,0.429,0.138,0.634,0.224
			c1.116,0.464,2.2,0.993,3.249,1.587c0.121,0.064,0.236,0.133,0.357,0.203C286.428,331.866,265.726,319.835,245.025,307.804z"/>
		<path fill="#F69321" d="M121.023,96.245c25.548-13.52,46.153-1.295,46.235,28.219c0.087,29.19-21.333,67.232-47.839,82.533
			l-16.2,9.354l0.029,10.796c0.044,15.293-10.864,34.117-24.254,41.851c-13.364,7.715-24.372,1.54-24.414-13.753l-0.263-92.645
			c-0.042-15.289,10.895-34.131,24.254-41.846L121.023,96.245z"/>
		<g>
			<path fill="#F69321" d="M281.967,3.324c13.362-7.716,24.366-1.54,24.41,13.751c0.025,8.018-3.077,17.096-7.788,24.893
				l-32.612,56.262l0.1,34.909c0.043,15.292-10.867,34.121-24.229,41.836c-13.394,7.732-24.369,1.541-24.411-13.752l-0.098-34.909
				l-33.505-18.834c-4.458-2.543-7.179-7.93-7.2-15.498c-0.042-15.289,10.867-34.113,24.23-41.829
				c7.031-4.062,13.401-4.341,17.859-1.343l22.805,12.832l23.304-40.232C269.117,13.849,275.186,7.239,281.967,3.324z"/>
		</g>
		<path fill="none" stroke="#FFFFFF" stroke-width="4" stroke-miterlimit="10" d="M182.831,127.434
			c25.547-13.52,46.152-1.294,46.233,28.218c0.087,29.191-21.332,67.233-47.839,82.535l-16.2,9.354l0.029,10.797
			c0.043,15.293-10.864,34.118-24.254,41.85c-13.365,7.715-24.371,1.541-24.414-13.752l-0.262-92.646
			c-0.043-15.287,10.895-34.13,24.254-41.845L182.831,127.434z"/>
		<path fill="none" stroke="#FFFFFF" stroke-width="4" stroke-miterlimit="10" d="M343.773,34.513
			c13.364-7.715,24.368-1.541,24.409,13.752c0.029,8.016-3.076,17.096-7.784,24.893l-32.615,56.26l0.098,34.91
			c0.044,15.291-10.862,34.121-24.228,41.837c-13.391,7.731-24.366,1.54-24.41-13.753l-0.102-34.909l-33.499-18.833
			c-4.458-2.543-7.18-7.93-7.198-15.499c-0.044-15.289,10.862-34.113,24.228-41.829c7.033-4.062,13.397-4.341,17.858-1.342
			l22.805,12.832l23.306-40.233C330.926,45.038,336.993,38.429,343.773,34.513z"/>
		<path fill="#27B14B" d="M126.772,425.867c17.861-10.315,34.087-11.494,45.886-4.832c4.343,2.603,7.205,7.882,7.228,15.61
			c0.043,15.288-10.861,34.113-24.254,41.847c-7.032,4.062-13.398,4.172-17.861,1.343c-2.986-1.218-6.763-0.724-10.843,1.631
			c-8.917,5.148-16.18,17.697-16.153,27.879c0.031,10.183,7.34,14.319,16.261,9.168c4.47-2.583,8.514-7.093,11.346-11.962
			c4.458-7.685,10.529-14.269,17.28-18.167c13.391-7.732,24.366-1.535,24.408,13.722c0.023,8.046-3.077,17.093-7.789,24.928
			c-11.722,19.749-27.647,37.008-45.086,47.078c-35.813,20.675-64.97,4.254-65.085-36.666
			C61.993,496.521,90.959,446.541,126.772,425.867z"/>
		<g enable-background="new    ">
			<path fill="#77316A" d="M116.466,476.703"/>
			<path fill="#79336C" d="M115.706,479.189"/>
			<path fill="#7C346F" d="M114.866,481.521"/>
			<path fill="#954385" d="M86.791,521.254"/>
		</g>
		<path fill="#FFFFFF" d="M89.672,460.716c0.564-0.778,1.131-1.555,1.709-2.318c0.412-0.548,0.804-1.12,1.227-1.662
			c0.576-0.744,1.196-1.442,1.784-2.172c0.806-1.005,1.613-2.001,2.439-2.979c0.359-0.417,0.689-0.859,1.052-1.273
			c0.463-0.529,0.963-1.002,1.433-1.524c1.414-1.581,2.857-3.119,4.329-4.61c0.463-0.474,0.894-0.994,1.363-1.455
			c0.469-0.466,0.963-0.887,1.437-1.343c0.724-0.688,1.451-1.363,2.187-2.031c1.213-1.109,2.448-2.177,3.692-3.223
			c0.731-0.615,1.461-1.229,2.203-1.82c1.347-1.076,2.71-2.087,4.087-3.077c0.659-0.474,1.304-0.972,1.966-1.428
			c2.04-1.397,4.101-2.725,6.192-3.933c2.001-1.153,3.972-2.155,5.926-3.086c0.524-0.246,1.041-0.478,1.561-0.709
			c0.607-0.271,1.222-0.581,1.824-0.831c1.222-0.508,2.428-0.954,3.623-1.373c0.046-0.017,0.093-0.038,0.143-0.051
			c1.305-0.452,2.593-0.854,3.868-1.196c0.409-0.111,0.8-0.155,1.21-0.26c0.917-0.223,1.816-0.402,2.713-0.571
			c0.603-0.115,1.222-0.297,1.816-0.388c0.5-0.075,0.974-0.085,1.463-0.146c0.685-0.083,1.358-0.151,2.031-0.198
			c0.434-0.034,0.89-0.116,1.32-0.133c0.81-0.034,1.584,0.009,2.376,0.021c0.46,0.01,0.935-0.009,1.39,0.013
			c0.164,0.009,0.336-0.003,0.494,0.004c1.322,0.082,2.617,0.232,3.882,0.451c0.125,0.022,0.246,0.066,0.369,0.087
			c0.302,0.057,0.586,0.143,0.884,0.201c0.792,0.173,1.586,0.323,2.354,0.548c0.453,0.13,0.876,0.313,1.321,0.465
			c0.4,0.139,0.8,0.272,1.196,0.42c0.289,0.114,0.59,0.191,0.873,0.311c0.938,0.393,1.851,0.826,2.742,1.309
			c0.167,0.092,0.339,0.186,0.507,0.28l-62.107-36.093c-1.327-0.75-2.725-1.364-4.158-1.914c-0.371-0.139-0.744-0.265-1.119-0.394
			c-1.209-0.411-2.452-0.752-3.731-1.022c-0.292-0.066-0.575-0.147-0.873-0.203c-1.546-0.288-3.141-0.465-4.776-0.546
			c-0.421-0.022-0.86-0.005-1.291-0.009c-1.234-0.021-2.487,0.012-3.765,0.112c-0.667,0.047-1.343,0.116-2.018,0.198
			c-1.088,0.129-2.195,0.322-3.307,0.533c-0.89,0.173-1.781,0.348-2.683,0.572c-1.678,0.407-3.365,0.856-5.096,1.454
			c-0.042,0.014-0.085,0.033-0.129,0.046c-1.789,0.625-3.613,1.387-5.456,2.208c-0.517,0.233-1.038,0.465-1.562,0.711
			c-1.954,0.928-3.923,1.932-5.924,3.085c-2.097,1.209-4.161,2.538-6.206,3.941c-0.644,0.443-1.273,0.928-1.91,1.39
			c-1.394,1.003-2.779,2.027-4.143,3.116c-0.732,0.579-1.456,1.191-2.178,1.797c-1.252,1.051-2.487,2.122-3.709,3.236
			c-0.732,0.667-1.46,1.348-2.181,2.036c-0.948,0.902-1.867,1.846-2.798,2.784c-1.476,1.496-2.925,3.045-4.345,4.63
			c-0.823,0.919-1.652,1.832-2.458,2.779c-0.838,0.985-1.656,1.997-2.474,3.013c-1.006,1.247-2.001,2.499-2.969,3.781
			c-0.594,0.789-1.178,1.58-1.756,2.38c-1.101,1.523-2.178,3.062-3.227,4.629c-0.414,0.62-0.834,1.231-1.239,1.855
			c-1.433,2.198-2.819,4.432-4.14,6.705c-0.129,0.219-0.245,0.442-0.37,0.666c-1.175,2.039-2.29,4.112-3.368,6.2
			c-0.336,0.65-0.667,1.304-0.995,1.957c-0.981,1.967-1.918,3.946-2.809,5.942c-0.172,0.387-0.362,0.771-0.529,1.161
			c-1.03,2.35-1.981,4.722-2.875,7.099c-0.249,0.662-0.478,1.33-0.715,1.995c-0.628,1.739-1.213,3.48-1.76,5.224
			c-0.288,0.907-0.568,1.816-0.83,2.725c-0.448,1.518-0.839,3.037-1.223,4.551c-0.278,1.104-0.567,2.212-0.813,3.317
			c-0.271,1.209-0.482,2.414-0.714,3.619c-0.318,1.675-0.62,3.344-0.856,5.003c-0.228,1.581-0.421,3.151-0.572,4.714
			c-0.073,0.731-0.16,1.462-0.215,2.19c-0.18,2.4-0.297,4.788-0.288,7.138c0.055,20.254,7.224,34.505,18.795,41.231l62.108,36.09
			c-11.571-6.724-18.739-20.975-18.794-41.225c-0.01-2.354,0.106-4.746,0.287-7.154c0.058-0.707,0.144-1.417,0.21-2.126
			c0.104-1.089,0.177-2.175,0.318-3.271c0.065-0.502,0.191-1.019,0.264-1.526c0.235-1.622,0.529-3.254,0.838-4.89
			c0.16-0.825,0.25-1.644,0.427-2.474c0.09-0.423,0.215-0.847,0.309-1.269c0.236-1.06,0.512-2.113,0.779-3.175
			c0.243-0.974,0.447-1.946,0.717-2.923c0.164-0.592,0.371-1.187,0.543-1.781c0.258-0.874,0.529-1.747,0.804-2.624
			c0.226-0.715,0.417-1.434,0.657-2.148c0.341-1.033,0.739-2.061,1.108-3.093c0.25-0.688,0.482-1.374,0.74-2.059
			c0.117-0.31,0.211-0.618,0.332-0.927c0.744-1.938,1.532-3.864,2.362-5.783c0.061-0.136,0.124-0.27,0.18-0.402
			c0.143-0.318,0.297-0.636,0.44-0.96c0.636-1.42,1.265-2.833,1.943-4.242c0.312-0.646,0.657-1.276,0.974-1.923
			c0.306-0.61,0.615-1.218,0.929-1.828c0.297-0.579,0.578-1.166,0.883-1.741c0.834-1.568,1.707-3.121,2.593-4.662
			c0.096-0.164,0.183-0.332,0.276-0.49c0.056-0.098,0.106-0.197,0.164-0.298c1.081-1.85,2.197-3.675,3.352-5.48
			c0.203-0.315,0.418-0.616,0.623-0.93c0.414-0.638,0.844-1.262,1.265-1.895"/>
		<path fill="#27B14B" d="M260.847,348.458c35.814-20.676,64.966-4.256,65.083,36.67c0.114,40.921-28.85,90.896-64.661,111.573
			c-35.814,20.676-64.972,4.256-65.083-36.669C196.064,419.112,225.035,369.134,260.847,348.458z M261.108,441.104
			c8.917-5.147,16.18-17.697,16.149-27.878c-0.027-10.182-7.336-14.316-16.252-9.17c-8.916,5.15-16.215,17.715-16.185,27.896
			C244.854,442.137,252.193,446.25,261.108,441.104"/>
	</g>
</g>
</svg>
